<svg width="462" height="351" viewBox="0 0 462 351" fill="none" xmlns="http://www.w3.org/2000/svg">
<g filter="url(#filter0_d_2555_3334)">
<path d="M56.1053 38.4474C57.5163 27.4921 67.5411 19.7551 78.4963 21.1661L415.433 64.5627C426.389 65.9737 434.126 75.9985 432.715 86.9537L405.775 296.113C404.364 307.068 394.34 314.805 383.384 313.394L46.4474 269.997C35.4922 268.586 27.7552 258.561 29.1662 247.606L56.1053 38.4474Z" fill="white" shape-rendering="crispEdges"/>
<path d="M85.741 61.5201C85.0653 61.433 84.4692 61.2386 83.9529 60.9369C83.4458 60.6363 83.0629 60.2482 82.8042 59.7726C82.5455 59.297 82.4497 58.7624 82.5167 58.1687L84.5995 58.437C84.576 58.8386 84.6743 59.1712 84.8945 59.4348C85.1238 59.6997 85.4607 59.8607 85.905 59.9179C86.3586 59.9763 86.7287 59.9158 87.0153 59.7362C87.3031 59.5475 87.4697 59.2772 87.515 58.9254C87.552 58.6385 87.4944 58.3911 87.3424 58.1833C87.1904 57.9755 86.9867 57.8034 86.7313 57.667C86.4865 57.5225 86.1409 57.3557 85.6948 57.1665C85.0892 56.9003 84.5987 56.6536 84.2233 56.4265C83.8583 56.1912 83.5556 55.8747 83.3151 55.4767C83.0851 55.0706 83.0095 54.5621 83.0882 53.9512C83.1621 53.3773 83.3699 52.8959 83.7117 52.507C84.0536 52.1182 84.498 51.846 85.045 51.6906C85.5931 51.526 86.2005 51.4866 86.867 51.5724C87.8667 51.7012 88.6451 52.0508 89.2021 52.6213C89.7696 53.1837 90.0297 53.9042 89.9824 54.7827L87.8441 54.5073C87.8685 54.1716 87.7602 53.8801 87.5192 53.6326C87.2886 53.377 86.9558 53.2213 86.5207 53.1652C86.1411 53.1163 85.8232 53.1742 85.5667 53.3388C85.3195 53.5046 85.172 53.7726 85.1244 54.1429C85.091 54.4021 85.1463 54.6303 85.2902 54.8277C85.4447 55.0169 85.6397 55.1832 85.8753 55.3265C86.1214 55.4617 86.4669 55.6285 86.9119 55.827C87.5175 56.0932 88.0074 56.3445 88.3816 56.5809C88.7558 56.8173 89.0625 57.1391 89.3018 57.5464C89.5411 57.9536 89.622 58.4581 89.5445 59.0598C89.4777 59.5782 89.2815 60.0422 88.9558 60.452C88.6301 60.8617 88.1908 61.1675 87.6378 61.3691C87.0861 61.5616 86.4538 61.6119 85.741 61.5201ZM95.4229 62.6683L93.2345 59.0551L92.8125 62.3321L90.8685 62.0817L92.192 51.8066L94.1359 52.0569L93.383 57.9026L96.3859 54.9722L98.913 55.2977L95.0279 58.7215L97.95 62.9938L95.4229 62.6683ZM101.072 54.6442C100.729 54.6 100.456 54.4566 100.252 54.2139C100.059 53.9631 99.9828 53.6758 100.025 53.3518C100.066 53.0278 100.212 52.7736 100.461 52.5893C100.722 52.397 101.023 52.3229 101.365 52.367C101.708 52.4111 101.976 52.5585 102.169 52.8093C102.373 53.052 102.455 53.3354 102.413 53.6594C102.371 53.9834 102.22 54.2415 101.96 54.4339C101.711 54.6182 101.415 54.6883 101.072 54.6442ZM101.912 55.684L100.921 63.3764L98.9773 63.1261L99.9681 55.4336L101.912 55.684ZM106.109 53.5991L104.786 63.8742L102.842 63.6238L104.165 53.3487L106.109 53.5991ZM109.974 54.0968L108.65 64.3719L106.706 64.1216L108.03 53.8464L109.974 54.0968ZM120.018 60.7827C120.552 60.9549 120.965 61.2858 121.26 61.7754C121.554 62.2651 121.665 62.7968 121.591 63.3708C121.524 63.8891 121.335 64.3307 121.025 64.6953C120.725 65.0519 120.32 65.3103 119.81 65.4705C119.3 65.6306 118.716 65.6684 118.059 65.5838L113.88 65.0454L115.128 55.3535L119.127 55.8686C119.784 55.9532 120.335 56.1324 120.78 56.4061C121.234 56.681 121.557 57.0237 121.748 57.4343C121.949 57.846 122.019 58.2925 121.957 58.7739C121.884 59.3386 121.671 59.791 121.316 60.1312C120.971 60.4725 120.539 60.6897 120.018 60.7827ZM116.557 59.6028L118.334 59.8318C118.797 59.8914 119.166 59.8355 119.443 59.664C119.72 59.4833 119.884 59.1985 119.934 58.8097C119.984 58.4209 119.898 58.104 119.675 57.8589C119.453 57.6138 119.11 57.4614 118.647 57.4018L116.87 57.1729L116.557 59.6028ZM117.985 63.9651C118.457 64.0259 118.837 63.9619 119.125 63.7731C119.422 63.5855 119.597 63.2881 119.649 62.8808C119.703 62.4642 119.606 62.1223 119.358 61.8551C119.111 61.5787 118.752 61.4101 118.28 61.3493L116.364 61.1025L116.027 63.7129L117.985 63.9651ZM125.583 59.9467C125.885 59.5716 126.25 59.2939 126.678 59.1138C127.115 58.9348 127.593 58.8787 128.112 58.9455L127.849 60.9866L127.335 60.9205C126.724 60.8418 126.243 60.9256 125.891 61.1721C125.548 61.4197 125.331 61.8999 125.24 62.6127L124.746 66.445L122.802 66.1946L123.793 58.5022L125.737 58.7525L125.583 59.9467ZM136.084 63.8258C136.048 64.1035 135.997 64.3511 135.931 64.5685L130.308 63.8442C130.283 64.4056 130.421 64.8657 130.723 65.2245C131.025 65.5834 131.426 65.795 131.926 65.8594C132.648 65.9524 133.201 65.7084 133.587 65.1276L135.684 65.3976C135.366 66.1096 134.861 66.6657 134.17 67.0659C133.48 67.457 132.676 67.5935 131.76 67.4754C131.019 67.3801 130.374 67.1322 129.823 66.7319C129.283 66.3236 128.885 65.7971 128.629 65.1525C128.383 64.509 128.31 63.7939 128.411 63.0071C128.514 62.211 128.766 61.5329 129.167 60.973C129.569 60.413 130.082 60.0086 130.707 59.7597C131.332 59.5108 132.024 59.4353 132.783 59.533C133.514 59.6272 134.147 59.8686 134.68 60.2573C135.223 60.6471 135.614 61.1539 135.853 61.7777C136.103 62.3933 136.18 63.076 136.084 63.8258ZM134.142 63.0111C134.197 62.5101 134.068 62.0888 133.754 61.7472C133.442 61.3964 133.031 61.1883 132.522 61.1227C132.04 61.0607 131.614 61.1563 131.243 61.4096C130.882 61.6549 130.631 62.0319 130.49 62.5408L134.142 63.0111ZM136.985 64.0831C137.085 63.3055 137.326 62.6355 137.709 62.0732C138.102 61.512 138.582 61.1034 139.152 60.8474C139.73 60.5925 140.348 60.5075 141.006 60.5921C141.58 60.666 142.065 60.8461 142.461 61.1324C142.866 61.4198 143.175 61.7561 143.389 62.1413L143.531 61.0443L145.488 61.2965L144.498 68.989L142.54 68.7368L142.685 67.6121C142.388 67.9409 142.002 68.1971 141.527 68.3805C141.062 68.5559 140.543 68.6066 139.969 68.5327C139.321 68.4492 138.75 68.2063 138.256 67.8039C137.771 67.4027 137.41 66.881 137.173 66.2388C136.946 65.5885 136.883 64.8699 136.985 64.0831ZM143.035 64.8906C143.096 64.4185 143.055 64.0039 142.913 63.6468C142.772 63.2804 142.555 62.9891 142.263 62.7726C141.972 62.547 141.647 62.4109 141.286 62.3644C140.925 62.3179 140.58 62.3629 140.252 62.4994C139.924 62.636 139.64 62.863 139.402 63.1804C139.174 63.4898 139.03 63.876 138.97 64.3388C138.911 64.8016 138.951 65.2209 139.091 65.5965C139.241 65.964 139.457 66.26 139.739 66.4845C140.029 66.7102 140.351 66.8457 140.703 66.891C141.064 66.9375 141.413 66.8931 141.75 66.7577C142.089 66.6131 142.372 66.3861 142.6 66.0767C142.829 65.7581 142.974 65.3627 143.035 64.8906ZM150.951 69.8201L148.762 66.2069L148.34 69.4839L146.396 69.2335L147.72 58.9584L149.664 59.2088L148.911 65.0545L151.914 62.1241L154.441 62.4495L150.556 65.8733L153.478 70.1456L150.951 69.8201ZM154.504 66.3395C154.604 65.5619 154.846 64.892 155.229 64.3296C155.621 63.7685 156.106 63.3605 156.685 63.1056C157.264 62.8508 157.882 62.7657 158.539 62.8503C159.039 62.9147 159.501 63.0872 159.926 63.3678C160.352 63.6391 160.676 63.9726 160.898 64.3682L161.369 60.7163L163.34 60.9703L162.017 71.2454L160.045 70.9915L160.192 69.8529C159.902 70.2014 159.525 70.4634 159.06 70.6387C158.595 70.8141 158.076 70.8649 157.502 70.7909C156.854 70.7075 156.283 70.4646 155.789 70.0622C155.295 69.6598 154.929 69.1374 154.692 68.4952C154.465 67.8449 154.403 67.1263 154.504 66.3395ZM160.555 67.147C160.615 66.6749 160.575 66.2603 160.432 65.9032C160.291 65.5369 160.075 65.2455 159.783 65.0291C159.492 64.8034 159.166 64.6673 158.805 64.6208C158.444 64.5743 158.099 64.6193 157.771 64.7559C157.443 64.8924 157.16 65.1194 156.921 65.4369C156.693 65.7463 156.549 66.1324 156.49 66.5953C156.43 67.0581 156.47 67.4773 156.61 67.8529C156.76 68.2205 156.976 68.5165 157.258 68.741C157.549 68.9666 157.87 69.1021 158.222 69.1474C158.583 69.1939 158.932 69.1495 159.269 69.0142C159.608 68.8696 159.891 68.6426 160.119 68.3332C160.349 68.0145 160.494 67.6191 160.555 67.147ZM167.315 72.0549C166.575 71.9595 165.929 71.7116 165.378 71.3114C164.829 70.9018 164.422 70.3741 164.157 69.7283C163.901 69.0837 163.824 68.368 163.925 67.5811C164.026 66.7943 164.287 66.1221 164.707 65.5645C165.136 65.0081 165.673 64.6067 166.316 64.3602C166.961 64.1044 167.653 64.0242 168.394 64.1196C169.134 64.215 169.784 64.4681 170.343 64.8788C170.903 65.2803 171.315 65.8039 171.58 66.4498C171.854 67.0968 171.941 67.8137 171.84 68.6005C171.738 69.3873 171.468 70.0584 171.03 70.6136C170.601 71.17 170.059 71.5754 169.405 71.83C168.762 72.0765 168.065 72.1514 167.315 72.0549ZM167.533 70.3609C167.885 70.4062 168.225 70.3652 168.551 70.2379C168.889 70.1026 169.172 69.8756 169.401 69.5569C169.631 69.2382 169.777 68.8336 169.84 68.343C169.934 67.6117 169.812 67.0266 169.473 66.5878C169.145 66.1408 168.703 65.8816 168.148 65.8101C167.592 65.7385 167.099 65.8773 166.668 66.2265C166.248 66.5676 165.991 67.1038 165.897 67.8351C165.802 68.5664 165.91 69.1543 166.22 69.5988C166.54 70.0353 166.978 70.2893 167.533 70.3609ZM184.425 66.3114L181.185 73.7142L179.088 73.4441L178.378 67.8899L176.283 73.0829L174.173 72.811L172.9 64.8271L174.872 65.081L175.478 71.1159L177.704 65.4458L179.759 65.7105L180.451 71.7422L182.564 66.0718L184.425 66.3114ZM189.754 66.8849C190.67 67.0029 191.373 67.3899 191.863 68.0458C192.353 68.6924 192.532 69.5341 192.399 70.5709L191.817 75.0836L189.873 74.8333L190.421 70.5844C190.499 69.9734 190.407 69.4863 190.143 69.1229C189.88 68.7503 189.485 68.5301 188.958 68.4621C188.421 68.3929 187.974 68.5047 187.616 68.7974C187.269 69.0821 187.056 69.5299 186.977 70.1408L186.43 74.3897L184.486 74.1394L185.477 66.4469L187.421 66.6973L187.297 67.6554C187.599 67.3555 187.961 67.1386 188.383 67.0048C188.816 66.8628 189.272 66.8229 189.754 66.8849Z" fill="#1A0533"/>
<path d="M80.7125 95.1393C80.1571 95.0677 79.6695 94.9081 79.2497 94.6605C78.8309 94.4049 78.5176 94.0822 78.3097 93.6925C78.1018 93.3027 78.0285 92.8698 78.0898 92.3937L79.5418 92.5807C79.5275 92.9419 79.6286 93.2533 79.8449 93.5151C80.0692 93.7779 80.4074 93.9384 80.8597 93.9967C81.3278 94.057 81.7071 93.9929 81.9976 93.8045C82.2891 93.6081 82.4578 93.3314 82.5038 92.9743C82.5395 92.6966 82.4854 92.4598 82.3412 92.2637C82.205 92.0688 82.02 91.9078 81.7863 91.7809C81.5606 91.655 81.2406 91.509 80.8265 91.3427C80.3053 91.1304 79.8833 90.9309 79.5606 90.7441C79.2467 90.5504 78.9907 90.2835 78.7925 89.9434C78.5944 89.6033 78.5285 89.1754 78.5949 88.6597C78.6562 88.1836 78.8289 87.7824 79.1129 87.456C79.3969 87.1296 79.7654 86.8988 80.2184 86.7635C80.6714 86.6283 81.1796 86.5969 81.7429 86.6695C82.5443 86.7727 83.1728 87.0593 83.6285 87.5294C84.0932 87.9926 84.3083 88.5768 84.2739 89.2822L82.7743 89.0891C82.7893 88.7845 82.6797 88.5082 82.4455 88.2603C82.2112 88.0123 81.8799 87.8607 81.4514 87.8056C81.0626 87.7555 80.7325 87.8138 80.461 87.9805C80.1894 88.1471 80.0297 88.4169 79.9816 88.7899C79.9489 89.0438 79.9972 89.2637 80.1265 89.4498C80.2648 89.6289 80.4468 89.7814 80.6726 89.9073C80.8983 90.0332 81.2104 90.1782 81.6086 90.3424C82.1367 90.5637 82.5616 90.7717 82.8834 90.9664C83.2131 91.1621 83.4765 91.434 83.6737 91.782C83.8798 92.1231 83.9491 92.5555 83.8817 93.0792C83.8275 93.4997 83.6614 93.8816 83.3832 94.2249C83.113 94.5692 82.7449 94.8283 82.2789 95.0022C81.8218 95.1692 81.2997 95.2149 80.7125 95.1393ZM87.2579 90.211C87.5268 89.9391 87.8729 89.7256 88.2962 89.5704C88.7195 89.4152 89.1811 89.3698 89.681 89.4342C90.2523 89.5077 90.7536 89.7175 91.1849 90.0634C91.6252 90.4025 91.9476 90.8432 92.1519 91.3858C92.3563 91.9283 92.4161 92.5289 92.3312 93.1875C92.2464 93.846 92.0354 94.4198 91.6982 94.9087C91.362 95.3897 90.9369 95.7463 90.4231 95.9786C89.9181 96.2039 89.38 96.2798 88.8088 96.2062C88.3089 96.1418 87.8773 95.9854 87.5141 95.737C87.1519 95.4806 86.8672 95.1858 86.6601 94.8527L86.1358 98.923L84.779 98.7483L86.0253 89.0722L87.3821 89.247L87.2579 90.211ZM90.9507 93.0096C91.0089 92.5574 90.9638 92.1563 90.8152 91.8065C90.6757 91.4497 90.4619 91.1681 90.1739 90.9616C89.8949 90.7483 89.5808 90.6191 89.2317 90.5741C88.8905 90.5302 88.554 90.5755 88.222 90.7102C87.898 90.846 87.6194 91.0682 87.386 91.3769C87.1606 91.6867 87.0188 92.0677 86.9605 92.5199C86.9023 92.9722 86.9424 93.3807 87.081 93.7454C87.2285 94.1031 87.4417 94.3887 87.7208 94.6021C88.0077 94.8165 88.3218 94.9457 88.663 94.9896C89.0121 95.0346 89.3487 94.9892 89.6726 94.8535C90.0056 94.7109 90.2853 94.4807 90.5117 94.163C90.7461 93.8464 90.8924 93.4619 90.9507 93.0096ZM99.7002 94.0035C99.6685 94.2494 99.624 94.4696 99.5667 94.6638L94.5561 94.0185C94.5284 94.5473 94.6686 94.9928 94.9768 95.3552C95.2851 95.7175 95.6931 95.9314 96.2009 95.9968C96.9309 96.0908 97.4859 95.8518 97.8661 95.2796L99.3301 95.4682C99.054 96.0457 98.6291 96.4951 98.0554 96.8164C97.4906 97.1308 96.8234 97.2385 96.0537 97.1394C95.4269 97.0586 94.8814 96.8472 94.4173 96.5051C93.9622 96.1561 93.6245 95.7093 93.4043 95.1647C93.193 94.6132 93.1308 94.0003 93.2176 93.3258C93.3045 92.6514 93.5155 92.0777 93.8507 91.6046C94.1948 91.1246 94.6308 90.7775 95.1585 90.5631C95.6941 90.3498 96.2833 90.2845 96.926 90.3673C97.5448 90.447 98.0789 90.6529 98.5282 90.985C98.9774 91.3171 99.3053 91.7465 99.5117 92.2732C99.7191 92.792 99.7819 93.3687 99.7002 94.0035ZM98.3391 93.3926C98.3955 92.8917 98.2686 92.468 97.9583 92.1215C97.648 91.7751 97.235 91.5686 96.7193 91.5022C96.2512 91.4419 95.831 91.541 95.459 91.7996C95.0879 92.0503 94.8379 92.4254 94.7091 92.9251L98.3391 93.3926ZM103.084 88.9825L101.949 97.7898L100.592 97.615L101.727 88.8078L103.084 88.9825ZM106.222 89.3867L105.087 98.194L103.731 98.0192L104.865 89.212L106.222 89.3867ZM108.516 91.0857C108.27 91.054 108.074 90.9441 107.929 90.756C107.784 90.5679 107.727 90.3509 107.759 90.1049C107.79 89.859 107.9 89.6634 108.088 89.5182C108.276 89.3731 108.493 89.3163 108.739 89.348C108.977 89.3787 109.169 89.488 109.314 89.6761C109.459 89.8642 109.516 90.0812 109.484 90.3272C109.453 90.5732 109.343 90.7687 109.155 90.9139C108.967 91.0591 108.754 91.1163 108.516 91.0857ZM109.07 92.0403L108.225 98.5982L106.869 98.4234L107.713 91.8656L109.07 92.0403ZM114.174 92.5888C114.69 92.6552 115.136 92.8216 115.513 93.088C115.898 93.3553 116.179 93.7141 116.355 94.1643C116.53 94.6144 116.58 95.137 116.503 95.7321L116.005 99.6002L114.66 99.427L115.133 95.7612C115.208 95.1741 115.119 94.7069 114.865 94.3596C114.613 94.0044 114.232 93.7941 113.725 93.7287C113.217 93.6633 112.792 93.7699 112.449 94.0485C112.116 94.3201 111.911 94.7495 111.836 95.3366L111.364 99.0023L110.007 98.8276L110.851 92.2698L112.208 92.4445L112.112 93.1943C112.369 92.9532 112.677 92.7792 113.038 92.6724C113.406 92.5666 113.785 92.5387 114.174 92.5888ZM121.237 93.4984C121.744 93.5638 122.179 93.7247 122.542 93.9811C122.913 94.2306 123.19 94.5204 123.373 94.8505L123.496 93.8983L124.865 94.0746L124.006 100.74C123.929 101.343 123.733 101.862 123.418 102.297C123.103 102.741 122.686 103.066 122.167 103.273C121.657 103.482 121.068 103.543 120.402 103.457C119.513 103.343 118.802 103.038 118.269 102.541C117.735 102.053 117.474 101.447 117.487 100.723L118.832 100.896C118.891 101.25 119.074 101.552 119.381 101.801C119.694 102.06 120.085 102.219 120.553 102.279C121.101 102.35 121.563 102.24 121.939 101.949C122.323 101.66 122.556 101.198 122.638 100.563L122.779 99.4683C122.509 99.7481 122.161 99.9696 121.737 100.133C121.322 100.289 120.864 100.335 120.364 100.271C119.793 100.197 119.288 99.9867 118.848 99.6397C118.418 99.2858 118.097 98.8331 117.886 98.2816C117.684 97.7232 117.625 97.1147 117.71 96.4562C117.795 95.7976 118.005 95.2318 118.34 94.7587C118.683 94.2867 119.106 93.942 119.61 93.7246C120.123 93.5002 120.665 93.4249 121.237 93.4984ZM123.074 97.1713C123.133 96.719 123.088 96.314 122.941 95.9563C122.801 95.5995 122.592 95.3144 122.313 95.101C122.034 94.8876 121.72 94.7585 121.37 94.7135C121.021 94.6685 120.685 94.7139 120.361 94.8496C120.038 94.9774 119.76 95.1957 119.526 95.5044C119.302 95.8062 119.161 96.1833 119.102 96.6355C119.044 97.0878 119.084 97.4963 119.223 97.8609C119.369 98.2266 119.582 98.5202 119.86 98.7415C120.146 98.9559 120.461 99.0851 120.802 99.129C121.151 99.174 121.487 99.1286 121.811 98.9929C122.135 98.8572 122.41 98.6344 122.635 98.3247C122.87 98.008 123.016 97.6236 123.074 97.1713ZM135.426 96.1972C135.372 96.6177 135.222 97.0016 134.975 97.349C134.729 97.6964 134.372 97.961 133.905 98.1428C133.439 98.3167 132.865 98.3597 132.182 98.2718L130.683 98.0787L130.251 101.435L128.894 101.26L129.959 92.9885L132.816 93.3564C133.45 93.4382 133.972 93.6182 134.379 93.8966C134.796 94.1681 135.088 94.504 135.254 94.9046C135.428 95.3061 135.485 95.737 135.426 96.1972ZM132.325 97.165C132.841 97.2314 133.24 97.1659 133.524 96.9685C133.809 96.7632 133.978 96.4463 134.034 96.0178C134.15 95.1133 133.697 94.5951 132.673 94.4633L131.173 94.2701L130.825 96.9718L132.325 97.165ZM138.803 102.645C138.184 102.566 137.642 102.355 137.178 102.013C136.715 101.663 136.374 101.215 136.153 100.671C135.934 100.118 135.868 99.5047 135.955 98.8303C136.041 98.1638 136.264 97.5916 136.624 97.1136C136.984 96.6357 137.435 96.2906 137.979 96.0783C138.522 95.866 139.108 95.8002 139.734 95.8809C140.361 95.9617 140.911 96.1736 141.383 96.5167C141.855 96.8598 142.204 97.3081 142.432 97.8617C142.659 98.4152 142.729 99.0253 142.643 99.6918C142.558 100.358 142.331 100.93 141.963 101.407C141.595 101.884 141.131 102.231 140.57 102.45C140.019 102.661 139.43 102.726 138.803 102.645ZM138.954 101.467C139.304 101.512 139.64 101.471 139.963 101.343C140.294 101.216 140.576 100.998 140.809 100.69C141.042 100.381 141.19 99.9885 141.251 99.5124C141.312 99.0363 141.273 98.6239 141.132 98.2751C140.993 97.9183 140.783 97.6372 140.503 97.4318C140.223 97.2263 139.908 97.1011 139.559 97.0561C139.21 97.0112 138.874 97.0526 138.551 97.1804C138.236 97.3092 137.969 97.529 137.752 97.8397C137.536 98.1426 137.397 98.532 137.335 99.0081C137.244 99.7142 137.352 100.285 137.659 100.719C137.975 101.147 138.407 101.397 138.954 101.467ZM153.214 97.7259L150.334 104.022L148.906 103.838L148.208 98.8235L146.263 103.497L144.835 103.313L143.633 96.4919L145.013 96.6697L145.703 102.118L147.774 97.0254L149.191 97.2078L149.848 102.628L151.881 97.5542L153.214 97.7259ZM159.836 101.749C159.805 101.995 159.76 102.215 159.703 102.409L154.692 101.764C154.664 102.293 154.805 102.738 155.113 103.101C155.421 103.463 155.829 103.677 156.337 103.742C157.067 103.836 157.622 103.597 158.002 103.025L159.466 103.214C159.19 103.791 158.765 104.24 158.191 104.562C157.627 104.876 156.959 104.984 156.19 104.885C155.563 104.804 155.018 104.593 154.553 104.251C154.098 103.902 153.761 103.455 153.54 102.91C153.329 102.359 153.267 101.746 153.354 101.071C153.441 100.397 153.652 99.823 153.987 99.35C154.331 98.87 154.767 98.5228 155.295 98.3085C155.83 98.0952 156.419 98.0299 157.062 98.1127C157.681 98.1924 158.215 98.3983 158.664 98.7304C159.114 99.0625 159.441 99.4919 159.648 100.019C159.855 100.537 159.918 101.114 159.836 101.749ZM158.475 101.138C158.532 100.637 158.405 100.213 158.094 99.8669C157.784 99.5205 157.371 99.314 156.855 99.2476C156.387 99.1873 155.967 99.2864 155.595 99.545C155.224 99.7957 154.974 100.171 154.845 100.67L158.475 101.138ZM162.807 99.9295C163.049 99.6218 163.344 99.3976 163.692 99.257C164.05 99.1095 164.455 99.0649 164.907 99.1232L164.727 100.528L164.381 100.483C163.85 100.415 163.428 100.497 163.115 100.731C162.811 100.966 162.616 101.417 162.53 102.084L162.085 105.535L160.728 105.36L161.573 98.8026L162.93 98.9773L162.807 99.9295Z" fill="#1A0533"/>
<path d="M381.565 126.048L377.274 133.251L375.905 133.075L380.214 126.019L375.81 125.452L375.959 124.298L381.695 125.036L381.565 126.048ZM382.731 132.078C383.578 131.518 384.246 131.056 384.737 130.691C385.236 130.32 385.662 129.923 386.015 129.501C386.368 129.078 386.574 128.637 386.634 128.177C386.695 127.701 386.628 127.313 386.432 127.014C386.245 126.715 385.909 126.535 385.425 126.473C384.957 126.412 384.573 126.516 384.272 126.784C383.98 127.045 383.794 127.424 383.714 127.922L382.405 127.753C382.545 126.852 382.904 126.196 383.481 125.787C384.067 125.37 384.761 125.213 385.562 125.317C386.427 125.428 387.071 125.753 387.493 126.291C387.924 126.831 388.088 127.497 387.986 128.291C387.912 128.862 387.695 129.395 387.333 129.888C386.98 130.375 386.574 130.803 386.115 131.171C385.665 131.533 385.095 131.947 384.406 132.415L383.809 132.822L387.582 133.308L387.436 134.439L381.652 133.694L381.779 132.706L382.731 132.078ZM389.246 128.102C389.321 127.523 389.546 127.092 389.921 126.81C390.305 126.52 390.763 126.41 391.294 126.478C391.826 126.547 392.237 126.769 392.527 127.145C392.827 127.515 392.939 127.989 392.864 128.568C392.79 129.147 392.56 129.582 392.176 129.871C391.8 130.161 391.346 130.272 390.815 130.204C390.283 130.135 389.868 129.912 389.57 129.535C389.28 129.159 389.172 128.681 389.246 128.102ZM396.725 127.335L390.91 135.007L389.577 134.836L395.392 127.164L396.725 127.335ZM391.189 127.3C390.689 127.235 390.394 127.548 390.306 128.239C390.216 128.937 390.421 129.318 390.92 129.382C391.158 129.413 391.352 129.353 391.5 129.203C391.657 129.046 391.759 128.789 391.805 128.432C391.894 127.741 391.689 127.364 391.189 127.3ZM393.463 133.594C393.538 133.015 393.763 132.584 394.138 132.301C394.522 132.012 394.98 131.902 395.511 131.97C396.035 132.038 396.442 132.259 396.732 132.636C397.032 133.005 397.144 133.479 397.069 134.058C396.995 134.638 396.766 135.072 396.381 135.361C396.005 135.651 395.555 135.763 395.032 135.695C394.5 135.627 394.085 135.404 393.787 135.027C393.497 134.651 393.389 134.173 393.463 133.594ZM395.394 132.79C394.894 132.725 394.6 133.038 394.511 133.729C394.422 134.419 394.627 134.796 395.127 134.861C395.627 134.925 395.921 134.612 396.01 133.922C396.099 133.232 395.894 132.854 395.394 132.79Z" fill="#7C3AED"/>
<g clip-path="url(#clip0_2555_3334)">
<path d="M75.1248 109.963C75.407 107.772 77.4119 106.224 79.603 106.507L392.737 146.838C394.928 147.12 396.475 149.125 396.193 151.316V151.316C395.911 153.507 393.906 155.054 391.715 154.772L78.581 114.441C76.39 114.159 74.8426 112.154 75.1248 109.963V109.963Z" fill="#E0D5F5"/>
<path d="M75.1248 109.963C75.407 107.772 77.4119 106.224 79.603 106.507L352.35 141.636C354.541 141.918 356.088 143.923 355.806 146.114C355.524 148.305 353.519 149.853 351.328 149.57L78.581 114.441C76.39 114.159 74.8426 112.154 75.1248 109.963Z" fill="#7C3AED"/>
</g>
<path d="M77.1349 140.768L73.6715 140.322L72.8587 141.935L71.4424 141.753L75.4729 133.851L77.0439 134.053L78.9405 142.719L77.5123 142.535L77.1349 140.768ZM76.8966 139.612L76.0468 135.595L74.1949 139.264L76.8966 139.612ZM80.1999 139.541C80.2867 138.867 80.4977 138.293 80.8329 137.82C81.1771 137.34 81.609 136.993 82.1288 136.777C82.6485 136.562 83.2218 136.495 83.8487 136.575C84.6421 136.677 85.2722 136.952 85.7389 137.4C86.2145 137.84 86.4986 138.421 86.5912 139.143L85.1273 138.954C85.0501 138.613 84.8924 138.335 84.6541 138.119C84.4158 137.903 84.0982 137.769 83.7015 137.718C83.1461 137.646 82.6762 137.787 82.2919 138.141C81.9165 138.488 81.6833 139.015 81.5924 139.721C81.5014 140.427 81.593 140.999 81.8673 141.438C82.1494 141.878 82.5682 142.133 83.1236 142.205C83.9091 142.306 84.4733 142.028 84.8161 141.37L86.28 141.559C86.0037 142.201 85.5782 142.686 85.0034 143.016C84.4297 143.337 83.754 143.448 82.9764 143.347C82.3496 143.267 81.8121 143.056 81.3639 142.716C80.9166 142.368 80.5869 141.922 80.3746 141.379C80.1712 140.828 80.113 140.216 80.1999 139.541ZM87.3362 140.461C87.4231 139.786 87.6341 139.212 87.9693 138.739C88.3134 138.259 88.7454 137.912 89.2651 137.696C89.7849 137.481 90.3582 137.414 90.985 137.494C91.7785 137.597 92.4085 137.871 92.8752 138.319C93.3509 138.759 93.635 139.34 93.7275 140.062L92.2636 139.873C92.1865 139.533 92.0288 139.254 91.7905 139.038C91.5521 138.822 91.2346 138.688 90.8379 138.637C90.2825 138.565 89.8126 138.707 89.4282 139.06C89.0528 139.407 88.8197 139.934 88.7287 140.64C88.6378 141.346 88.7294 141.919 89.0036 142.357C89.2858 142.797 89.7046 143.052 90.26 143.124C91.0455 143.225 91.6096 142.947 91.9524 142.289L93.4164 142.478C93.1401 143.12 92.7146 143.605 92.1398 143.935C91.566 144.256 90.8904 144.367 90.1128 144.267C89.486 144.186 88.9485 143.975 88.5002 143.635C88.053 143.287 87.7232 142.842 87.5109 142.298C87.3076 141.748 87.2494 141.135 87.3362 140.461ZM101.285 138.93L100.441 145.488L99.0839 145.313L99.1836 144.539C98.9346 144.782 98.6253 144.96 98.2558 145.073C97.8952 145.18 97.5205 145.208 97.1317 145.158C96.6159 145.092 96.1656 144.925 95.7806 144.658C95.4035 144.391 95.123 144.033 94.9392 143.581C94.7632 143.131 94.7136 142.609 94.7902 142.014L95.2869 138.157L96.6318 138.331L96.1612 141.984C96.0856 142.572 96.1741 143.043 96.4268 143.398C96.6805 143.745 97.0613 143.952 97.5691 144.017C98.0769 144.082 98.4975 143.979 98.8309 143.708C99.1733 143.429 99.3823 142.996 99.458 142.409L99.9286 138.755L101.285 138.93ZM104.31 140.287C104.551 139.98 104.846 139.756 105.195 139.615C105.553 139.468 105.958 139.423 106.41 139.481L106.229 140.886L105.884 140.841C105.352 140.773 104.93 140.855 104.618 141.089C104.313 141.324 104.118 141.775 104.032 142.442L103.588 145.893L102.231 145.718L103.076 139.161L104.432 139.335L104.31 140.287ZM106.773 142.94C106.857 142.281 107.067 141.715 107.403 141.242C107.746 140.77 108.169 140.426 108.673 140.208C109.186 139.984 109.728 139.908 110.299 139.982C110.815 140.048 111.25 140.209 111.604 140.465C111.968 140.713 112.245 141.003 112.436 141.334L112.559 140.382L113.927 140.558L113.083 147.116L111.714 146.94L111.84 145.964C111.57 146.244 111.223 146.461 110.8 146.616C110.377 146.772 109.911 146.816 109.403 146.751C108.84 146.679 108.343 146.469 107.911 146.123C107.481 145.769 107.16 145.317 106.949 144.765C106.746 144.207 106.688 143.598 106.773 142.94ZM112.137 143.655C112.195 143.203 112.151 142.798 112.003 142.44C111.864 142.083 111.654 141.798 111.375 141.585C111.096 141.371 110.782 141.242 110.433 141.197C110.084 141.152 109.747 141.198 109.423 141.333C109.1 141.461 108.822 141.679 108.589 141.988C108.365 142.29 108.223 142.667 108.165 143.119C108.107 143.571 108.147 143.98 108.285 144.345C108.432 144.71 108.644 145.004 108.922 145.225C109.209 145.44 109.523 145.569 109.864 145.613C110.214 145.658 110.55 145.612 110.874 145.477C111.198 145.341 111.473 145.118 111.698 144.808C111.933 144.492 112.079 144.107 112.137 143.655ZM114.836 144.002C114.923 143.328 115.134 142.754 115.469 142.281C115.813 141.801 116.245 141.454 116.765 141.238C117.284 141.023 117.858 140.956 118.484 141.036C119.278 141.138 119.908 141.413 120.375 141.861C120.85 142.301 121.134 142.882 121.227 143.604L119.763 143.415C119.686 143.074 119.528 142.796 119.29 142.58C119.052 142.364 118.734 142.23 118.337 142.179C117.782 142.107 117.312 142.248 116.928 142.602C116.552 142.949 116.319 143.476 116.228 144.182C116.137 144.888 116.229 145.46 116.503 145.899C116.785 146.339 117.204 146.594 117.759 146.666C118.545 146.767 119.109 146.489 119.452 145.831L120.916 146.02C120.639 146.662 120.214 147.147 119.639 147.477C119.065 147.798 118.39 147.909 117.612 147.808C116.985 147.728 116.448 147.517 116 147.177C115.552 146.829 115.223 146.383 115.01 145.84C114.807 145.289 114.749 144.677 114.836 144.002ZM128.749 142.467L123.485 151.589L122.08 151.409L123.824 148.391L122.072 141.607L123.584 141.802L124.785 147.038L127.345 142.286L128.749 142.467Z" fill="#1A0533"/>
<path d="M371.064 175.734C370.292 175.215 369.964 174.511 370.078 173.622C370.133 173.194 370.291 172.815 370.551 172.486C370.811 172.156 371.169 171.916 371.624 171.765C372.08 171.606 372.618 171.566 373.236 171.646C373.847 171.724 374.353 171.898 374.754 172.168C375.164 172.43 375.453 172.754 375.621 173.139C375.79 173.523 375.846 173.93 375.791 174.358C375.734 174.803 375.568 175.181 375.294 175.492C375.029 175.797 374.698 176.016 374.302 176.151C374.733 176.376 375.054 176.695 375.267 177.11C375.481 177.517 375.555 177.974 375.49 178.482C375.423 178.997 375.234 179.437 374.921 179.8C374.608 180.163 374.203 180.421 373.708 180.575C373.212 180.729 372.667 180.768 372.071 180.691C371.476 180.614 370.959 180.439 370.518 180.164C370.085 179.891 369.764 179.539 369.553 179.108C369.342 178.678 369.27 178.205 369.337 177.689C369.403 177.173 369.591 176.746 369.901 176.407C370.211 176.067 370.599 175.843 371.064 175.734ZM374.472 174.358C374.529 173.913 374.434 173.554 374.187 173.281C373.94 173.007 373.575 172.839 373.091 172.776C372.615 172.715 372.223 172.786 371.914 172.988C371.606 173.19 371.423 173.517 371.364 173.97C371.313 174.366 371.414 174.71 371.667 175.001C371.929 175.285 372.286 175.456 372.738 175.514C373.191 175.572 373.58 175.493 373.906 175.277C374.232 175.061 374.421 174.755 374.472 174.358ZM372.606 176.537C372.083 176.47 371.637 176.546 371.27 176.765C370.912 176.977 370.702 177.325 370.64 177.809C370.582 178.261 370.693 178.65 370.973 178.977C371.255 179.295 371.67 179.49 372.217 179.56C372.757 179.63 373.2 179.542 373.546 179.296C373.9 179.051 374.106 178.707 374.163 178.262C374.224 177.786 374.109 177.396 373.817 177.093C373.534 176.79 373.13 176.605 372.606 176.537ZM383.087 174.137L378.796 181.339L377.427 181.163L381.736 174.108L377.332 173.54L377.481 172.386L383.218 173.125L383.087 174.137ZM383.899 175.306C383.974 174.727 384.199 174.296 384.574 174.013C384.958 173.724 385.416 173.614 385.948 173.682C386.479 173.751 386.89 173.973 387.181 174.349C387.48 174.718 387.592 175.193 387.518 175.772C387.443 176.351 387.214 176.785 386.83 177.075C386.453 177.365 385.999 177.476 385.468 177.407C384.936 177.339 384.521 177.116 384.223 176.739C383.933 176.363 383.825 175.885 383.899 175.306ZM391.379 174.539L385.563 182.211L384.23 182.039L390.046 174.367L391.379 174.539ZM385.842 174.503C385.342 174.439 385.048 174.752 384.959 175.442C384.869 176.14 385.074 176.522 385.574 176.586C385.812 176.617 386.005 176.557 386.153 176.407C386.311 176.25 386.412 175.992 386.458 175.635C386.547 174.945 386.342 174.568 385.842 174.503ZM388.117 180.798C388.191 180.218 388.416 179.787 388.791 179.505C389.175 179.216 389.633 179.105 390.165 179.174C390.688 179.241 391.095 179.463 391.386 179.839C391.685 180.209 391.797 180.683 391.723 181.262C391.648 181.841 391.419 182.275 391.035 182.565C390.658 182.855 390.209 182.967 389.685 182.899C389.153 182.831 388.738 182.608 388.44 182.231C388.15 181.854 388.042 181.377 388.117 180.798ZM390.047 179.994C389.547 179.929 389.253 180.242 389.164 180.932C389.075 181.623 389.28 182 389.78 182.064C390.28 182.129 390.575 181.816 390.663 181.126C390.752 180.435 390.547 180.058 390.047 179.994Z" fill="#16A34A"/>
<g clip-path="url(#clip1_2555_3334)">
<path d="M69.0574 157.074C69.3396 154.883 71.3445 153.335 73.5356 153.618L386.669 193.948C388.86 194.231 390.408 196.236 390.125 198.427V198.427C389.843 200.618 387.838 202.165 385.647 201.883L72.5136 161.552C70.3226 161.27 68.7752 159.265 69.0574 157.074V157.074Z" fill="#E0D5F5"/>
<path d="M69.0574 157.074C69.3396 154.883 71.3445 153.335 73.5356 153.618L399.84 195.645C402.031 195.927 403.579 197.932 403.296 200.123C403.014 202.314 401.009 203.861 398.818 203.579L72.5136 161.552C70.3226 161.27 68.7752 159.265 69.0574 157.074Z" fill="#16A34A"/>
</g>
<path d="M68.5778 189.361C68.0224 189.289 67.5348 189.13 67.115 188.882C66.6962 188.627 66.3828 188.304 66.1749 187.914C65.967 187.524 65.8937 187.091 65.955 186.615L67.407 186.802C67.3928 187.164 67.4938 187.475 67.7101 187.737C67.9344 188 68.2727 188.16 68.7249 188.218C69.1931 188.279 69.5724 188.215 69.8628 188.026C70.1543 187.83 70.323 187.553 70.369 187.196C70.4048 186.918 70.3506 186.681 70.2064 186.485C70.0702 186.29 69.8853 186.129 69.6516 186.003C69.4258 185.877 69.1058 185.731 68.6917 185.564C68.1705 185.352 67.7486 185.153 67.4258 184.966C67.112 184.772 66.856 184.505 66.6578 184.165C66.4596 183.825 66.3937 183.397 66.4601 182.881C66.5215 182.405 66.6941 182.004 66.9782 181.678C67.2622 181.351 67.6307 181.12 68.0837 180.985C68.5367 180.85 69.0448 180.819 69.6082 180.891C70.4095 180.994 71.0381 181.281 71.4938 181.751C71.9584 182.214 72.1735 182.799 72.1391 183.504L70.6395 183.311C70.6546 183.006 70.545 182.73 70.3107 182.482C70.0765 182.234 69.7451 182.082 69.3167 182.027C68.9279 181.977 68.5977 182.035 68.3262 182.202C68.0547 182.369 67.8949 182.639 67.8469 183.012C67.8142 183.265 67.8625 183.485 67.9918 183.671C68.13 183.851 68.312 184.003 68.5378 184.129C68.7636 184.255 69.0756 184.4 69.4739 184.564C70.0019 184.785 70.4269 184.993 70.7486 185.188C71.0783 185.384 71.3417 185.656 71.5389 186.004C71.745 186.345 71.8143 186.777 71.7469 187.301C71.6927 187.721 71.5266 188.103 71.2485 188.447C70.9783 188.791 70.6101 189.05 70.1441 189.224C69.687 189.391 69.1649 189.437 68.5778 189.361ZM75.1231 184.433C75.3921 184.161 75.7382 183.947 76.1615 183.792C76.5848 183.637 77.0464 183.591 77.5462 183.656C78.1175 183.729 78.6188 183.939 79.0502 184.285C79.4905 184.624 79.8128 185.065 80.0172 185.607C80.2215 186.15 80.2813 186.751 80.1965 187.409C80.1117 188.068 79.9006 188.641 79.5634 189.13C79.2272 189.611 78.8022 189.968 78.2883 190.2C77.7834 190.426 77.2453 190.502 76.674 190.428C76.1741 190.364 75.7426 190.207 75.3793 189.959C75.0171 189.702 74.7324 189.408 74.5253 189.074L74.001 193.145L72.6443 192.97L73.8905 183.294L75.2473 183.469L75.1231 184.433ZM78.8159 187.231C78.8741 186.779 78.829 186.378 78.6805 186.028C78.5409 185.671 78.3271 185.39 78.0391 185.183C77.7601 184.97 77.446 184.841 77.0969 184.796C76.7557 184.752 76.4192 184.797 76.0873 184.932C75.7633 185.068 75.4846 185.29 75.2512 185.599C75.0258 185.908 74.884 186.289 74.8258 186.742C74.7675 187.194 74.8077 187.602 74.9462 187.967C75.0937 188.325 75.307 188.61 75.586 188.824C75.873 189.038 76.187 189.167 76.5282 189.211C76.8773 189.256 77.2139 189.211 77.5379 189.075C77.8708 188.933 78.1505 188.702 78.377 188.385C78.6113 188.068 78.7576 187.684 78.8159 187.231ZM87.5654 188.225C87.5337 188.471 87.4893 188.691 87.432 188.886L82.4214 188.24C82.3936 188.769 82.5338 189.215 82.8421 189.577C83.1503 189.939 83.5583 190.153 84.0661 190.218C84.7961 190.313 85.3512 190.073 85.7314 189.501L87.1953 189.69C86.9193 190.267 86.4944 190.717 85.9206 191.038C85.3558 191.353 84.6886 191.46 83.919 191.361C83.2921 191.28 82.7467 191.069 82.2826 190.727C81.8274 190.378 81.4897 189.931 81.2695 189.386C81.0582 188.835 80.996 188.222 81.0829 187.548C81.1697 186.873 81.3808 186.299 81.7159 185.826C82.0601 185.346 82.496 184.999 83.0237 184.785C83.5593 184.571 84.1485 184.506 84.7912 184.589C85.4101 184.669 85.9442 184.875 86.3934 185.207C86.8427 185.539 87.1705 185.968 87.3769 186.495C87.5843 187.014 87.6472 187.59 87.5654 188.225ZM86.2043 187.614C86.2608 187.113 86.1338 186.69 85.8236 186.343C85.5133 185.997 85.1003 185.79 84.5845 185.724C84.1164 185.664 83.6963 185.763 83.3242 186.021C82.9531 186.272 82.7032 186.647 82.5743 187.147L86.2043 187.614ZM94.911 189.171C94.8793 189.417 94.8348 189.637 94.7775 189.832L89.7669 189.186C89.7392 189.715 89.8794 190.161 90.1876 190.523C90.4959 190.885 90.9039 191.099 91.4117 191.165C92.1417 191.259 92.6968 191.02 93.077 190.447L94.5409 190.636C94.2648 191.213 93.8399 191.663 93.2662 191.984C92.7014 192.299 92.0342 192.406 91.2645 192.307C90.6377 192.226 90.0923 192.015 89.6282 191.673C89.173 191.324 88.8353 190.877 88.6151 190.333C88.4038 189.781 88.3416 189.168 88.4285 188.494C88.5153 187.819 88.7263 187.245 89.0615 186.772C89.4056 186.292 89.8416 185.945 90.3693 185.731C90.9049 185.518 91.4941 185.452 92.1368 185.535C92.7557 185.615 93.2897 185.821 93.739 186.153C94.1882 186.485 94.5161 186.914 94.7225 187.441C94.9299 187.96 94.9928 188.537 94.911 189.171ZM93.5499 188.56C93.6063 188.059 93.4794 187.636 93.1691 187.289C92.8588 186.943 92.4458 186.736 91.9301 186.67C91.462 186.61 91.0419 186.709 90.6698 186.967C90.2987 187.218 90.0487 187.593 89.9199 188.093L93.5499 188.56ZM95.7771 189.416C95.8619 188.757 96.0719 188.192 96.4071 187.718C96.7502 187.246 97.1737 186.902 97.6776 186.684C98.1905 186.46 98.7365 186.385 99.3157 186.46C99.7442 186.515 100.152 186.664 100.541 186.908C100.938 187.145 101.239 187.433 101.445 187.775L101.853 184.609L103.222 184.785L102.087 193.592L100.719 193.416L100.846 192.428C100.583 192.717 100.24 192.939 99.8163 193.094C99.401 193.25 98.9394 193.296 98.4316 193.23C97.8603 193.157 97.355 192.946 96.9157 192.599C96.4854 192.246 96.1646 191.793 95.9533 191.241C95.751 190.683 95.6923 190.074 95.7771 189.416ZM101.142 190.131C101.2 189.679 101.155 189.274 101.008 188.916C100.868 188.559 100.659 188.274 100.38 188.061C100.101 187.847 99.7868 187.718 99.4377 187.673C99.0886 187.628 98.752 187.674 98.428 187.809C98.1051 187.937 97.8269 188.155 97.5936 188.464C97.3692 188.766 97.2278 189.143 97.1696 189.595C97.1113 190.048 97.1515 190.456 97.29 190.821C97.4365 191.186 97.6488 191.48 97.9268 191.701C98.2137 191.916 98.5278 192.045 98.869 192.089C99.2181 192.134 99.5547 192.088 99.8786 191.953C100.203 191.817 100.477 191.594 100.703 191.284C100.937 190.968 101.083 190.583 101.142 190.131Z" fill="#1A0533"/>
<path d="M368.518 220.273L364.531 219.76L364.226 222.128C364.421 221.928 364.691 221.773 365.036 221.664C365.389 221.556 365.751 221.526 366.124 221.574C366.791 221.66 367.312 221.872 367.688 222.211C368.071 222.551 368.322 222.95 368.441 223.409C368.567 223.869 368.599 224.341 368.537 224.825C368.461 225.412 368.279 225.921 367.989 226.352C367.709 226.775 367.326 227.089 366.84 227.292C366.362 227.497 365.797 227.557 365.147 227.474C364.282 227.362 363.615 227.059 363.147 226.563C362.678 226.067 362.438 225.459 362.426 224.74L363.747 224.91C363.786 225.294 363.942 225.617 364.215 225.878C364.489 226.131 364.852 226.286 365.304 226.345C365.867 226.417 366.31 226.301 366.632 225.995C366.961 225.691 367.162 225.257 367.235 224.694C367.308 224.122 367.222 223.668 366.975 223.329C366.729 222.983 366.329 222.774 365.773 222.703C365.384 222.653 365.042 222.709 364.747 222.873C364.461 223.03 364.237 223.267 364.075 223.585L362.789 223.419L363.435 218.409L368.671 219.083L368.518 220.273ZM371.606 223.696C370.834 223.177 370.505 222.473 370.62 221.585C370.675 221.156 370.833 220.777 371.093 220.448C371.353 220.118 371.711 219.878 372.166 219.727C372.622 219.568 373.159 219.528 373.778 219.608C374.389 219.687 374.895 219.861 375.296 220.13C375.706 220.393 375.995 220.716 376.163 221.101C376.331 221.485 376.388 221.892 376.333 222.32C376.275 222.765 376.11 223.143 375.836 223.454C375.571 223.759 375.24 223.978 374.843 224.113C375.274 224.338 375.596 224.657 375.809 225.072C376.023 225.479 376.097 225.936 376.031 226.444C375.965 226.959 375.775 227.399 375.462 227.762C375.149 228.125 374.745 228.383 374.249 228.537C373.754 228.691 373.208 228.73 372.613 228.653C372.018 228.576 371.5 228.401 371.06 228.126C370.627 227.853 370.305 227.501 370.095 227.07C369.884 226.64 369.812 226.167 369.878 225.651C369.945 225.135 370.133 224.708 370.443 224.369C370.753 224.03 371.14 223.805 371.606 223.696ZM375.014 222.32C375.071 221.876 374.976 221.517 374.729 221.243C374.482 220.969 374.117 220.801 373.633 220.739C373.156 220.677 372.764 220.748 372.456 220.95C372.148 221.152 371.964 221.479 371.906 221.932C371.855 222.328 371.956 222.672 372.209 222.963C372.471 223.247 372.828 223.418 373.28 223.476C373.732 223.534 374.122 223.455 374.448 223.239C374.774 223.023 374.963 222.717 375.014 222.32ZM373.148 224.499C372.624 224.432 372.179 224.508 371.812 224.727C371.454 224.939 371.244 225.287 371.182 225.771C371.123 226.223 371.235 226.612 371.515 226.939C371.797 227.257 372.211 227.452 372.759 227.522C373.298 227.592 373.741 227.504 374.087 227.258C374.442 227.013 374.647 226.669 374.705 226.224C374.766 225.748 374.651 225.358 374.359 225.055C374.076 224.752 373.672 224.567 373.148 224.499ZM377.781 222.41C377.856 221.831 378.081 221.4 378.456 221.118C378.84 220.828 379.298 220.718 379.83 220.787C380.361 220.855 380.772 221.077 381.062 221.453C381.362 221.823 381.474 222.297 381.399 222.876C381.325 223.455 381.096 223.89 380.711 224.179C380.335 224.469 379.881 224.58 379.35 224.512C378.818 224.443 378.403 224.22 378.105 223.843C377.815 223.467 377.707 222.989 377.781 222.41ZM385.261 221.643L379.445 229.315L378.112 229.144L383.928 221.472L385.261 221.643ZM379.724 221.608C379.224 221.543 378.93 221.856 378.841 222.547C378.751 223.245 378.956 223.626 379.456 223.691C379.694 223.721 379.887 223.661 380.035 223.511C380.193 223.354 380.294 223.097 380.34 222.74C380.429 222.049 380.224 221.672 379.724 221.608ZM381.998 227.902C382.073 227.323 382.298 226.892 382.673 226.609C383.057 226.32 383.515 226.21 384.047 226.278C384.57 226.346 384.977 226.567 385.268 226.944C385.567 227.313 385.679 227.787 385.605 228.366C385.53 228.946 385.301 229.38 384.917 229.669C384.54 229.959 384.09 230.071 383.567 230.003C383.035 229.935 382.62 229.712 382.322 229.335C382.032 228.959 381.924 228.481 381.998 227.902ZM383.929 227.098C383.429 227.034 383.135 227.346 383.046 228.037C382.957 228.727 383.162 229.104 383.662 229.169C384.162 229.233 384.456 228.92 384.545 228.23C384.634 227.54 384.429 227.162 383.929 227.098Z" fill="#00B3DE"/>
<g clip-path="url(#clip2_2555_3334)">
<path d="M62.99 204.185C63.2722 201.994 65.2772 200.446 67.4682 200.728L380.602 241.059C382.793 241.341 384.34 243.346 384.058 245.537V245.537C383.776 247.728 381.771 249.276 379.58 248.994L66.4463 208.663C64.2552 208.381 62.7078 206.376 62.99 204.185V204.185Z" fill="#E0D5F5"/>
<path d="M62.99 204.185C63.2722 201.994 65.2772 200.446 67.4682 200.728L295.584 230.109C297.775 230.391 299.322 232.396 299.04 234.587C298.758 236.778 296.753 238.326 294.562 238.044L66.4463 208.663C64.2552 208.381 62.7078 206.376 62.99 204.185Z" fill="#00B3DE"/>
</g>
<path d="M59.8774 231.826C59.9816 231.016 60.2616 230.314 60.7173 229.72C61.1809 229.126 61.7571 228.692 62.4458 228.418C63.1434 228.136 63.877 228.045 64.6467 228.145C65.5274 228.258 66.2808 228.577 66.907 229.101C67.5421 229.619 67.9633 230.294 68.1705 231.127L66.54 230.917C66.382 230.453 66.1263 230.09 65.7731 229.826C65.4198 229.563 64.9932 229.399 64.4934 229.335C63.9459 229.264 63.4421 229.324 62.9819 229.515C62.5218 229.706 62.1391 230.016 61.8339 230.444C61.5366 230.874 61.3486 231.394 61.2699 232.005C61.1912 232.616 61.2412 233.167 61.42 233.658C61.6067 234.149 61.8979 234.55 62.2937 234.859C62.6905 235.16 63.1626 235.346 63.7101 235.417C64.2099 235.481 64.6641 235.431 65.0725 235.265C65.481 235.1 65.8204 234.813 66.0909 234.404L67.7214 234.614C67.3098 235.368 66.7312 235.915 65.9857 236.254C65.2482 236.595 64.439 236.708 63.5583 236.595C62.7807 236.495 62.0936 236.225 61.4969 235.785C60.9012 235.337 60.4543 234.767 60.1562 234.076C59.8661 233.385 59.7731 232.635 59.8774 231.826ZM71.0787 231.792C71.32 231.484 71.615 231.26 71.9638 231.12C72.3216 230.972 72.7266 230.928 73.1789 230.986L72.998 232.39L72.6528 232.346C72.1212 232.277 71.6992 232.36 71.3868 232.594C71.0822 232.829 70.8871 233.28 70.8012 233.946L70.3567 237.398L68.9999 237.223L69.8445 230.665L71.2013 230.84L71.0787 231.792ZM80.021 235.146C79.9893 235.392 79.9448 235.612 79.8875 235.806L74.8769 235.161C74.8491 235.69 74.9894 236.135 75.2976 236.498C75.6058 236.86 76.0139 237.074 76.5217 237.139C77.2516 237.233 77.8067 236.994 78.1869 236.422L79.6508 236.611C79.3748 237.188 78.9499 237.637 78.3762 237.959C77.8114 238.273 77.1442 238.381 76.3745 238.282C75.7477 238.201 75.2022 237.99 74.7381 237.648C74.283 237.299 73.9453 236.852 73.7251 236.307C73.5138 235.756 73.4516 235.143 73.5384 234.468C73.6253 233.794 73.8363 233.22 74.1715 232.747C74.5156 232.267 74.9515 231.92 75.4792 231.706C76.0149 231.492 76.6041 231.427 77.2467 231.51C77.8656 231.589 78.3997 231.795 78.849 232.127C79.2982 232.46 79.626 232.889 79.8325 233.416C80.0399 233.934 80.1027 234.511 80.021 235.146ZM78.6599 234.535C78.7163 234.034 78.5894 233.61 78.2791 233.264C77.9688 232.917 77.5558 232.711 77.0401 232.645C76.5719 232.584 76.1518 232.683 75.7798 232.942C75.4087 233.193 75.1587 233.568 75.0298 234.067L78.6599 234.535ZM80.8871 235.391C80.9719 234.732 81.1819 234.166 81.5171 233.693C81.8602 233.221 82.2837 232.876 82.7876 232.659C83.3004 232.435 83.8425 232.359 84.4138 232.433C84.9295 232.499 85.3645 232.66 85.7188 232.915C86.0821 233.164 86.3593 233.454 86.5506 233.785L86.6732 232.833L88.0419 233.009L87.1973 239.567L85.8286 239.391L85.9543 238.415C85.6843 238.694 85.3377 238.912 84.9144 239.067C84.4911 239.222 84.0256 239.267 83.5178 239.202C82.9544 239.129 82.4571 238.92 82.0257 238.574C81.5954 238.22 81.2746 237.768 81.0633 237.216C80.861 236.658 80.8023 236.049 80.8871 235.391ZM86.2517 236.106C86.3099 235.653 86.2653 235.248 86.1178 234.891C85.9782 234.534 85.7689 234.249 85.4899 234.035C85.2109 233.822 84.8968 233.693 84.5477 233.648C84.1986 233.603 83.862 233.648 83.538 233.784C83.215 233.912 82.9369 234.13 82.7035 234.439C82.4791 234.741 82.3378 235.118 82.2796 235.57C82.2213 236.022 82.2615 236.431 82.4 236.795C82.5465 237.161 82.7587 237.455 83.0367 237.676C83.3237 237.89 83.6378 238.019 83.979 238.063C84.3281 238.108 84.6646 238.063 84.9886 237.927C85.3126 237.792 85.5873 237.569 85.8127 237.259C86.0471 236.942 86.1934 236.558 86.2517 236.106ZM91.2644 234.549L90.7968 238.179C90.7652 238.425 90.7977 238.611 90.8945 238.736C91.0002 238.855 91.1919 238.932 91.4696 238.968L92.3027 239.075L92.1571 240.206L91.086 240.068C90.475 239.989 90.0253 239.786 89.7368 239.458C89.4482 239.131 89.3454 238.646 89.4281 238.003L89.8957 234.373L89.1221 234.273L89.2646 233.166L90.0382 233.266L90.2482 231.636L91.6169 231.812L91.4069 233.442L93.0018 233.648L92.8592 234.755L91.2644 234.549ZM95.0545 233.029C94.8085 232.997 94.6129 232.887 94.4678 232.699C94.3226 232.511 94.2659 232.294 94.2975 232.048C94.3292 231.802 94.4391 231.607 94.6272 231.462C94.8153 231.316 95.0323 231.26 95.2783 231.291C95.5163 231.322 95.7079 231.431 95.8531 231.619C95.9982 231.808 96.055 232.025 96.0233 232.271C95.9916 232.516 95.8817 232.712 95.6936 232.857C95.5056 233.002 95.2925 233.06 95.0545 233.029ZM95.6091 233.984L94.7644 240.541L93.4076 240.367L94.2523 233.809L95.6091 233.984ZM99.2372 239.883L101.782 234.779L103.222 234.964L99.8782 241.2L98.2596 240.992L96.6168 234.113L98.0688 234.3L99.2372 239.883ZM105.05 234.316C104.804 234.285 104.608 234.175 104.463 233.987C104.318 233.799 104.261 233.582 104.293 233.336C104.325 233.09 104.435 232.894 104.623 232.749C104.811 232.604 105.028 232.547 105.274 232.579C105.512 232.609 105.703 232.719 105.849 232.907C105.994 233.095 106.051 233.312 106.019 233.558C105.987 233.804 105.877 233.999 105.689 234.145C105.501 234.29 105.288 234.347 105.05 234.316ZM105.605 235.271L104.76 241.829L103.403 241.654L104.248 235.096L105.605 235.271ZM108.826 236.811L108.359 240.441C108.327 240.687 108.36 240.873 108.456 240.998C108.562 241.117 108.754 241.194 109.032 241.23L109.865 241.337L109.719 242.468L108.648 242.33C108.037 242.251 107.587 242.048 107.299 241.72C107.01 241.393 106.907 240.908 106.99 240.265L107.458 236.635L106.684 236.535L106.827 235.428L107.6 235.528L107.81 233.898L109.179 234.074L108.969 235.704L110.564 235.91L110.421 237.017L108.826 236.811ZM117.717 236.831L112.453 245.953L111.049 245.773L112.792 242.755L111.041 235.971L112.552 236.166L113.753 241.402L116.313 236.65L117.717 236.831Z" fill="#1A0533"/>
<path d="M361.412 268.11C361.372 267.733 361.249 267.439 361.042 267.227C360.836 267.015 360.526 266.882 360.113 266.829C359.487 266.748 358.987 266.93 358.616 267.374C358.245 267.811 357.98 268.583 357.821 269.692C358.072 269.369 358.408 269.138 358.83 268.999C359.251 268.86 359.692 268.82 360.152 268.879C360.676 268.946 361.121 269.121 361.488 269.402C361.864 269.676 362.136 270.042 362.303 270.499C362.477 270.957 362.527 271.484 362.45 272.079C362.378 272.634 362.203 273.116 361.925 273.523C361.655 273.932 361.289 274.236 360.828 274.435C360.368 274.626 359.836 274.682 359.233 274.604C358.416 274.499 357.796 274.238 357.374 273.821C356.961 273.396 356.701 272.843 356.596 272.16C356.498 271.477 356.513 270.644 356.639 269.661C357.013 266.757 358.224 265.436 360.271 265.7C361.064 265.802 361.66 266.097 362.057 266.583C362.462 267.071 362.664 267.634 362.662 268.271L361.412 268.11ZM359.707 269.983C359.223 269.921 358.792 270.014 358.413 270.264C358.043 270.507 357.822 270.902 357.752 271.449C357.681 271.997 357.78 272.453 358.047 272.818C358.324 273.177 358.744 273.392 359.307 273.465C359.807 273.529 360.22 273.425 360.545 273.152C360.879 272.881 361.079 272.487 361.145 271.971C361.215 271.432 361.127 270.985 360.882 270.631C360.646 270.269 360.255 270.054 359.707 269.983ZM370.086 268.368L366.099 267.854L365.794 270.223C365.989 270.022 366.259 269.867 366.604 269.758C366.956 269.65 367.319 269.621 367.692 269.669C368.359 269.754 368.88 269.967 369.255 270.306C369.639 270.645 369.89 271.045 370.009 271.504C370.135 271.963 370.167 272.435 370.105 272.919C370.029 273.507 369.846 274.015 369.557 274.446C369.277 274.87 368.893 275.183 368.407 275.387C367.929 275.591 367.365 275.652 366.714 275.568C365.85 275.457 365.183 275.153 364.714 274.657C364.246 274.161 364.006 273.553 363.993 272.834L365.314 273.004C365.354 273.388 365.51 273.711 365.783 273.972C366.057 274.225 366.42 274.381 366.872 274.439C367.435 274.511 367.878 274.395 368.199 274.09C368.529 273.785 368.73 273.351 368.803 272.788C368.876 272.217 368.79 271.762 368.543 271.424C368.297 271.077 367.896 270.869 367.341 270.797C366.952 270.747 366.61 270.804 366.315 270.967C366.028 271.124 365.804 271.361 365.642 271.679L364.357 271.514L365.002 266.503L370.239 267.178L370.086 268.368ZM371.759 269.527C371.834 268.948 372.059 268.517 372.434 268.235C372.818 267.945 373.276 267.835 373.808 267.903C374.339 267.972 374.75 268.194 375.041 268.57C375.34 268.94 375.452 269.414 375.378 269.993C375.303 270.572 375.074 271.006 374.69 271.296C374.313 271.586 373.859 271.697 373.328 271.629C372.796 271.56 372.381 271.337 372.083 270.96C371.793 270.584 371.685 270.106 371.759 269.527ZM379.239 268.76L373.423 276.432L372.09 276.26L377.906 268.588L379.239 268.76ZM373.702 268.725C373.202 268.66 372.908 268.973 372.819 269.663C372.729 270.362 372.934 270.743 373.434 270.807C373.672 270.838 373.865 270.778 374.013 270.628C374.171 270.471 374.272 270.214 374.318 269.857C374.407 269.166 374.202 268.789 373.702 268.725ZM375.977 275.019C376.051 274.439 376.276 274.009 376.651 273.726C377.035 273.437 377.493 273.327 378.025 273.395C378.548 273.462 378.955 273.684 379.246 274.06C379.545 274.43 379.657 274.904 379.583 275.483C379.508 276.062 379.279 276.497 378.895 276.786C378.518 277.076 378.069 277.188 377.545 277.12C377.013 277.052 376.598 276.829 376.3 276.452C376.01 276.076 375.902 275.598 375.977 275.019ZM377.907 274.215C377.407 274.15 377.113 274.463 377.024 275.154C376.935 275.844 377.14 276.221 377.64 276.286C378.14 276.35 378.435 276.037 378.523 275.347C378.612 274.656 378.407 274.279 377.907 274.215Z" fill="#FF7438"/>
<g clip-path="url(#clip3_2555_3334)">
<path d="M56.9216 251.295C57.2038 249.104 59.2088 247.557 61.3998 247.839L374.533 288.17C376.725 288.452 378.272 290.457 377.99 292.648V292.648C377.708 294.839 375.703 296.387 373.512 296.105L60.3779 255.774C58.1869 255.491 56.6394 253.487 56.9216 251.295V251.295Z" fill="#E0D5F5"/>
<path d="M56.9216 251.295C57.2038 249.104 59.2088 247.557 61.3998 247.839L334.147 282.968C336.338 283.251 337.885 285.256 337.603 287.447C337.321 289.638 335.316 291.185 333.125 290.903L60.3779 255.774C58.1869 255.491 56.6394 253.487 56.9216 251.295Z" fill="#FF7438"/>
</g>
</g>
<defs>
<filter id="filter0_d_2555_3334" x="-2.38867" y="-2.38879" width="466.658" height="355.338" filterUnits="userSpaceOnUse" color-interpolation-filters="sRGB">
<feFlood flood-opacity="0" result="BackgroundImageFix"/>
<feColorMatrix in="SourceAlpha" type="matrix" values="0 0 0 0 0 0 0 0 0 0 0 0 0 0 0 0 0 0 127 0" result="hardAlpha"/>
<feOffset dy="8"/>
<feGaussianBlur stdDeviation="14.5"/>
<feComposite in2="hardAlpha" operator="out"/>
<feColorMatrix type="matrix" values="0 0 0 0 1 0 0 0 0 0.454042 0 0 0 0 0.22006 0 0 0 0.5 0"/>
<feBlend mode="normal" in2="BackgroundImageFix" result="effect1_dropShadow_2555_3334"/>
<feBlend mode="normal" in="SourceGraphic" in2="effect1_dropShadow_2555_3334" result="shape"/>
</filter>
<clipPath id="clip0_2555_3334">
<path d="M75.1248 109.963C75.407 107.772 77.4119 106.224 79.603 106.507L392.737 146.838C394.928 147.12 396.475 149.125 396.193 151.316V151.316C395.911 153.507 393.906 155.054 391.715 154.772L78.581 114.441C76.39 114.159 74.8426 112.154 75.1248 109.963V109.963Z" fill="white"/>
</clipPath>
<clipPath id="clip1_2555_3334">
<path d="M69.0574 157.074C69.3396 154.883 71.3445 153.335 73.5356 153.618L386.669 193.948C388.86 194.231 390.408 196.236 390.125 198.427V198.427C389.843 200.618 387.838 202.165 385.647 201.883L72.5136 161.552C70.3226 161.27 68.7752 159.265 69.0574 157.074V157.074Z" fill="white"/>
</clipPath>
<clipPath id="clip2_2555_3334">
<path d="M62.99 204.185C63.2722 201.994 65.2772 200.446 67.4682 200.728L380.602 241.059C382.793 241.341 384.34 243.346 384.058 245.537V245.537C383.776 247.728 381.771 249.276 379.58 248.994L66.4463 208.663C64.2552 208.381 62.7078 206.376 62.99 204.185V204.185Z" fill="white"/>
</clipPath>
<clipPath id="clip3_2555_3334">
<path d="M56.9216 251.295C57.2038 249.104 59.2088 247.557 61.3998 247.839L374.533 288.17C376.725 288.452 378.272 290.457 377.99 292.648V292.648C377.708 294.839 375.703 296.387 373.512 296.105L60.3779 255.774C58.1869 255.491 56.6394 253.487 56.9216 251.295V251.295Z" fill="white"/>
</clipPath>
</defs>
</svg>
