<svg width="24" height="24" viewBox="0 0 24 24" fill="none" xmlns="http://www.w3.org/2000/svg">
<path d="M12.0021 1C12.9879 1 13.9429 1.12982 14.8517 1.37297L12.5126 3.71092C12.3352 3.88908 12.1786 4.08693 12.0461 4.30063H12.0021C10.4789 4.30063 8.9899 4.75232 7.7234 5.59857C6.4569 6.44482 5.46978 7.64762 4.88687 9.05488C4.30397 10.4621 4.15145 12.0107 4.44861 13.5046C4.74578 14.9985 5.47927 16.3708 6.55634 17.4479C7.63341 18.5249 9.00569 19.2584 10.4996 19.5556C11.9936 19.8528 13.5421 19.7003 14.9493 19.1173C16.3566 18.5344 17.5594 17.5473 18.4057 16.2808C19.2519 15.0143 19.7036 13.5253 19.7036 12.0021V11.9581C19.9163 11.8261 20.1125 11.6702 20.2922 11.4905L22.6312 9.15256C22.8744 10.0613 23.0042 11.0163 23.0042 12.0021C23.0042 18.0786 18.0786 23.0042 12.0021 23.0042C5.92564 23.0042 1 18.0786 1 12.0021C1 5.92564 5.92564 1 12.0021 1ZM11.5466 6.51976C11.5466 7.45604 11.5004 8.40552 11.551 9.3407L10.9569 9.93481C10.7525 10.1392 10.5904 10.3818 10.4798 10.6488C10.3692 10.9158 10.3123 11.202 10.3123 11.4911C10.3123 11.7801 10.3692 12.0663 10.4798 12.3333C10.5904 12.6003 10.7525 12.8429 10.9569 13.0473C11.1613 13.2517 11.4039 13.4138 11.6709 13.5244C11.9379 13.635 12.2241 13.6919 12.5132 13.6919C12.8022 13.6919 13.0884 13.635 13.3554 13.5244C13.6224 13.4138 13.865 13.2517 14.0694 13.0473L14.6635 12.4532C15.5987 12.5038 16.5471 12.4576 17.4845 12.4576C17.3976 13.5032 17.0134 14.5021 16.3775 15.3365C15.7415 16.171 14.8801 16.8061 13.895 17.1671C12.9099 17.5281 11.842 17.5998 10.8175 17.3739C9.79293 17.1479 8.85436 16.6336 8.11248 15.8917C7.3706 15.1499 6.85634 14.2113 6.63037 13.1867C6.40439 12.1622 6.47612 11.0944 6.8371 10.1092C7.19808 9.12411 7.83325 8.26275 8.66769 7.62676C9.50213 6.99077 10.501 6.60667 11.5466 6.51976ZM19.1579 1.13973C19.3587 1.22299 19.5304 1.36388 19.6512 1.54461C19.772 1.72535 19.8365 1.93782 19.8367 2.15522V4.16861H21.849C22.0666 4.16865 22.2792 4.23321 22.4601 4.3541C22.641 4.475 22.782 4.64681 22.8652 4.84782C22.9485 5.04883 22.9703 5.27001 22.9278 5.4834C22.8854 5.69678 22.7807 5.8928 22.6268 6.04667L18.7354 9.93371C18.5291 10.1401 18.2493 10.256 17.9576 10.2561H15.3027L13.2916 12.2684C13.0851 12.4748 12.8051 12.5908 12.5132 12.5908C12.2212 12.5908 11.9412 12.4748 11.7348 12.2684C11.5283 12.0619 11.4123 11.7819 11.4123 11.49C11.4123 11.198 11.5283 10.918 11.7348 10.7116L13.747 8.70148V6.04557C13.7469 5.90091 13.7753 5.75765 13.8307 5.62399C13.886 5.49033 13.9671 5.36889 14.0694 5.26662L17.9587 1.37737C18.1125 1.22342 18.3086 1.11856 18.522 1.07606C18.7355 1.03356 18.9568 1.05534 19.1579 1.13863" fill="black"/>
</svg>
