<svg width="24" height="24" viewBox="0 0 24 24" fill="none" xmlns="http://www.w3.org/2000/svg">
<path d="M11.4286 13.5714H6.07143C5.76786 13.5714 5.51358 13.4686 5.30858 13.2629C5.10358 13.0571 5.00072 12.8029 5 12.5C4.99929 12.1971 5.10215 11.9429 5.30858 11.7371C5.515 11.5314 5.76929 11.4286 6.07143 11.4286H11.4286V6.07143C11.4286 5.76786 11.5314 5.51358 11.7371 5.30858C11.9429 5.10358 12.1971 5.00072 12.5 5C12.8029 4.99929 13.0575 5.10215 13.2639 5.30858C13.4704 5.515 13.5729 5.76929 13.5714 6.07143V11.4286H18.9286C19.2321 11.4286 19.4868 11.5314 19.6925 11.7371C19.8982 11.9429 20.0007 12.1971 20 12.5C19.9993 12.8029 19.8964 13.0575 19.6914 13.2639C19.4864 13.4704 19.2321 13.5729 18.9286 13.5714H13.5714V18.9286C13.5714 19.2321 13.4686 19.4868 13.2629 19.6925C13.0571 19.8982 12.8029 20.0007 12.5 20C12.1971 19.9993 11.9429 19.8964 11.7371 19.6914C11.5314 19.4864 11.4286 19.2321 11.4286 18.9286V13.5714Z" fill="black"/>
</svg>
