<svg width="159" height="102" viewBox="0 0 159 102" fill="none" xmlns="http://www.w3.org/2000/svg">
<g opacity="0.16">
<path d="M95 -19.1875C79.7338 -19.1875 64.8104 -14.6605 52.117 -6.17907C39.4235 2.3024 29.5302 14.3574 23.6881 28.4616C17.8459 42.5658 16.3174 58.0856 19.2957 73.0585C22.274 88.0314 29.6254 101.785 40.4202 112.58C51.2151 123.375 64.9686 130.726 79.9415 133.704C94.9144 136.683 110.434 135.154 124.538 129.312C138.643 123.47 150.698 113.576 159.179 100.883C167.661 88.1896 172.188 73.2662 172.188 58C172.166 37.5352 164.027 17.9148 149.556 3.44405C135.085 -11.0267 115.465 -19.1659 95 -19.1875ZM142.01 48.9676L104.604 61.1246L127.723 92.9422C128.207 93.5711 128.56 94.2906 128.761 95.0582C128.962 95.8259 129.008 96.626 128.894 97.4115C128.781 98.1969 128.511 98.9517 128.101 99.6311C127.691 100.311 127.149 100.901 126.507 101.367C125.865 101.834 125.136 102.167 124.363 102.347C123.591 102.526 122.789 102.549 122.007 102.414C121.225 102.279 120.478 101.989 119.811 101.56C119.143 101.132 118.568 100.573 118.119 99.9187L95 68.1012L71.8809 99.9187C70.9378 101.144 69.5539 101.953 68.0236 102.174C66.4932 102.395 64.937 102.01 63.686 101.101C62.435 100.192 61.5878 98.8315 61.3247 97.3078C61.0616 95.7841 61.4032 94.2179 62.277 92.9422L85.3961 61.1246L47.9899 48.9676C46.4919 48.4814 45.2485 47.42 44.533 46.017C43.8176 44.614 43.6888 42.9843 44.175 41.4863C44.6612 39.9884 45.7226 38.7449 47.1256 38.0295C48.5286 37.3141 50.1583 37.1853 51.6563 37.6715L89.0625 49.8359V10.5C89.0625 8.92526 89.6881 7.41504 90.8016 6.30154C91.9151 5.18804 93.4253 4.56249 95 4.56249C96.5748 4.56249 98.085 5.18804 99.1985 6.30154C100.312 7.41504 100.938 8.92526 100.938 10.5V49.8359L138.344 37.6789C139.086 37.4382 139.867 37.3459 140.645 37.4073C141.422 37.4687 142.18 37.6827 142.875 38.0369C143.569 38.3911 144.187 38.8787 144.694 39.4719C145.2 40.065 145.584 40.752 145.825 41.4937C146.066 42.2355 146.158 43.0173 146.097 43.7947C146.035 44.5721 145.821 45.3298 145.467 46.0244C145.113 46.7191 144.625 47.3373 144.032 47.8435C143.439 48.3498 142.752 48.7342 142.01 48.975V48.9676Z" fill="#DE00DA"/>
</g>
</svg>
