<svg width="24" height="24" viewBox="0 0 24 24" fill="none" xmlns="http://www.w3.org/2000/svg">
<path d="M15.75 21C15.75 21.1989 15.671 21.3897 15.5303 21.5303C15.3897 21.671 15.1989 21.75 15 21.75H9.00001C8.8011 21.75 8.61033 21.671 8.46968 21.5303C8.32903 21.3897 8.25001 21.1989 8.25001 21C8.25001 20.8011 8.32903 20.6103 8.46968 20.4697C8.61033 20.329 8.8011 20.25 9.00001 20.25H15C15.1989 20.25 15.3897 20.329 15.5303 20.4697C15.671 20.6103 15.75 20.8011 15.75 21ZM20.7947 16.4944C20.2735 15.5981 19.5 13.0622 19.5 9.75C19.5 7.76088 18.7098 5.85322 17.3033 4.4467C15.8968 3.04018 13.9891 2.25 12 2.25C10.0109 2.25 8.10323 3.04018 6.69671 4.4467C5.29019 5.85322 4.50001 7.76088 4.50001 9.75C4.50001 13.0631 3.72564 15.5981 3.20532 16.4944C3.07245 16.7222 3.00201 16.9811 3.00111 17.2449C3.0002 17.5086 3.06886 17.768 3.20017 17.9967C3.33147 18.2255 3.52077 18.4156 3.74899 18.5478C3.9772 18.6801 4.23625 18.7498 4.50001 18.75H19.5C19.7637 18.7496 20.0226 18.6798 20.2507 18.5475C20.4788 18.4151 20.668 18.225 20.7992 17.9963C20.9303 17.7676 20.9989 17.5083 20.998 17.2446C20.997 16.9809 20.9266 16.7222 20.7938 16.4944H20.7947Z" fill="black"/>
</svg>
