<svg width="24" height="24" viewBox="0 0 24 24" fill="none" xmlns="http://www.w3.org/2000/svg">
<path d="M11.3533 0V3.80846H12.6469V0H11.3532H11.3533ZM6.07107 1.1445L5.01123 1.88656L7.19529 5.00548L8.25455 4.2634L6.07107 1.1445ZM17.9288 1.1445L15.7454 4.26342L16.8048 5.0055L18.9888 1.88656L17.929 1.1445H17.9288ZM11.9998 4.85048C8.83525 4.85048 6.26993 6.77214 6.26993 9.14298L9.52537 19.0019H14.4748L17.7299 9.14298C17.7299 6.77218 15.1648 4.85048 12.0001 4.85048H11.9998ZM1.70931 5.99346L1.26733 7.20974L4.84431 8.51202L5.28793 7.29632L1.70923 5.99346H1.70931ZM22.2906 5.99346L18.7118 7.29642L19.154 8.51226L22.7327 7.20976L22.2906 5.99346ZM5.11513 11.5536L1.43713 12.5401L1.77085 13.7888L5.44885 12.8037L5.11519 11.5536H5.11513ZM18.8847 11.5536L18.5513 12.8036L22.2293 13.7886L22.5627 12.5399L18.8847 11.5536V11.5536ZM9.45321 19.7206V21.4344H14.547V19.7209H9.45323L9.45321 19.7206ZM9.45321 22.2863V24H14.547V22.2866H9.45323L9.45321 22.2863Z" fill="black"/>
</svg>
