<svg width="24" height="24" viewBox="0 0 24 24" fill="none" xmlns="http://www.w3.org/2000/svg">
<path d="M7.8628 6.30665L12.2468 10.6906L16.608 6.32937C16.7043 6.22683 16.8204 6.1448 16.9492 6.0882C17.078 6.03161 17.2169 6.00161 17.3576 6C17.6588 6 17.9477 6.11966 18.1607 6.33265C18.3737 6.54564 18.4933 6.83452 18.4933 7.13574C18.496 7.27499 18.4702 7.4133 18.4174 7.5422C18.3647 7.6711 18.2862 7.78787 18.1867 7.88533L13.7687 12.2466L18.1867 16.6646C18.3739 16.8477 18.4836 17.0957 18.4933 17.3574C18.4933 17.6586 18.3737 17.9475 18.1607 18.1605C17.9477 18.3735 17.6588 18.4932 17.3576 18.4932C17.2129 18.4992 17.0684 18.475 16.9335 18.4222C16.7986 18.3694 16.6762 18.2892 16.5739 18.1865L12.2468 13.8025L7.87416 18.1752C7.7782 18.2743 7.66355 18.3534 7.53685 18.408C7.41014 18.4626 7.27388 18.4915 7.13593 18.4932C6.83471 18.4932 6.54583 18.3735 6.33284 18.1605C6.11984 17.9475 6.00018 17.6586 6.00018 17.3574C5.99754 17.2182 6.02337 17.0799 6.0761 16.951C6.12884 16.8221 6.20735 16.7053 6.30684 16.6078L10.7249 12.2466L6.30684 7.82854C6.11965 7.64542 6.00988 7.39743 6.00018 7.13574C6.00018 6.83452 6.11984 6.54564 6.33284 6.33265C6.54583 6.11966 6.83471 6 7.13593 6C7.4085 6.00341 7.66973 6.11357 7.8628 6.30665Z" fill="black"/>
</svg>
