<svg width="24" height="24" viewBox="0 0 24 24" fill="none" xmlns="http://www.w3.org/2000/svg">
<path d="M19.5594 8.93846L18.1187 10.3791C17.9718 10.526 17.7343 10.526 17.5874 10.3791L14.1185 6.91025C13.9716 6.76337 13.9716 6.52586 14.1185 6.37898L15.5592 4.9383C16.1436 4.3539 17.0936 4.3539 17.6811 4.9383L19.5594 6.8165C20.1469 7.4009 20.1469 8.35093 19.5594 8.93846ZM12.8809 7.61653L4.67429 15.8231L4.01176 19.6201C3.92113 20.1327 4.36803 20.5764 4.88055 20.4889L8.6776 19.8233L16.8842 11.6167C17.0311 11.4698 17.0311 11.2323 16.8842 11.0854L13.4153 7.61653C13.2653 7.46965 13.0278 7.46965 12.8809 7.61653ZM7.87756 15.12C7.70568 14.9481 7.70568 14.6731 7.87756 14.5012L12.6903 9.68849C12.8622 9.51661 13.1372 9.51661 13.3091 9.68849C13.4809 9.86037 13.4809 10.1354 13.3091 10.3073L8.49634 15.12C8.32446 15.2918 8.04945 15.2918 7.87756 15.12ZM6.74939 17.7482H8.24946V18.8826L6.23374 19.2357L5.26182 18.2638L5.61496 16.2481H6.74939V17.7482Z" fill="black"/>
</svg>
