<svg width="24" height="24" viewBox="0 0 24 24" fill="none" xmlns="http://www.w3.org/2000/svg">
<path d="M19.125 6H17.5V7H19V18H5.00001V7H6.50001V6H4.87501C4.75813 6.00195 4.64277 6.02691 4.53554 6.07345C4.42831 6.11999 4.33129 6.1872 4.25004 6.27125C4.16878 6.35529 4.10488 6.45451 4.06198 6.56325C4.01908 6.67199 3.99802 6.78812 4.00001 6.905V18.095C3.99802 18.2119 4.01908 18.328 4.06198 18.4367C4.10488 18.5455 4.16878 18.6447 4.25004 18.7288C4.33129 18.8128 4.42831 18.88 4.53554 18.9265C4.64277 18.9731 4.75813 18.998 4.87501 19H19.125C19.2419 18.998 19.3572 18.9731 19.4645 18.9265C19.5717 18.88 19.6687 18.8128 19.75 18.7288C19.8312 18.6447 19.8951 18.5455 19.938 18.4367C19.9809 18.328 20.002 18.2119 20 18.095V6.905C20.002 6.78812 19.9809 6.67199 19.938 6.56325C19.8951 6.45451 19.8312 6.35529 19.75 6.27125C19.6687 6.1872 19.5717 6.11999 19.4645 6.07345C19.3572 6.02691 19.2419 6.00195 19.125 6Z" fill="black"/>
<path d="M7 10H8V11H7V10Z" fill="black"/>
<path d="M10 10H11V11H10V10Z" fill="black"/>
<path d="M13 10H14V11H13V10Z" fill="black"/>
<path d="M16 10H17V11H16V10Z" fill="black"/>
<path d="M7 12.5H8V13.5H7V12.5Z" fill="black"/>
<path d="M10 12.5H11V13.5H10V12.5Z" fill="black"/>
<path d="M13 12.5H14V13.5H13V12.5Z" fill="black"/>
<path d="M16 12.5H17V13.5H16V12.5Z" fill="black"/>
<path d="M7 15H8V16H7V15Z" fill="black"/>
<path d="M10 15H11V16H10V15Z" fill="black"/>
<path d="M13 15H14V16H13V15Z" fill="black"/>
<path d="M16 15H17V16H16V15Z" fill="black"/>
<path d="M8 8C8.13261 8 8.25979 7.94732 8.35355 7.85355C8.44732 7.75979 8.5 7.63261 8.5 7.5V4.5C8.5 4.36739 8.44732 4.24021 8.35355 4.14645C8.25979 4.05268 8.13261 4 8 4C7.86739 4 7.74021 4.05268 7.64645 4.14645C7.55268 4.24021 7.5 4.36739 7.5 4.5V7.5C7.5 7.63261 7.55268 7.75979 7.64645 7.85355C7.74021 7.94732 7.86739 8 8 8Z" fill="black"/>
<path d="M16 8C16.1326 8 16.2598 7.94732 16.3536 7.85355C16.4473 7.75979 16.5 7.63261 16.5 7.5V4.5C16.5 4.36739 16.4473 4.24021 16.3536 4.14645C16.2598 4.05268 16.1326 4 16 4C15.8674 4 15.7402 4.05268 15.6464 4.14645C15.5527 4.24021 15.5 4.36739 15.5 4.5V7.5C15.5 7.63261 15.5527 7.75979 15.6464 7.85355C15.7402 7.94732 15.8674 8 16 8Z" fill="black"/>
<path d="M9.5 6H14.5V7H9.5V6Z" fill="black"/>
</svg>
