<svg width="144" height="105" viewBox="0 0 144 105" fill="none" xmlns="http://www.w3.org/2000/svg">
<g opacity="0.16">
<path d="M95.0003 -27.6429C101.688 -27.6429 108.167 -26.7621 114.333 -25.1125L98.4637 -9.25086C97.2598 -8.04215 96.198 -6.69982 95.2989 -5.25H95.0003C84.6662 -5.25 74.5642 -2.18559 65.9717 3.55571C57.3793 9.29702 50.6823 17.4573 46.7276 27.0048C42.7729 36.5522 41.7382 47.058 43.7542 57.1935C45.7703 67.329 50.7467 76.639 58.054 83.9463C65.3612 91.2536 74.6713 96.23 84.8068 98.246C94.9423 100.262 105.448 99.2274 114.995 95.2727C124.543 91.318 132.703 84.621 138.445 76.0285C144.186 67.4361 147.25 57.3341 147.25 47V46.7014C148.693 45.8057 150.025 44.7483 151.244 43.5291L167.113 27.6675C168.762 33.833 169.643 40.312 169.643 47C169.643 88.2253 136.226 121.643 95.0003 121.643C53.775 121.643 20.3574 88.2253 20.3574 47C20.3574 5.77475 53.775 -27.6429 95.0003 -27.6429ZM91.9101 9.80546C91.9101 16.1576 91.5966 22.5993 91.9399 28.9439L87.9092 32.9746C86.5227 34.3611 85.4228 36.0072 84.6724 37.8188C83.9221 39.6303 83.5358 41.572 83.5358 43.5328C83.5358 45.4937 83.9221 47.4353 84.6724 49.2469C85.4228 51.0585 86.5227 52.7045 87.9092 54.0911C89.2957 55.4776 90.9418 56.5775 92.7534 57.3278C94.565 58.0782 96.5066 58.4644 98.4674 58.4644C100.428 58.4644 102.37 58.0782 104.182 57.3278C105.993 56.5775 107.639 55.4776 109.026 54.0911L113.056 50.0604C119.401 50.4037 125.835 50.0902 132.195 50.0902C131.605 57.1838 128.999 63.9609 124.684 69.6221C120.37 75.2833 114.526 79.5925 107.842 82.0415C101.159 84.4906 93.9143 84.9772 86.9633 83.4441C80.0123 81.911 73.6447 78.4221 68.6114 73.3889C63.5782 68.3556 60.0893 61.988 58.5562 55.037C57.0231 48.086 57.5097 40.8415 59.9587 34.158C62.4077 27.4745 66.717 21.6307 72.3782 17.3158C78.0394 13.001 84.8165 10.3951 91.9101 9.80546ZM143.548 -26.6949C144.91 -26.13 146.075 -25.1741 146.895 -23.948C147.714 -22.7218 148.152 -21.2803 148.153 -19.8054V-6.14572H161.806C163.282 -6.1454 164.725 -5.70746 165.952 -4.88725C167.179 -4.06704 168.135 -2.9014 168.7 -1.53767C169.265 -0.17395 169.413 1.32662 169.125 2.77434C168.837 4.22206 168.126 5.55193 167.083 6.59582L140.682 32.9671C139.282 34.3671 137.384 35.1538 135.404 35.1542H117.393L103.748 48.8064C102.348 50.207 100.448 50.9938 98.4674 50.9938C96.4867 50.9938 94.5871 50.207 93.1865 48.8064C91.7859 47.4057 90.999 45.5061 90.999 43.5254C90.999 41.5446 91.7859 39.645 93.1865 38.2444L106.839 24.6071V6.58836C106.838 5.60695 107.031 4.63503 107.406 3.72822C107.781 2.8214 108.332 1.99749 109.026 1.30364L135.412 -25.0826C136.456 -26.1271 137.786 -26.8385 139.234 -27.1268C140.682 -27.4152 142.184 -27.2674 143.548 -26.7024" fill="#FF7438"/>
</g>
</svg>
