<svg width="24" height="24" viewBox="0 0 24 24" fill="none" xmlns="http://www.w3.org/2000/svg">
<path d="M12.754 2.305C12.754 2.10609 12.675 1.91532 12.5343 1.77467C12.3937 1.63402 12.2029 1.555 12.004 1.555C11.8051 1.555 11.6143 1.63402 11.4737 1.77467C11.333 1.91532 11.254 2.10609 11.254 2.305V3.785C11.254 3.98391 11.333 4.17468 11.4737 4.31533C11.6143 4.45598 11.8051 4.535 12.004 4.535C12.2029 4.535 12.3937 4.45598 12.5343 4.31533C12.675 4.17468 12.754 3.98391 12.754 3.785V2.305ZM17.865 10.295C17.6566 9.48466 17.2782 8.72792 16.755 8.075C16.2363 7.41751 15.5856 6.87589 14.845 6.485C14.1062 6.09719 13.2967 5.8625 12.465 5.795C11.631 5.73234 10.793 5.84474 10.005 6.125C9.21259 6.40131 8.48697 6.84078 7.87499 7.415C7.26959 7.97952 6.78337 8.65956 6.44499 9.415C6.11429 10.1821 5.94739 11.0097 5.95499 11.845C5.93181 12.8098 6.13824 13.7662 6.55725 14.6355C6.97626 15.5048 7.59586 16.2621 8.36499 16.845L8.71499 17.175C9.01499 17.485 9.01499 17.485 9.00499 18.175V18.495C8.99296 18.7163 9.02701 18.9376 9.10499 19.145C9.17499 19.367 9.29899 19.57 9.46499 19.735C9.54099 19.813 9.62432 19.883 9.71499 19.945V20.945C9.69853 21.1264 9.71813 21.3092 9.77265 21.4829C9.82717 21.6567 9.91554 21.8179 10.0327 21.9574C10.1498 22.0968 10.2934 22.2117 10.4551 22.2954C10.6168 22.3791 10.7935 22.4299 10.975 22.445H12.975C13.3423 22.4144 13.6824 22.2393 13.9206 21.958C14.1587 21.6767 14.2754 21.3123 14.245 20.945V19.945C14.3353 19.8837 14.419 19.8133 14.495 19.735C14.652 19.569 14.772 19.371 14.845 19.155C14.9216 18.9438 14.9556 18.7194 14.945 18.495V18.125C14.945 17.575 14.945 17.575 15.255 17.225L15.635 16.875C16.9171 15.8779 17.7543 14.4155 17.965 12.805C18.1122 11.9709 18.0781 11.1148 17.865 10.295ZM12.795 20.925H11.215V20.295H12.795V20.925ZM12.005 10.365C11.6788 10.365 11.3659 10.4946 11.1353 10.7253C10.9046 10.9559 10.775 11.2688 10.775 11.595C10.775 11.8602 10.6696 12.1146 10.4821 12.3021C10.2946 12.4896 10.0402 12.595 9.77499 12.595C9.50977 12.595 9.25542 12.4896 9.06788 12.3021C8.88035 12.1146 8.77499 11.8602 8.77499 11.595C8.77234 11.1701 8.85407 10.7489 9.01545 10.3558C9.17683 9.96272 9.41465 9.60559 9.71512 9.30512C10.0156 9.00466 10.3727 8.76684 10.7658 8.60546C11.1589 8.44408 11.5801 8.36234 12.005 8.365C12.2702 8.365 12.5246 8.47036 12.7121 8.65789C12.8996 8.84543 13.005 9.09978 13.005 9.365C13.005 9.63022 12.8996 9.88457 12.7121 10.0721C12.5246 10.2596 12.2702 10.365 12.005 10.365ZM21.165 12.865H19.335C19.1361 12.865 18.9453 12.786 18.8047 12.6453C18.664 12.5047 18.585 12.3139 18.585 12.115C18.585 11.9161 18.664 11.7253 18.8047 11.5847C18.9453 11.444 19.1361 11.365 19.335 11.365H21.165C21.3639 11.365 21.5547 11.444 21.6953 11.5847C21.836 11.7253 21.915 11.9161 21.915 12.115C21.915 12.3139 21.836 12.5047 21.6953 12.6453C21.5547 12.786 21.3639 12.865 21.165 12.865ZM17.485 6.855C17.3865 6.85547 17.2888 6.83625 17.1978 6.79847C17.1068 6.76069 17.0242 6.70511 16.955 6.635C16.8145 6.49438 16.7357 6.30375 16.7357 6.105C16.7357 5.90625 16.8145 5.71563 16.955 5.575L18.255 4.275C18.3972 4.14252 18.5852 4.0704 18.7795 4.07383C18.9738 4.07725 19.1592 4.15597 19.2966 4.29338C19.434 4.43079 19.5127 4.61618 19.5162 4.81048C19.5196 5.00478 19.4475 5.19283 19.315 5.335L18.015 6.635C17.9461 6.70557 17.8636 6.76145 17.7725 6.79926C17.6814 6.83707 17.5836 6.85604 17.485 6.855ZM19.785 19.295C19.5872 19.2897 19.3984 19.2114 19.255 19.075L17.955 17.775C17.8671 17.6879 17.8022 17.5804 17.7659 17.4622C17.7297 17.3439 17.7232 17.2185 17.7472 17.0971C17.7711 16.9757 17.8247 16.8622 17.9032 16.7665C17.9817 16.6709 18.0826 16.5962 18.197 16.549C18.3342 16.4912 18.4857 16.476 18.6316 16.5057C18.7776 16.5353 18.9112 16.6082 19.015 16.715L20.315 18.015C20.3857 18.0839 20.442 18.1664 20.4804 18.2574C20.5188 18.3484 20.5386 18.4462 20.5386 18.545C20.5386 18.6438 20.5188 18.7416 20.4804 18.8326C20.442 18.9236 20.3857 19.0061 20.315 19.075C20.1745 19.2157 19.9838 19.2948 19.785 19.295ZM6.53499 6.855C6.33615 6.85483 6.14551 6.77569 6.00499 6.635L4.70499 5.335C4.56443 5.19311 4.48599 5.00119 4.48692 4.80147C4.48786 4.60174 4.5681 4.41057 4.70999 4.27C4.85188 4.12944 5.0438 4.05099 5.24353 4.05193C5.44325 4.05287 5.63443 4.13311 5.77499 4.275L7.06499 5.575C7.16975 5.67989 7.24107 5.81347 7.26996 5.95886C7.29884 6.10426 7.28399 6.25496 7.22728 6.39192C7.17057 6.52889 7.07454 6.64597 6.95132 6.72839C6.82811 6.81081 6.68323 6.85487 6.53499 6.855ZM4.24499 19.295C4.14612 19.2979 4.04777 19.2797 3.95641 19.2418C3.86506 19.2039 3.78278 19.147 3.71499 19.075C3.57454 18.9344 3.49565 18.7438 3.49565 18.545C3.49565 18.3462 3.57454 18.1556 3.71499 18.015L5.01499 16.715C5.15717 16.5825 5.34521 16.5104 5.53951 16.5138C5.73382 16.5173 5.9192 16.596 6.05661 16.7334C6.19403 16.8708 6.27274 17.0562 6.27617 17.2505C6.27959 17.4448 6.20747 17.6328 6.07499 17.775L4.78499 19.085C4.63755 19.22 4.44491 19.2949 4.24499 19.295ZM4.66499 12.865H2.83499C2.63608 12.865 2.44531 12.786 2.30466 12.6453C2.16401 12.5047 2.08499 12.3139 2.08499 12.115C2.08499 11.9161 2.16401 11.7253 2.30466 11.5847C2.44531 11.444 2.63608 11.365 2.83499 11.365H4.66499C4.8639 11.365 5.05467 11.444 5.19532 11.5847C5.33597 11.7253 5.41499 11.9161 5.41499 12.115C5.41499 12.3139 5.33597 12.5047 5.19532 12.6453C5.05467 12.786 4.8639 12.865 4.66499 12.865Z" fill="black"/>
</svg>
