<svg width="24" height="24" viewBox="0 0 24 24" fill="none" xmlns="http://www.w3.org/2000/svg">
<path d="M10.6 16C10.6 14.65 10.721 13.6793 10.963 13.088C11.205 12.4967 11.7173 11.8507 12.5 11.15C13.1833 10.55 13.7043 10.0293 14.063 9.588C14.4217 9.14667 14.6007 8.64233 14.6 8.075C14.6 7.39167 14.371 6.825 13.913 6.375C13.455 5.925 12.8173 5.7 12 5.7C11.15 5.7 10.5043 5.95833 10.063 6.475C9.62165 6.99167 9.30899 7.51667 9.12499 8.05L6.54999 6.95C6.89999 5.88333 7.54165 4.95833 8.47499 4.175C9.40832 3.39167 10.5833 3 12 3C13.75 3 15.096 3.48767 16.038 4.463C16.98 5.43833 17.4507 6.609 17.45 7.975C17.45 8.80833 17.271 9.521 16.913 10.113C16.555 10.705 15.9923 11.3757 15.225 12.125C14.4083 12.9083 13.9127 13.5043 13.738 13.913C13.5633 14.3217 13.4757 15.0173 13.475 16H10.6ZM12 22C11.45 22 10.9793 21.8043 10.588 21.413C10.1967 21.0217 10.0007 20.5507 9.99999 20C9.99932 19.4493 10.1953 18.9787 10.588 18.588C10.9807 18.1973 11.4513 18.0013 12 18C12.5487 17.9987 13.0197 18.1947 13.413 18.588C13.8063 18.9813 14.002 19.452 14 20C13.998 20.548 13.8023 21.019 13.413 21.413C13.0237 21.807 12.5527 22.0027 12 22Z" fill="black"/>
</svg>
