<svg width="24" height="24" viewBox="0 0 24 24" fill="none" xmlns="http://www.w3.org/2000/svg">
<path d="M13 3C9.22999 3 6.18999 5.95 5.99999 9.66L4.07999 12.19C3.83999 12.5 4.07999 13 4.49999 13H5.99999V16C5.99999 17.11 6.88999 18 7.99999 18H8.99999V21H16V16.31C18.37 15.19 20 12.8 20 10C20 6.14 16.88 3 13 3ZM17.06 9.57L15.1 10.09L16.54 11.54C16.7079 11.7087 16.8022 11.937 16.8022 12.175C16.8022 12.413 16.7079 12.6413 16.54 12.81C16.3713 12.9779 16.143 13.0722 15.905 13.0722C15.667 13.0722 15.4387 12.9779 15.27 12.81L13.81 11.37L13.3 13.33C13.18 13.82 12.68 14.1 12.21 13.97C12.095 13.941 11.9871 13.8893 11.8924 13.818C11.7977 13.7466 11.7182 13.6571 11.6586 13.5546C11.5989 13.4522 11.5604 13.3388 11.5452 13.2213C11.53 13.1037 11.5384 12.9843 11.57 12.87L12.1 10.9L10.13 11.43C10.0157 11.462 9.89619 11.4708 9.77848 11.4557C9.66076 11.4407 9.54726 11.4022 9.44469 11.3425C9.34212 11.2829 9.25257 11.2032 9.18133 11.1083C9.1101 11.0134 9.05864 10.9052 9.02999 10.79C8.89999 10.32 9.17999 9.82 9.66999 9.7L11.63 9.19L10.19 7.73C10.0395 7.55817 9.96005 7.33558 9.96762 7.10732C9.97518 6.87907 10.0692 6.66222 10.2307 6.50073C10.3922 6.33925 10.6091 6.24519 10.8373 6.23762C11.0656 6.23006 11.2882 6.30956 11.46 6.46L12.91 7.9L13.43 5.94C13.458 5.82761 13.508 5.72186 13.577 5.62882C13.646 5.53578 13.7327 5.45728 13.8321 5.39782C13.9315 5.33836 14.0417 5.29911 14.1563 5.28232C14.2709 5.26554 14.3877 5.27154 14.5 5.3C15 5.43 15.28 5.92 15.16 6.41L14.63 8.37L16.59 7.84C16.7062 7.81002 16.8272 7.80333 16.9461 7.82032C17.0649 7.83731 17.1792 7.87764 17.2824 7.93898C17.3855 8.00033 17.4755 8.08148 17.5472 8.17777C17.6189 8.27405 17.6708 8.38356 17.7 8.5C17.7284 8.61229 17.7345 8.72909 17.7177 8.8437C17.7009 8.95831 17.6616 9.06848 17.6022 9.16789C17.5427 9.2673 17.4642 9.354 17.3712 9.423C17.2781 9.492 17.1724 9.54196 17.06 9.57Z" fill="black"/>
</svg>
