<svg width="24" height="24" viewBox="0 0 24 24" fill="none" xmlns="http://www.w3.org/2000/svg">
<path d="M12 20C16.4183 20 20 16.4183 20 12C20 7.58172 16.4183 4 12 4C7.58172 4 4 7.58172 4 12C4 16.4183 7.58172 20 12 20Z" stroke="black" stroke-width="1.5"/>
<path d="M12 6C13.1867 6 14.3467 6.35189 15.3334 7.01118C16.3201 7.67047 17.0891 8.60754 17.5433 9.7039C17.9974 10.8003 18.1162 12.0067 17.8847 13.1705C17.6532 14.3344 17.0818 15.4035 16.2426 16.2426C15.4035 17.0818 14.3344 17.6532 13.1705 17.8847C12.0067 18.1162 10.8003 17.9974 9.7039 17.5433C8.60754 17.0891 7.67047 16.3201 7.01118 15.3334C6.35189 14.3467 6 13.1867 6 12H12V6Z" fill="black"/>
</svg>
