<svg width="24" height="24" viewBox="0 0 24 24" fill="none" xmlns="http://www.w3.org/2000/svg">
<path d="M18.0952 11.619H16.9524V8.57143C16.9524 8.16729 16.7918 7.7797 16.5061 7.49393C16.2203 7.20816 15.8327 7.04762 15.4286 7.04762H12.381V5.90476C12.381 5.39959 12.1803 4.9151 11.8231 4.55789C11.4658 4.20068 10.9814 4 10.4762 4C9.97102 4 9.48653 4.20068 9.12932 4.55789C8.77211 4.9151 8.57143 5.39959 8.57143 5.90476V7.04762H5.52381C5.11967 7.04762 4.73208 7.20816 4.44631 7.49393C4.16054 7.7797 4 8.16729 4 8.57143V11.4667H5.14286C6.28571 11.4667 7.2 12.381 7.2 13.5238C7.2 14.6667 6.28571 15.581 5.14286 15.581H4V18.4762C4 18.8803 4.16054 19.2679 4.44631 19.5537C4.73208 19.8395 5.11967 20 5.52381 20H8.41905V18.8571C8.41905 17.7143 9.33333 16.8 10.4762 16.8C11.619 16.8 12.5333 17.7143 12.5333 18.8571V20H15.4286C15.8327 20 16.2203 19.8395 16.5061 19.5537C16.7918 19.2679 16.9524 18.8803 16.9524 18.4762V15.4286H18.0952C18.6004 15.4286 19.0849 15.2279 19.4421 14.8707C19.7993 14.5135 20 14.029 20 13.5238C20 13.0186 19.7993 12.5342 19.4421 12.1769C19.0849 11.8197 18.6004 11.619 18.0952 11.619Z" fill="black"/>
</svg>
