<svg width="24" height="24" viewBox="0 0 24 24" fill="none" xmlns="http://www.w3.org/2000/svg">
<path d="M1.14999 20L4.59999 13.1C4.76666 12.7667 5.00433 12.5 5.31299 12.3C5.62166 12.1 5.96733 12 6.34999 12C6.74999 12 7.11666 12.104 7.44999 12.312C7.78333 12.52 8.02499 12.816 8.17499 13.2L8.84999 14.85C8.88333 14.95 8.95833 14.9957 9.07499 14.987C9.19166 14.9783 9.26666 14.9243 9.29999 14.825L11.45 7.65C11.6833 6.85 12.1293 6.20833 12.788 5.725C13.4467 5.24167 14.1923 5 15.025 5C15.8417 5 16.571 5.23733 17.213 5.712C17.855 6.18667 18.3007 6.80767 18.55 7.575L22.875 20H1.14999ZM5.99999 10C5.16666 10 4.45833 9.704 3.87499 9.112C3.29166 8.52 2.99999 7.816 2.99999 7C2.99999 6.16667 3.29166 5.45833 3.87499 4.875C4.45833 4.29167 5.16666 4 5.99999 4C6.83333 4 7.54166 4.29167 8.12499 4.875C8.70833 5.45833 8.99999 6.16667 8.99999 7C8.99999 7.81667 8.70833 8.521 8.12499 9.113C7.54166 9.705 6.83333 10.0007 5.99999 10Z" fill="black"/>
</svg>
