<svg width="24" height="24" viewBox="0 0 24 24" fill="none" xmlns="http://www.w3.org/2000/svg">
<path d="M11.0126 21C10.6345 21 10.309 20.8725 10.0361 20.6175C9.76331 20.3625 9.5986 20.0508 9.54202 19.6825L9.35294 18.28C9.17087 18.2092 8.99944 18.1242 8.83865 18.025C8.67787 17.9258 8.52017 17.8196 8.36555 17.7063L7.06302 18.2587C6.71288 18.4146 6.36275 18.4288 6.0126 18.3013C5.66246 18.1738 5.38936 17.9471 5.19328 17.6213L4.20588 15.8788C4.0098 15.5529 3.95378 15.2058 4.03782 14.8375C4.12185 14.4692 4.31092 14.1646 4.60504 13.9238L5.71849 13.0738C5.70448 12.9746 5.69748 12.8788 5.69748 12.7865V12.2127C5.69748 12.1209 5.70448 12.0254 5.71849 11.9262L4.60504 11.0763C4.31092 10.8354 4.12185 10.5308 4.03782 10.1625C3.95378 9.79417 4.0098 9.44708 4.20588 9.12125L5.19328 7.37875C5.38936 7.05292 5.66246 6.82625 6.0126 6.69875C6.36275 6.57125 6.71288 6.58542 7.06302 6.74125L8.36555 7.29375C8.51961 7.18042 8.68067 7.07417 8.84874 6.975C9.01681 6.87583 9.18487 6.79083 9.35294 6.72L9.54202 5.3175C9.59804 4.94917 9.76274 4.6375 10.0361 4.3825C10.3095 4.1275 10.635 4 11.0126 4H12.9874C13.3655 4 13.6913 4.1275 13.9647 4.3825C14.2381 4.6375 14.4025 4.94917 14.458 5.3175L14.6471 6.72C14.8291 6.79083 15.0008 6.87583 15.1622 6.975C15.3235 7.07417 15.481 7.18042 15.6345 7.29375L16.937 6.74125C17.2871 6.58542 17.6373 6.57125 17.9874 6.69875C18.3375 6.82625 18.6106 7.05292 18.8067 7.37875L19.7941 9.12125C19.9902 9.44708 20.0462 9.79417 19.9622 10.1625C19.8782 10.5308 19.6891 10.8354 19.395 11.0763L18.2815 11.9262C18.2955 12.0254 18.3025 12.1212 18.3025 12.2136V12.7865C18.3025 12.8788 18.2885 12.9746 18.2605 13.0738L19.3739 13.9238C19.6681 14.1646 19.8571 14.4692 19.9412 14.8375C20.0252 15.2058 19.9692 15.5529 19.7731 15.8788L18.7647 17.6213C18.5686 17.9471 18.2955 18.1738 17.9454 18.3013C17.5952 18.4288 17.2451 18.4146 16.895 18.2587L15.6345 17.7063C15.4804 17.8196 15.3193 17.9258 15.1513 18.025C14.9832 18.1242 14.8151 18.2092 14.6471 18.28L14.458 19.6825C14.402 20.0508 14.2375 20.3625 13.9647 20.6175C13.6919 20.8725 13.3661 21 12.9874 21H11.0126ZM12.042 15.475C12.8543 15.475 13.5476 15.1846 14.1218 14.6038C14.6961 14.0229 14.9832 13.3217 14.9832 12.5C14.9832 11.6783 14.6961 10.9771 14.1218 10.3962C13.5476 9.81542 12.8543 9.525 12.042 9.525C11.2157 9.525 10.5188 9.81542 9.95126 10.3962C9.38375 10.9771 9.10028 11.6783 9.10084 12.5C9.1014 13.3217 9.38515 14.0229 9.9521 14.6038C10.519 15.1846 11.2157 15.475 12.042 15.475Z" fill="black"/>
</svg>
