<svg width="24" height="24" viewBox="0 0 24 24" fill="none" xmlns="http://www.w3.org/2000/svg">
<path d="M14.9989 22C15.2538 22.0003 15.4989 22.0979 15.6843 22.2728C15.8696 22.4478 15.9811 22.687 15.9961 22.9414C16.011 23.1958 15.9282 23.4464 15.7646 23.6418C15.601 23.8373 15.369 23.9629 15.1159 23.993L14.9989 24H11.9989C11.744 23.9997 11.4989 23.9021 11.3135 23.7272C11.1282 23.5522 11.0167 23.313 11.0017 23.0586C10.9868 22.8042 11.0696 22.5536 11.2332 22.3582C11.3967 22.1627 11.6288 22.0371 11.8819 22.007L11.9989 22H14.9989Z" fill="black"/>
<path d="M15 3C15.2449 3.00003 15.4813 3.08996 15.6644 3.25272C15.8474 3.41547 15.9643 3.63975 15.993 3.883L16 4V4.454C17.59 4.832 18.85 5.391 19.775 5.913L20 6.043V6C20.0003 5.74512 20.0979 5.49997 20.2728 5.31463C20.4478 5.1293 20.687 5.01777 20.9414 5.00283C21.1958 4.98789 21.4464 5.07067 21.6418 5.23426C21.8373 5.39786 21.9629 5.6299 21.993 5.883L22 6V12.9C22.0001 13.1711 21.9002 13.4326 21.7193 13.6345C21.5385 13.8364 21.2894 13.9644 21.02 13.994L20.9 14H16.045C15.506 14 15.063 13.593 15.006 13.07L15 12.954V12.5C15.002 10.191 12.504 8.745 10.503 9.898C10.0717 10.1464 9.70888 10.4982 9.44737 10.9217C9.18586 11.3452 9.03384 11.8271 9.005 12.324L9 12.5V12.955C9 13.494 8.593 13.937 8.07 13.994L7.954 14H3.1C2.82894 14.0001 2.56738 13.9002 2.36548 13.7193C2.16358 13.5385 2.03557 13.2894 2.006 13.02L2 12.9V6C2.00028 5.74512 2.09788 5.49997 2.27285 5.31463C2.44782 5.1293 2.68695 5.01777 2.94139 5.00283C3.19584 4.98789 3.44638 5.07067 3.64183 5.23426C3.83729 5.39786 3.9629 5.6299 3.993 5.883L4 6V6.042C5.12953 5.38258 6.34419 4.88124 7.61 4.552L8 4.455V4C8.00028 3.74512 8.09788 3.49997 8.27285 3.31463C8.44782 3.1293 8.68695 3.01777 8.94139 3.00283C9.19584 2.98789 9.44638 3.07067 9.64183 3.23426C9.83729 3.39786 9.9629 3.6299 9.993 3.883L10 4V4.109C11.1698 3.98046 12.3493 3.96505 13.522 4.063L14 4.109V4C14 3.73478 14.1054 3.48043 14.2929 3.29289C14.4804 3.10536 14.7348 3 15 3Z" fill="black"/>
<path d="M11 19C11.2652 19 11.5196 19.1054 11.7071 19.2929C11.8946 19.4804 12 19.7348 12 20C12 20.2652 11.8946 20.5196 11.7071 20.7071C11.5196 20.8946 11.2652 21 11 21H7C6.73478 21 6.48043 20.8946 6.29289 20.7071C6.10536 20.5196 6 20.2652 6 20C6 19.7348 6.10536 19.4804 6.29289 19.2929C6.48043 19.1054 6.73478 19 7 19H11Z" fill="black"/>
<path d="M14 15C14.2652 15 14.5196 15.1054 14.7071 15.2929C14.8946 15.4804 15 15.7348 15 16C15 16.2652 14.8946 16.5196 14.7071 16.7071C14.5196 16.8946 14.2652 17 14 17H10C9.73478 17 9.48043 16.8946 9.29289 16.7071C9.10536 16.5196 9 16.2652 9 16C9 15.7348 9.10536 15.4804 9.29289 15.2929C9.48043 15.1054 9.73478 15 10 15H14Z" fill="black"/>
</svg>
