<svg width="24" height="24" viewBox="0 0 24 24" fill="none" xmlns="http://www.w3.org/2000/svg">
<path d="M20.336 3.221L3.87298 8.71C3.80557 8.73242 3.74658 8.77481 3.70384 8.83156C3.66111 8.8883 3.63665 8.9567 3.63372 9.02768C3.63079 9.09866 3.64953 9.16884 3.68744 9.22892C3.72535 9.28899 3.78065 9.3361 3.84598 9.364L9.89598 11.957C9.92768 11.9707 9.9624 11.976 9.99674 11.9723C10.0311 11.9686 10.0639 11.9561 10.092 11.936L16.023 7.698C16.207 7.568 16.433 7.794 16.303 7.978L12.065 13.909C12.0452 13.9371 12.033 13.9697 12.0294 14.0039C12.0259 14.038 12.0313 14.0725 12.045 14.104L14.637 20.154C14.6648 20.2194 14.7118 20.2747 14.7718 20.3127C14.8318 20.3507 14.902 20.3695 14.973 20.3667C15.0439 20.3639 15.1124 20.3395 15.1692 20.2969C15.226 20.2543 15.2685 20.1954 15.291 20.128L20.78 3.664C20.8006 3.60229 20.8037 3.53604 20.7888 3.4727C20.7739 3.40936 20.7416 3.35143 20.6956 3.30541C20.6496 3.2594 20.5916 3.22712 20.5283 3.21221C20.4649 3.1973 20.3977 3.20034 20.336 3.221Z" fill="black"/>
</svg>
