<svg width="24" height="24" viewBox="0 0 24 24" fill="none" xmlns="http://www.w3.org/2000/svg">
<path d="M15 20C14.7167 20 14.4793 19.904 14.288 19.712C14.0967 19.52 14.0007 19.2827 14 19C13.9993 18.7173 14.0953 18.48 14.288 18.288C14.4807 18.096 14.718 18 15 18H16.6L14.125 15.525C13.925 15.325 13.8293 15.0877 13.838 14.813C13.8467 14.5383 13.9507 14.3007 14.15 14.1C14.3493 13.8993 14.587 13.7993 14.863 13.8C15.139 13.8007 15.3763 13.9007 15.575 14.1L18 16.55V15C18 14.7167 18.096 14.4793 18.288 14.288C18.48 14.0967 18.7173 14.0007 19 14C19.2827 13.9993 19.5203 14.0953 19.713 14.288C19.9057 14.4807 20.0013 14.718 20 15V19C20 19.2833 19.904 19.521 19.712 19.713C19.52 19.905 19.2827 20.0007 19 20H15ZM4.3 19.7C4.11667 19.5167 4.025 19.2833 4.025 19C4.025 18.7167 4.11667 18.4833 4.3 18.3L16.6 6H15C14.7167 6 14.4793 5.904 14.288 5.712C14.0967 5.52 14.0007 5.28267 14 5C13.9993 4.71733 14.0953 4.48 14.288 4.288C14.4807 4.096 14.718 4 15 4H19C19.2833 4 19.521 4.096 19.713 4.288C19.905 4.48 20.0007 4.71733 20 5V9C20 9.28333 19.904 9.521 19.712 9.713C19.52 9.905 19.2827 10.0007 19 10C18.7173 9.99933 18.48 9.90333 18.288 9.712C18.096 9.52067 18 9.28333 18 9V7.4L5.7 19.7C5.51667 19.8833 5.28333 19.975 5 19.975C4.71667 19.975 4.48333 19.8833 4.3 19.7ZM4.275 5.7C4.09167 5.51667 4 5.28333 4 5C4 4.71667 4.09167 4.48333 4.275 4.3C4.45833 4.11667 4.68733 4.025 4.962 4.025C5.23667 4.025 5.47433 4.11667 5.675 4.3L9.875 8.475C10.0583 8.65833 10.1543 8.88767 10.163 9.163C10.1717 9.43833 10.0757 9.67567 9.875 9.875C9.69167 10.0583 9.45833 10.15 9.175 10.15C8.89167 10.15 8.65833 10.0583 8.475 9.875L4.275 5.7Z" fill="black"/>
</svg>
