<svg width="24" height="24" viewBox="0 0 24 24" fill="none" xmlns="http://www.w3.org/2000/svg">
<path fill-rule="evenodd" clip-rule="evenodd" d="M16.72 6.86573C16.8606 6.72528 17.0512 6.64639 17.25 6.64639C17.4487 6.64639 17.6394 6.72528 17.78 6.86573L17.782 6.86773L17.785 6.86973L17.792 6.87673L17.812 6.89673L17.874 6.96573C17.924 7.02273 17.994 7.10373 18.075 7.20673C18.999 8.40771 19.5 9.88046 19.5 11.3957C19.5 12.911 18.999 14.3838 18.075 15.5847C17.9912 15.6916 17.9032 15.795 17.811 15.8947L17.791 15.9147L17.785 15.9217L17.782 15.9237L17.781 15.9247L17.271 15.4167L17.781 15.9267C17.6403 16.0674 17.4495 16.1465 17.2505 16.1465C17.0515 16.1465 16.8607 16.0674 16.72 15.9267C16.5793 15.786 16.5003 15.5952 16.5003 15.3962C16.5003 15.1973 16.5793 15.0064 16.72 14.8657L16.719 14.8667L16.717 14.8677L16.722 14.8627L16.755 14.8267C16.787 14.7921 16.8333 14.7364 16.894 14.6597C17.5266 13.8339 17.9057 12.842 17.9853 11.8047C18.0648 10.7674 17.8413 9.7294 17.342 8.81673C17.2116 8.57654 17.0618 8.34744 16.894 8.13173C16.8397 8.06156 16.7823 7.99382 16.722 7.92873L16.717 7.92373C16.5776 7.7828 16.4996 7.59238 16.5002 7.39412C16.5007 7.19585 16.5798 7.00588 16.72 6.86573Z" fill="#222222"/>
<path fill-rule="evenodd" clip-rule="evenodd" d="M19.72 3.86574C19.8606 3.72528 20.0512 3.6464 20.25 3.6464C20.4488 3.6464 20.6394 3.72528 20.78 3.86574L20.783 3.86774L20.786 3.87074L20.795 3.88074C20.8384 3.92349 20.8797 3.9682 20.919 4.01474C20.998 4.10374 21.107 4.23274 21.235 4.39974C21.492 4.73274 21.829 5.22274 22.164 5.85974C22.834 7.13374 23.5 9.00274 23.5 11.3957C23.5 13.7887 22.834 15.6577 22.164 16.9327C21.8971 17.4453 21.5863 17.9338 21.235 18.3927C21.0968 18.5724 20.95 18.7453 20.795 18.9107L20.785 18.9207L20.783 18.9237L20.781 18.9247L20.25 18.3957L20.78 18.9257C20.6386 19.0624 20.4492 19.1381 20.2525 19.1365C20.0559 19.1349 19.8678 19.0561 19.7286 18.9171C19.5895 18.7781 19.5105 18.59 19.5087 18.3934C19.5069 18.1967 19.5824 18.0073 19.719 17.8657L19.733 17.8517L19.796 17.7817C19.8553 17.7164 19.9387 17.6151 20.046 17.4777C20.258 17.2017 20.546 16.7847 20.836 16.2337C21.416 15.1337 22 13.5027 22 11.3957C22 9.28874 21.416 7.65774 20.836 6.55774C20.6083 6.12147 20.344 5.70531 20.046 5.31374C19.9468 5.18488 19.8424 5.06011 19.733 4.93974L19.719 4.92574C19.5786 4.78511 19.4997 4.59449 19.4997 4.39574C19.4997 4.19698 19.5795 4.00636 19.72 3.86574ZM11.787 3.29174C12.95 2.52474 14.5 3.35974 14.5 4.75274V19.0387C14.5 20.4327 12.95 21.2667 11.787 20.4997L5.787 16.5447C5.74641 16.5177 5.69879 16.5031 5.65 16.5027H2.75C2.02065 16.5027 1.32118 16.213 0.805456 15.6973C0.289731 15.1816 0 14.4821 0 13.7527V10.0387C0 9.6776 0.0711308 9.32 0.209331 8.98636C0.347532 8.65271 0.550095 8.34955 0.805456 8.09419C1.06082 7.83883 1.36398 7.63627 1.69762 7.49807C2.03127 7.35987 2.38886 7.28874 2.75 7.28874H5.65C5.69903 7.2889 5.74701 7.27464 5.788 7.24774L11.787 3.29174Z" fill="#222222"/>
</svg>
