<svg width="24" height="24" viewBox="0 0 24 24" fill="none" xmlns="http://www.w3.org/2000/svg">
<g clip-path="url(#clip0_1123_4223)">
<path d="M20.713 7.128L20.467 7.694C20.4285 7.78617 20.3637 7.86489 20.2806 7.92027C20.1975 7.97565 20.0999 8.0052 20 8.0052C19.9001 8.0052 19.8025 7.97565 19.7194 7.92027C19.6363 7.86489 19.5714 7.78617 19.533 7.694L19.287 7.128C18.8545 6.12672 18.0624 5.32392 17.067 4.878L16.308 4.539C16.2159 4.49664 16.1379 4.42877 16.0832 4.34343C16.0285 4.25809 15.9995 4.15886 15.9995 4.0575C15.9995 3.95614 16.0285 3.85691 16.0832 3.77157C16.1379 3.68623 16.2159 3.61836 16.308 3.576L17.025 3.257C18.0454 2.79838 18.851 1.96588 19.276 0.931L19.53 0.32C19.5672 0.225353 19.632 0.144098 19.716 0.0868247C19.8 0.0295517 19.8993 -0.00108147 20.001 -0.00108147C20.1027 -0.00108147 20.202 0.0295517 20.286 0.0868247C20.37 0.144098 20.4348 0.225353 20.472 0.32L20.725 0.93C21.1495 1.96508 21.9548 2.79793 22.975 3.257L23.693 3.577C23.7848 3.61948 23.8625 3.68734 23.917 3.77257C23.9715 3.85781 24.0004 3.95685 24.0004 4.058C24.0004 4.15915 23.9715 4.25819 23.917 4.34343C23.8625 4.42866 23.7848 4.49652 23.693 4.539L22.933 4.877C21.9378 5.32337 21.1461 6.12652 20.714 7.128M8.99999 2C10.9427 1.9997 12.8191 2.70631 14.279 3.98794C15.739 5.26957 16.6827 7.03865 16.934 8.965L19.184 12.504C19.332 12.737 19.302 13.084 18.959 13.232L17 14.07V17C17 17.5304 16.7893 18.0391 16.4142 18.4142C16.0391 18.7893 15.5304 19 15 19H13.001L13 22H3.99999V18.306C3.99999 17.126 3.56399 16.009 2.75599 15.001C1.81375 13.8245 1.22303 12.4058 1.05191 10.9082C0.880788 9.4107 1.13622 7.89528 1.78877 6.53656C2.44131 5.17785 3.46444 4.03113 4.74026 3.22851C6.01609 2.4259 7.4927 2.00004 8.99999 2ZM21.154 18.102L19.489 16.992C20.4765 15.5147 21.0025 13.777 21 12C20.9993 11.4887 20.958 10.9887 20.876 10.5L22.819 10C22.939 10.65 22.9993 11.3167 23 12C23 14.258 22.32 16.356 21.154 18.102Z" fill="black"/>
</g>
<defs>
<clipPath id="clip0_1123_4223">
<rect width="24" height="24" fill="white"/>
</clipPath>
</defs>
</svg>
