<svg width="24" height="24" viewBox="0 0 24 24" fill="none" xmlns="http://www.w3.org/2000/svg">
<path d="M17.25 9.75H13.5V11.25H17.25V12.75H14.25C13.8522 12.75 13.4706 12.908 13.1893 13.1893C12.908 13.4706 12.75 13.8522 12.75 14.25V15.75C12.75 16.1478 12.908 16.5294 13.1893 16.8107C13.4706 17.092 13.8522 17.25 14.25 17.25H18.75V11.25C18.75 10.8522 18.592 10.4706 18.3107 10.1893C18.0294 9.90804 17.6478 9.75 17.25 9.75ZM17.25 15.75H14.25V14.25H17.25V15.75ZM9.75 6.75H6.75C6.35218 6.75 5.97064 6.90804 5.68934 7.18934C5.40804 7.47064 5.25 7.85218 5.25 8.25V17.25H6.75V13.5H9.75V17.25H11.25V8.25C11.25 7.85218 11.092 7.47064 10.8107 7.18934C10.5294 6.90804 10.1478 6.75 9.75 6.75ZM6.75 12V8.25H9.75V12H6.75Z" fill="black"/>
</svg>
