<svg width="130" height="105" viewBox="0 0 130 105" fill="none" xmlns="http://www.w3.org/2000/svg">
<g opacity="0.16">
<path d="M175.75 96.598L110.846 -16.118C109.224 -18.8795 106.909 -21.1692 104.129 -22.7601C101.35 -24.351 98.2027 -25.188 95.0002 -25.188C91.7976 -25.188 88.6506 -24.351 85.8712 -22.7601C83.0918 -21.1692 80.7763 -18.8795 79.1544 -16.118L14.2501 96.598C12.6896 99.269 11.8672 102.307 11.8672 105.4C11.8672 108.494 12.6896 111.532 14.2501 114.203C15.8513 116.981 18.1627 119.283 20.9474 120.873C23.732 122.463 26.8895 123.283 30.0959 123.25H159.904C163.108 123.281 166.263 122.459 169.045 120.869C171.826 119.279 174.135 116.979 175.735 114.203C177.298 111.533 178.123 108.496 178.126 105.402C178.128 102.309 177.308 99.2704 175.75 96.598ZM89.0627 34.1875C89.0627 32.6128 89.6882 31.1025 90.8017 29.989C91.9152 28.8755 93.4254 28.25 95.0002 28.25C96.5749 28.25 98.0851 28.8755 99.1986 29.989C100.312 31.1025 100.938 32.6128 100.938 34.1875V63.875C100.938 65.4497 100.312 66.9599 99.1986 68.0734C98.0851 69.1869 96.5749 69.8125 95.0002 69.8125C93.4254 69.8125 91.9152 69.1869 90.8017 68.0734C89.6882 66.9599 89.0627 65.4497 89.0627 63.875V34.1875ZM95.0002 99.5C93.2387 99.5 91.5167 98.9776 90.0521 97.999C88.5875 97.0204 87.4459 95.6294 86.7719 94.002C86.0978 92.3746 85.9214 90.5839 86.265 88.8562C86.6087 87.1286 87.4569 85.5416 88.7025 84.2961C89.948 83.0505 91.535 82.2023 93.2626 81.8586C94.9903 81.515 96.781 81.6914 98.4084 82.3654C100.036 83.0395 101.427 84.1811 102.405 85.6457C103.384 87.1103 103.906 88.8323 103.906 90.5937C103.906 92.9558 102.968 95.2212 101.298 96.8914C99.6276 98.5617 97.3622 99.5 95.0002 99.5Z" fill="#E34446"/>
</g>
</svg>
