<svg width="161" height="36" viewBox="0 0 161 36" fill="none" xmlns="http://www.w3.org/2000/svg">
<g clip-path="url(#clip0_2638_2631)">
<mask id="mask0_2638_2631" style="mask-type:luminance" maskUnits="userSpaceOnUse" x="0" y="0" width="161" height="36">
<path d="M161 0H0V36H161V0Z" fill="white"/>
</mask>
<g mask="url(#mask0_2638_2631)">
<path d="M4.74322 27.6116L4.35694 27.4666C2.63213 26.8053 2.08414 26.2709 2.08414 25.0841C2.08963 24.8331 2.14557 24.5857 2.24857 24.357C2.35158 24.1284 2.4995 23.9232 2.68341 23.7538C2.86732 23.5844 3.08338 23.4544 3.31853 23.3717C3.55368 23.2889 3.80303 23.2552 4.0515 23.2724C4.45408 23.2535 4.85306 23.3564 5.19722 23.5678C5.54138 23.7793 5.81499 24.0896 5.98293 24.4591L7.51908 23.7434C7.2205 23.0741 6.73153 22.5093 6.11419 22.1206C5.49684 21.7319 4.77893 21.5369 4.0515 21.5602C3.10299 21.5407 2.18533 21.9003 1.49869 22.5605C0.812057 23.2206 0.412178 24.1278 0.386285 25.0841C0.386285 27.0318 1.28462 28.146 3.7281 29.0519L4.00658 29.1606C5.60562 29.7948 6.76448 30.2477 6.76448 31.824C6.76128 32.1598 6.69078 32.4914 6.55723 32.7991C6.42367 33.1067 6.22982 33.3839 5.98731 33.6141C5.7448 33.8443 5.45865 34.0226 5.14606 34.1384C4.83346 34.2542 4.50087 34.3051 4.16828 34.288C3.59855 34.3035 3.03858 34.1365 2.56888 33.811C2.09917 33.4855 1.7439 33.0181 1.55412 32.4762L0 33.1828C0.32532 34.0261 0.899457 34.7485 1.64487 35.2523C2.39029 35.7561 3.27108 36.0172 4.16828 36.0001C4.72476 36.017 5.27899 35.9218 5.79854 35.7201C6.31808 35.5183 6.79251 35.2141 7.19404 34.8252C7.59557 34.4364 7.91615 33.9706 8.13701 33.4553C8.35788 32.9399 8.47458 32.3853 8.4803 31.824C8.4803 29.0429 6.28836 28.2185 4.74322 27.6116ZM18.2632 21.7414H13.1606V35.8099H14.8854V30.3202H18.2632C19.3901 30.3202 20.4709 29.8687 21.2678 29.0652C22.0647 28.2616 22.5123 27.1717 22.5123 26.0353C22.5123 24.8989 22.0647 23.809 21.2678 23.0055C20.4709 22.2019 19.3901 21.7505 18.2632 21.7505V21.7414ZM18.2632 28.5809H14.8854V23.4807H18.2632C18.9351 23.4807 19.5794 23.7499 20.0545 24.2289C20.5296 24.708 20.7965 25.3578 20.7965 26.0353C20.7965 26.7129 20.5296 27.3626 20.0545 27.8417C19.5794 28.3208 18.9351 28.5899 18.2632 28.5899V28.5809ZM26.7255 35.8099H35.125V34.0796H28.4414V29.6498H34.3614V27.9105H28.4414V23.4807H35.125V21.7505H26.7255V35.8099ZM42.2937 21.7505H40.5689V35.8099H47.8275V34.0796H42.2937V21.7505ZM54.2686 21.7505H52.5437V35.8099H59.8023V34.0796H54.2686V21.7505ZM74.6428 31.7968L70.9956 23.0459L67.3483 31.7968L63.1621 21.7505H61.2486L67.3483 35.8099L70.9956 27.4032L74.6428 35.8099L80.7515 21.7505H78.8381L74.6428 31.7968ZM92.4389 21.7686V23.4988H99.8232L92.1963 35.828L102.707 35.8099V34.0796H95.3316L102.958 21.7505L92.4389 21.7686ZM106.731 35.8099H108.699L109.597 33.4274H115.975L116.928 35.8099H118.886L112.831 21.7414L106.731 35.8099ZM110.271 31.8421L112.831 25.4193L115.4 31.8421H110.271ZM129.882 30.0212C130.8 29.6503 131.561 28.9685 132.035 28.093C132.509 27.2175 132.666 26.2029 132.479 25.2234C132.292 24.2439 131.773 23.3606 131.01 22.7253C130.248 22.0899 129.29 21.742 128.301 21.7414H123.207V35.8099H124.923V30.3202H127.726L130.744 35.8099H132.72L129.468 30.1843L129.882 30.0212ZM124.923 28.5899V23.4807H128.301C128.972 23.4807 129.617 23.7499 130.092 24.2289C130.567 24.708 130.834 25.3578 130.834 26.0353C130.834 26.7129 130.567 27.3626 130.092 27.8417C129.617 28.3208 128.972 28.5899 128.301 28.5899H124.923ZM141.659 21.7414H137.76V35.8099H141.659C143.508 35.8099 145.281 35.0692 146.588 33.7509C147.895 32.4326 148.63 30.6446 148.63 28.7802C148.63 26.9158 147.895 25.1277 146.588 23.8094C145.281 22.4911 143.508 21.7505 141.659 21.7505V21.7414ZM141.659 34.0706H139.476V23.4807H141.659C143.053 23.4807 144.389 24.0391 145.375 25.0329C146.36 26.0267 146.914 27.3747 146.914 28.7802C146.914 30.1857 146.36 31.5336 145.375 32.5274C144.389 33.5213 143.053 34.0796 141.659 34.0796V34.0706ZM157.263 27.6116L156.877 27.4666C155.161 26.8053 154.604 26.2256 154.604 25.0841C154.609 24.8331 154.665 24.5857 154.768 24.357C154.871 24.1284 155.019 23.9232 155.203 23.7538C155.387 23.5844 155.603 23.4544 155.838 23.3717C156.073 23.2889 156.323 23.2552 156.571 23.2724C156.975 23.2553 157.374 23.3588 157.719 23.57C158.065 23.7811 158.34 24.0904 158.512 24.4591L160.039 23.7434C159.74 23.0741 159.251 22.5093 158.634 22.1206C158.017 21.7319 157.299 21.5369 156.571 21.5602C155.623 21.5407 154.705 21.9003 154.018 22.5605C153.332 23.2206 152.932 24.1278 152.906 25.0841C152.906 27.0318 153.804 28.146 156.248 29.0519L156.526 29.1606C158.125 29.7948 159.284 30.2477 159.284 31.824C159.281 32.1598 159.21 32.4914 159.077 32.7991C158.943 33.1067 158.75 33.3839 158.507 33.6141C158.265 33.8443 157.978 34.0226 157.666 34.1384C157.353 34.2542 157.021 34.3051 156.688 34.288C156.118 34.3035 155.558 34.1365 155.089 33.811C154.619 33.4855 154.264 33.0181 154.074 32.4762L152.52 33.1737C152.845 34.0171 153.419 34.7394 154.165 35.2433C154.91 35.7471 155.791 36.0081 156.688 35.991C157.244 36.0079 157.799 35.9127 158.318 35.711C158.838 35.5093 159.312 35.2051 159.714 34.8162C160.115 34.4273 160.436 33.9615 160.657 33.4462C160.878 32.9309 160.994 32.3763 161 31.8149C161 29.0429 158.844 28.2185 157.263 27.6116Z" fill="white"/>
<path d="M90.4717 12.2929L93.7058 9.03171L90.4717 5.76145L95.0622 1.13236L93.9393 0L89.3488 4.62909L86.1148 1.36789L82.8718 4.63815L78.2813 0L77.1584 1.13236L81.7489 5.77051L78.5149 9.05888L81.7489 12.2929L77.1494 16.922L78.2723 18.0544L82.8718 13.4253L85.2434 15.8168V35.8098H86.9592V15.8168L89.3398 13.4253L93.9303 18.0544L95.0533 16.922L90.4628 12.2929H90.4717ZM86.1148 14.3946L80.7877 9.05888L86.1148 3.62355L91.433 9.05888L86.1148 14.3946Z" fill="white"/>
</g>
</g>
<defs>
<clipPath id="clip0_2638_2631">
<rect width="161" height="36" fill="white"/>
</clipPath>
</defs>
</svg>
