<svg width="161" height="36" viewBox="0 0 161 36" fill="none" xmlns="http://www.w3.org/2000/svg">
<g clip-path="url(#clip0_2551_3311)">
<path d="M4.74322 27.6115L4.35694 27.4665C2.63213 26.8052 2.08414 26.2708 2.08414 25.084C2.08963 24.8329 2.14557 24.5856 2.24857 24.3569C2.35158 24.1283 2.4995 23.923 2.68341 23.7537C2.86732 23.5843 3.08338 23.4543 3.31853 23.3716C3.55368 23.2888 3.80303 23.255 4.0515 23.2723C4.45408 23.2534 4.85306 23.3562 5.19722 23.5677C5.54138 23.7792 5.81499 24.0895 5.98293 24.459L7.51908 23.7433C7.2205 23.074 6.73153 22.5092 6.11419 22.1205C5.49684 21.7318 4.77893 21.5368 4.0515 21.5601C3.10299 21.5406 2.18533 21.9002 1.49869 22.5604C0.812057 23.2205 0.412178 24.1277 0.386285 25.084C0.386285 27.0317 1.28462 28.1459 3.7281 29.0518L4.00658 29.1605C5.60562 29.7947 6.76448 30.2476 6.76448 31.8238C6.76128 32.1597 6.69078 32.4913 6.55723 32.799C6.42367 33.1066 6.22982 33.3838 5.98731 33.614C5.7448 33.8442 5.45865 34.0225 5.14606 34.1383C4.83346 34.2541 4.50087 34.305 4.16828 34.2879C3.59855 34.3034 3.03858 34.1364 2.56888 33.8109C2.09917 33.4853 1.7439 33.018 1.55412 32.4761L0 33.1827C0.32532 34.026 0.899457 34.7484 1.64487 35.2522C2.39029 35.756 3.27108 36.017 4.16828 36C4.72476 36.0169 5.27899 35.9217 5.79854 35.7199C6.31808 35.5182 6.79251 35.214 7.19404 34.8251C7.59557 34.4362 7.91615 33.9705 8.13701 33.4552C8.35788 32.9398 8.47458 32.3852 8.4803 31.8238C8.4803 29.0428 6.28836 28.2184 4.74322 27.6115ZM18.2632 21.7413H13.1606V35.8098H14.8854V30.3201H18.2632C19.3901 30.3201 20.4709 29.8686 21.2678 29.0651C22.0647 28.2615 22.5123 27.1716 22.5123 26.0352C22.5123 24.8988 22.0647 23.8089 21.2678 23.0054C20.4709 22.2018 19.3901 21.7504 18.2632 21.7504V21.7413ZM18.2632 28.5808H14.8854V23.4806H18.2632C18.9351 23.4806 19.5794 23.7498 20.0545 24.2288C20.5296 24.7079 20.7965 25.3577 20.7965 26.0352C20.7965 26.7127 20.5296 27.3625 20.0545 27.8416C19.5794 28.3207 18.9351 28.5898 18.2632 28.5898V28.5808ZM26.7255 35.8098H35.125V34.0795H28.4414V29.6497H34.3614V27.9104H28.4414V23.4806H35.125V21.7504H26.7255V35.8098ZM42.2937 21.7504H40.5689V35.8098H47.8275V34.0795H42.2937V21.7504ZM54.2686 21.7504H52.5437V35.8098H59.8023V34.0795H54.2686V21.7504ZM74.6428 31.7967L70.9956 23.0458L67.3483 31.7967L63.1621 21.7504H61.2486L67.3483 35.8098L70.9956 27.4031L74.6428 35.8098L80.7515 21.7504H78.8381L74.6428 31.7967ZM92.4389 21.7685V23.4987H99.8232L92.1963 35.8279L102.707 35.8098V34.0795H95.3316L102.958 21.7504L92.4389 21.7685ZM106.731 35.8098H108.699L109.597 33.4273H115.975L116.928 35.8098H118.886L112.831 21.7413L106.731 35.8098ZM110.271 31.842L112.831 25.4192L115.4 31.842H110.271ZM129.882 30.0211C130.8 29.6502 131.561 28.9684 132.035 28.0929C132.509 27.2174 132.666 26.2028 132.479 25.2233C132.292 24.2438 131.773 23.3605 131.01 22.7251C130.248 22.0898 129.29 21.7419 128.301 21.7413H123.207V35.8098H124.923V30.3201H127.726L130.744 35.8098H132.72L129.468 30.1842L129.882 30.0211ZM124.923 28.5898V23.4806H128.301C128.972 23.4806 129.617 23.7498 130.092 24.2288C130.567 24.7079 130.834 25.3577 130.834 26.0352C130.834 26.7127 130.567 27.3625 130.092 27.8416C129.617 28.3207 128.972 28.5898 128.301 28.5898H124.923ZM141.659 21.7413H137.76V35.8098H141.659C143.508 35.8098 145.281 35.0691 146.588 33.7508C147.895 32.4325 148.63 30.6445 148.63 28.7801C148.63 26.9157 147.895 25.1276 146.588 23.8093C145.281 22.491 143.508 21.7504 141.659 21.7504V21.7413ZM141.659 34.0705H139.476V23.4806H141.659C143.053 23.4806 144.389 24.0389 145.375 25.0328C146.36 26.0266 146.914 27.3746 146.914 28.7801C146.914 30.1856 146.36 31.5335 145.375 32.5273C144.389 33.5212 143.053 34.0795 141.659 34.0795V34.0705ZM157.263 27.6115L156.877 27.4665C155.161 26.8052 154.604 26.2255 154.604 25.084C154.609 24.8329 154.665 24.5856 154.768 24.3569C154.871 24.1283 155.019 23.923 155.203 23.7537C155.387 23.5843 155.603 23.4543 155.838 23.3716C156.073 23.2888 156.323 23.255 156.571 23.2723C156.975 23.2552 157.374 23.3587 157.719 23.5698C158.065 23.781 158.34 24.0903 158.512 24.459L160.039 23.7433C159.74 23.074 159.251 22.5092 158.634 22.1205C158.017 21.7318 157.299 21.5368 156.571 21.5601C155.623 21.5406 154.705 21.9002 154.018 22.5604C153.332 23.2205 152.932 24.1277 152.906 25.084C152.906 27.0317 153.804 28.1459 156.248 29.0518L156.526 29.1605C158.125 29.7947 159.284 30.2476 159.284 31.8238C159.281 32.1597 159.21 32.4913 159.077 32.799C158.943 33.1066 158.75 33.3838 158.507 33.614C158.265 33.8442 157.978 34.0225 157.666 34.1383C157.353 34.2541 157.021 34.305 156.688 34.2879C156.118 34.3034 155.558 34.1364 155.089 33.8109C154.619 33.4853 154.264 33.018 154.074 32.4761L152.52 33.1736C152.845 34.017 153.419 34.7393 154.165 35.2432C154.91 35.747 155.791 36.008 156.688 35.9909C157.244 36.0078 157.799 35.9126 158.318 35.7109C158.838 35.5092 159.312 35.2049 159.714 34.8161C160.115 34.4272 160.436 33.9614 160.657 33.4461C160.878 32.9308 160.994 32.3762 161 31.8148C161 29.0428 158.844 28.2184 157.263 27.6115Z" fill="#44149D"/>
<path d="M90.4718 12.2929L93.7058 9.03171L90.4718 5.76145L95.0623 1.13236L93.9393 0L89.3488 4.62909L86.1148 1.36789L82.8718 4.63815L78.2813 0L77.1584 1.13236L81.7489 5.77051L78.5149 9.05888L81.7489 12.2929L77.1494 16.922L78.2723 18.0544L82.8718 13.4253L85.2434 15.8168V35.8098H86.9593V15.8168L89.3399 13.4253L93.9304 18.0544L95.0533 16.922L90.4628 12.2929H90.4718ZM86.1148 14.3946L80.7877 9.05888L86.1148 3.62355L91.433 9.05888L86.1148 14.3946Z" fill="#44149D"/>
</g>
<defs>
<clipPath id="clip0_2551_3311">
<rect width="161" height="36" fill="white"/>
</clipPath>
</defs>
</svg>
