<svg width="536" height="407" viewBox="0 0 536 407" fill="none" xmlns="http://www.w3.org/2000/svg">
<g filter="url(#filter0_d_2570_9771)">
<mask id="path-1-inside-1_2570_9771" fill="white">
<path d="M16 34C16 22.9543 24.9543 14 36 14H273C284.046 14 293 22.9543 293 34V241C293 252.046 284.046 261 273 261H36C24.9543 261 16 252.046 16 241V34Z"/>
</mask>
<path d="M16 34C16 22.9543 24.9543 14 36 14H273C284.046 14 293 22.9543 293 34V241C293 252.046 284.046 261 273 261H36C24.9543 261 16 252.046 16 241V34Z" fill="white" shape-rendering="crispEdges"/>
<path d="M36 14V15H273V14V13H36V14ZM293 34H292V241H293H294V34H293ZM273 261V260H36V261V262H273V261ZM16 241H17V34H16H15V241H16ZM36 261V260C25.5066 260 17 251.493 17 241H16H15C15 252.598 24.402 262 36 262V261ZM293 241H292C292 251.493 283.493 260 273 260V261V262C284.598 262 294 252.598 294 241H293ZM273 14V15C283.493 15 292 23.5066 292 34H293H294C294 22.402 284.598 13 273 13V14ZM36 14V13C24.402 13 15 22.402 15 34H16H17C17 23.5066 25.5066 15 36 15V14Z" fill="#2D0082" fill-opacity="0.24" mask="url(#path-1-inside-1_2570_9771)"/>
<path d="M48.34 47.098C47.6587 47.098 47.0427 46.9813 46.492 46.748C45.9507 46.5147 45.5213 46.1787 45.204 45.74C44.8867 45.3013 44.7233 44.7833 44.714 44.186H46.814C46.842 44.5873 46.982 44.9047 47.234 45.138C47.4953 45.3713 47.85 45.488 48.298 45.488C48.7553 45.488 49.1147 45.3807 49.376 45.166C49.6373 44.942 49.768 44.6527 49.768 44.298C49.768 44.0087 49.6793 43.7707 49.502 43.584C49.3247 43.3973 49.1007 43.2527 48.83 43.15C48.5687 43.038 48.2047 42.9167 47.738 42.786C47.1033 42.5993 46.5853 42.4173 46.184 42.24C45.792 42.0533 45.4513 41.778 45.162 41.414C44.882 41.0407 44.742 40.546 44.742 39.93C44.742 39.3513 44.8867 38.8473 45.176 38.418C45.4653 37.9887 45.8713 37.662 46.394 37.438C46.9167 37.2047 47.514 37.088 48.186 37.088C49.194 37.088 50.0107 37.3353 50.636 37.83C51.2707 38.3153 51.6207 38.9967 51.686 39.874H49.53C49.5113 39.538 49.3667 39.2627 49.096 39.048C48.8347 38.824 48.4847 38.712 48.046 38.712C47.6633 38.712 47.3553 38.81 47.122 39.006C46.898 39.202 46.786 39.4867 46.786 39.86C46.786 40.1213 46.87 40.3407 47.038 40.518C47.2153 40.686 47.43 40.826 47.682 40.938C47.9433 41.0407 48.3073 41.162 48.774 41.302C49.4087 41.4887 49.9267 41.6753 50.328 41.862C50.7293 42.0487 51.0747 42.3287 51.364 42.702C51.6533 43.0753 51.798 43.5653 51.798 44.172C51.798 44.6947 51.6627 45.18 51.392 45.628C51.1213 46.076 50.7247 46.4353 50.202 46.706C49.6793 46.9673 49.0587 47.098 48.34 47.098ZM58.0893 47L55.4573 43.696V47H53.4973V36.64H55.4573V42.534L58.0613 39.244H60.6093L57.1933 43.136L60.6373 47H58.0893ZM62.667 38.32C62.3217 38.32 62.0324 38.2127 61.799 37.998C61.575 37.774 61.463 37.4987 61.463 37.172C61.463 36.8453 61.575 36.5747 61.799 36.36C62.0324 36.136 62.3217 36.024 62.667 36.024C63.0124 36.024 63.297 36.136 63.521 36.36C63.7544 36.5747 63.871 36.8453 63.871 37.172C63.871 37.4987 63.7544 37.774 63.521 37.998C63.297 38.2127 63.0124 38.32 62.667 38.32ZM63.633 39.244V47H61.673V39.244H63.633ZM67.5295 36.64V47H65.5695V36.64H67.5295ZM71.426 36.64V47H69.466V36.64H71.426ZM82.2424 41.988C82.7931 42.0907 83.2458 42.366 83.6004 42.814C83.9551 43.262 84.1324 43.7753 84.1324 44.354C84.1324 44.8767 84.0018 45.3387 83.7404 45.74C83.4884 46.132 83.1198 46.44 82.6344 46.664C82.1491 46.888 81.5751 47 80.9124 47H76.6984V37.228H80.7304C81.3931 37.228 81.9624 37.3353 82.4384 37.55C82.9238 37.7647 83.2878 38.0633 83.5304 38.446C83.7824 38.8287 83.9084 39.2627 83.9084 39.748C83.9084 40.3173 83.7544 40.7933 83.4464 41.176C83.1478 41.5587 82.7464 41.8293 82.2424 41.988ZM78.6584 41.26H80.4504C80.9171 41.26 81.2764 41.1573 81.5284 40.952C81.7804 40.7373 81.9064 40.434 81.9064 40.042C81.9064 39.65 81.7804 39.3467 81.5284 39.132C81.2764 38.9173 80.9171 38.81 80.4504 38.81H78.6584V41.26ZM80.6324 45.404C81.1084 45.404 81.4771 45.292 81.7384 45.068C82.0091 44.844 82.1444 44.5267 82.1444 44.116C82.1444 43.696 82.0044 43.3693 81.7244 43.136C81.4444 42.8933 81.0664 42.772 80.5904 42.772H78.6584V45.404H80.6324ZM87.6545 40.448C87.9065 40.0373 88.2332 39.7153 88.6345 39.482C89.0452 39.2487 89.5118 39.132 90.0345 39.132V41.19H89.5165C88.9005 41.19 88.4338 41.3347 88.1165 41.624C87.8085 41.9133 87.6545 42.4173 87.6545 43.136V47H85.6945V39.244H87.6545V40.448ZM98.5647 42.954C98.5647 43.234 98.546 43.486 98.5087 43.71H92.8387C92.8853 44.27 93.0813 44.7087 93.4267 45.026C93.772 45.3433 94.1967 45.502 94.7007 45.502C95.4287 45.502 95.9467 45.1893 96.2547 44.564H98.3687C98.1447 45.3107 97.7153 45.9267 97.0807 46.412C96.446 46.888 95.6667 47.126 94.7427 47.126C93.996 47.126 93.324 46.9627 92.7267 46.636C92.1387 46.3 91.6767 45.8287 91.3407 45.222C91.014 44.6153 90.8507 43.9153 90.8507 43.122C90.8507 42.3193 91.014 41.6147 91.3407 41.008C91.6673 40.4013 92.1247 39.9347 92.7127 39.608C93.3007 39.2813 93.9773 39.118 94.7427 39.118C95.48 39.118 96.138 39.2767 96.7167 39.594C97.3047 39.9113 97.7573 40.364 98.0747 40.952C98.4013 41.5307 98.5647 42.198 98.5647 42.954ZM96.5347 42.394C96.5253 41.89 96.3433 41.4887 95.9887 41.19C95.634 40.882 95.2 40.728 94.6867 40.728C94.2013 40.728 93.7907 40.8773 93.4547 41.176C93.128 41.4653 92.9273 41.8713 92.8527 42.394H96.5347ZM99.4913 43.094C99.4913 42.31 99.6453 41.6147 99.9533 41.008C100.271 40.4013 100.695 39.9347 101.227 39.608C101.769 39.2813 102.371 39.118 103.033 39.118C103.612 39.118 104.116 39.2347 104.545 39.468C104.984 39.7013 105.334 39.9953 105.595 40.35V39.244H107.569V47H105.595V45.866C105.343 46.23 104.993 46.5333 104.545 46.776C104.107 47.0093 103.598 47.126 103.019 47.126C102.366 47.126 101.769 46.958 101.227 46.622C100.695 46.286 100.271 45.8147 99.9533 45.208C99.6453 44.592 99.4913 43.8873 99.4913 43.094ZM105.595 43.122C105.595 42.646 105.502 42.24 105.315 41.904C105.129 41.5587 104.877 41.2973 104.559 41.12C104.242 40.9333 103.901 40.84 103.537 40.84C103.173 40.84 102.837 40.9287 102.529 41.106C102.221 41.2833 101.969 41.5447 101.773 41.89C101.587 42.226 101.493 42.6273 101.493 43.094C101.493 43.5607 101.587 43.9713 101.773 44.326C101.969 44.6713 102.221 44.9373 102.529 45.124C102.847 45.3107 103.183 45.404 103.537 45.404C103.901 45.404 104.242 45.3153 104.559 45.138C104.877 44.9513 105.129 44.69 105.315 44.354C105.502 44.0087 105.595 43.598 105.595 43.122ZM114.076 47L111.444 43.696V47H109.484V36.64H111.444V42.534L114.048 39.244H116.596L113.18 43.136L116.624 47H114.076ZM117.155 43.094C117.155 42.31 117.309 41.6147 117.617 41.008C117.935 40.4013 118.364 39.9347 118.905 39.608C119.447 39.2813 120.049 39.118 120.711 39.118C121.215 39.118 121.696 39.23 122.153 39.454C122.611 39.6687 122.975 39.958 123.245 40.322V36.64H125.233V47H123.245V45.852C123.003 46.2347 122.662 46.5427 122.223 46.776C121.785 47.0093 121.276 47.126 120.697 47.126C120.044 47.126 119.447 46.958 118.905 46.622C118.364 46.286 117.935 45.8147 117.617 45.208C117.309 44.592 117.155 43.8873 117.155 43.094ZM123.259 43.122C123.259 42.646 123.166 42.24 122.979 41.904C122.793 41.5587 122.541 41.2973 122.223 41.12C121.906 40.9333 121.565 40.84 121.201 40.84C120.837 40.84 120.501 40.9287 120.193 41.106C119.885 41.2833 119.633 41.5447 119.437 41.89C119.251 42.226 119.157 42.6273 119.157 43.094C119.157 43.5607 119.251 43.9713 119.437 44.326C119.633 44.6713 119.885 44.9373 120.193 45.124C120.511 45.3107 120.847 45.404 121.201 45.404C121.565 45.404 121.906 45.3153 122.223 45.138C122.541 44.9513 122.793 44.69 122.979 44.354C123.166 44.0087 123.259 43.598 123.259 43.122ZM130.592 47.126C129.845 47.126 129.173 46.9627 128.576 46.636C127.978 46.3 127.507 45.8287 127.162 45.222C126.826 44.6153 126.658 43.9153 126.658 43.122C126.658 42.3287 126.83 41.6287 127.176 41.022C127.53 40.4153 128.011 39.9487 128.618 39.622C129.224 39.286 129.901 39.118 130.648 39.118C131.394 39.118 132.071 39.286 132.678 39.622C133.284 39.9487 133.76 40.4153 134.106 41.022C134.46 41.6287 134.638 42.3287 134.638 43.122C134.638 43.9153 134.456 44.6153 134.092 45.222C133.737 45.8287 133.252 46.3 132.636 46.636C132.029 46.9627 131.348 47.126 130.592 47.126ZM130.592 45.418C130.946 45.418 131.278 45.334 131.586 45.166C131.903 44.9887 132.155 44.7273 132.342 44.382C132.528 44.0367 132.622 43.6167 132.622 43.122C132.622 42.3847 132.426 41.82 132.034 41.428C131.651 41.0267 131.18 40.826 130.62 40.826C130.06 40.826 129.588 41.0267 129.206 41.428C128.832 41.82 128.646 42.3847 128.646 43.122C128.646 43.8593 128.828 44.4287 129.192 44.83C129.565 45.222 130.032 45.418 130.592 45.418ZM146.827 39.244L144.559 47H142.445L141.031 41.582L139.617 47H137.489L135.207 39.244H137.195L138.567 45.152L140.051 39.244H142.123L143.579 45.138L144.951 39.244H146.827ZM152.186 39.132C153.11 39.132 153.857 39.426 154.426 40.014C154.995 40.5927 155.28 41.4047 155.28 42.45V47H153.32V42.716C153.32 42.1 153.166 41.6287 152.858 41.302C152.55 40.966 152.13 40.798 151.598 40.798C151.057 40.798 150.627 40.966 150.31 41.302C150.002 41.6287 149.848 42.1 149.848 42.716V47H147.888V39.244H149.848V40.21C150.109 39.874 150.441 39.6127 150.842 39.426C151.253 39.23 151.701 39.132 152.186 39.132Z" fill="#1A0533"/>
<path d="M47.648 81.084C47.088 81.084 46.584 80.988 46.136 80.796C45.688 80.596 45.336 80.316 45.08 79.956C44.824 79.596 44.696 79.176 44.696 78.696H46.16C46.192 79.056 46.332 79.352 46.58 79.584C46.836 79.816 47.192 79.932 47.648 79.932C48.12 79.932 48.488 79.82 48.752 79.596C49.016 79.364 49.148 79.068 49.148 78.708C49.148 78.428 49.064 78.2 48.896 78.024C48.736 77.848 48.532 77.712 48.284 77.616C48.044 77.52 47.708 77.416 47.276 77.304C46.732 77.16 46.288 77.016 45.944 76.872C45.608 76.72 45.32 76.488 45.08 76.176C44.84 75.864 44.72 75.448 44.72 74.928C44.72 74.448 44.84 74.028 45.08 73.668C45.32 73.308 45.656 73.032 46.088 72.84C46.52 72.648 47.02 72.552 47.588 72.552C48.396 72.552 49.056 72.756 49.568 73.164C50.088 73.564 50.376 74.116 50.432 74.82H48.92C48.896 74.516 48.752 74.256 48.488 74.04C48.224 73.824 47.876 73.716 47.444 73.716C47.052 73.716 46.732 73.816 46.484 74.016C46.236 74.216 46.112 74.504 46.112 74.88C46.112 75.136 46.188 75.348 46.34 75.516C46.5 75.676 46.7 75.804 46.94 75.9C47.18 75.996 47.508 76.1 47.924 76.212C48.476 76.364 48.924 76.516 49.268 76.668C49.62 76.82 49.916 77.056 50.156 77.376C50.404 77.688 50.528 78.108 50.528 78.636C50.528 79.06 50.412 79.46 50.18 79.836C49.956 80.212 49.624 80.516 49.184 80.748C48.752 80.972 48.24 81.084 47.648 81.084ZM53.5102 75.36C53.7422 75.056 54.0582 74.8 54.4582 74.592C54.8582 74.384 55.3102 74.28 55.8142 74.28C56.3902 74.28 56.9142 74.424 57.3862 74.712C57.8662 74.992 58.2422 75.388 58.5142 75.9C58.7862 76.412 58.9222 77 58.9222 77.664C58.9222 78.328 58.7862 78.924 58.5142 79.452C58.2422 79.972 57.8662 80.38 57.3862 80.676C56.9142 80.964 56.3902 81.108 55.8142 81.108C55.3102 81.108 54.8622 81.008 54.4702 80.808C54.0782 80.6 53.7582 80.344 53.5102 80.04V84.144H52.1422V74.388H53.5102V75.36ZM57.5302 77.664C57.5302 77.208 57.4342 76.816 57.2422 76.488C57.0582 76.152 56.8102 75.9 56.4982 75.732C56.1942 75.556 55.8662 75.468 55.5142 75.468C55.1702 75.468 54.8422 75.556 54.5302 75.732C54.2262 75.908 53.9782 76.164 53.7862 76.5C53.6022 76.836 53.5102 77.232 53.5102 77.688C53.5102 78.144 53.6022 78.544 53.7862 78.888C53.9782 79.224 54.2262 79.48 54.5302 79.656C54.8422 79.832 55.1702 79.92 55.5142 79.92C55.8662 79.92 56.1942 79.832 56.4982 79.656C56.8102 79.472 57.0582 79.208 57.2422 78.864C57.4342 78.52 57.5302 78.12 57.5302 77.664ZM66.335 77.532C66.335 77.78 66.319 78.004 66.287 78.204H61.235C61.275 78.732 61.471 79.156 61.823 79.476C62.175 79.796 62.607 79.956 63.119 79.956C63.855 79.956 64.375 79.648 64.679 79.032H66.155C65.955 79.64 65.591 80.14 65.063 80.532C64.543 80.916 63.895 81.108 63.119 81.108C62.487 81.108 61.919 80.968 61.415 80.688C60.919 80.4 60.527 80 60.239 79.488C59.959 78.968 59.819 78.368 59.819 77.688C59.819 77.008 59.955 76.412 60.227 75.9C60.507 75.38 60.895 74.98 61.391 74.7C61.895 74.42 62.471 74.28 63.119 74.28C63.743 74.28 64.299 74.416 64.787 74.688C65.275 74.96 65.655 75.344 65.927 75.84C66.199 76.328 66.335 76.892 66.335 77.532ZM64.907 77.1C64.899 76.596 64.719 76.192 64.367 75.888C64.015 75.584 63.579 75.432 63.059 75.432C62.587 75.432 62.183 75.584 61.847 75.888C61.511 76.184 61.311 76.588 61.247 77.1H64.907ZM69.0493 72.12V81H67.6813V72.12H69.0493ZM72.2133 72.12V81H70.8453V72.12H72.2133ZM74.7054 73.512C74.4574 73.512 74.2494 73.428 74.0814 73.26C73.9134 73.092 73.8294 72.884 73.8294 72.636C73.8294 72.388 73.9134 72.18 74.0814 72.012C74.2494 71.844 74.4574 71.76 74.7054 71.76C74.9454 71.76 75.1494 71.844 75.3174 72.012C75.4854 72.18 75.5694 72.388 75.5694 72.636C75.5694 72.884 75.4854 73.092 75.3174 73.26C75.1494 73.428 74.9454 73.512 74.7054 73.512ZM75.3774 74.388V81H74.0094V74.388H75.3774ZM80.5094 74.28C81.0294 74.28 81.4934 74.388 81.9014 74.604C82.3174 74.82 82.6414 75.14 82.8734 75.564C83.1054 75.988 83.2214 76.5 83.2214 77.1V81H81.8654V77.304C81.8654 76.712 81.7174 76.26 81.4214 75.948C81.1254 75.628 80.7214 75.468 80.2094 75.468C79.6974 75.468 79.2894 75.628 78.9854 75.948C78.6894 76.26 78.5414 76.712 78.5414 77.304V81H77.1734V74.388H78.5414V75.144C78.7654 74.872 79.0494 74.66 79.3934 74.508C79.7454 74.356 80.1174 74.28 80.5094 74.28ZM87.6304 74.28C88.1424 74.28 88.5944 74.384 88.9864 74.592C89.3864 74.792 89.6984 75.044 89.9224 75.348V74.388H91.3024V81.108C91.3024 81.716 91.1744 82.256 90.9184 82.728C90.6624 83.208 90.2904 83.584 89.8024 83.856C89.3224 84.128 88.7464 84.264 88.0744 84.264C87.1784 84.264 86.4344 84.052 85.8424 83.628C85.2504 83.212 84.9144 82.644 84.8344 81.924H86.1904C86.2944 82.268 86.5144 82.544 86.8504 82.752C87.1944 82.968 87.6024 83.076 88.0744 83.076C88.6264 83.076 89.0704 82.908 89.4064 82.572C89.7504 82.236 89.9224 81.748 89.9224 81.108V80.004C89.6904 80.316 89.3744 80.58 88.9744 80.796C88.5824 81.004 88.1344 81.108 87.6304 81.108C87.0544 81.108 86.5264 80.964 86.0464 80.676C85.5744 80.38 85.1984 79.972 84.9184 79.452C84.6464 78.924 84.5104 78.328 84.5104 77.664C84.5104 77 84.6464 76.412 84.9184 75.9C85.1984 75.388 85.5744 74.992 86.0464 74.712C86.5264 74.424 87.0544 74.28 87.6304 74.28ZM89.9224 77.688C89.9224 77.232 89.8264 76.836 89.6344 76.5C89.4504 76.164 89.2064 75.908 88.9024 75.732C88.5984 75.556 88.2704 75.468 87.9184 75.468C87.5664 75.468 87.2384 75.556 86.9344 75.732C86.6304 75.9 86.3824 76.152 86.1904 76.488C86.0064 76.816 85.9144 77.208 85.9144 77.664C85.9144 78.12 86.0064 78.52 86.1904 78.864C86.3824 79.208 86.6304 79.472 86.9344 79.656C87.2464 79.832 87.5744 79.92 87.9184 79.92C88.2704 79.92 88.5984 79.832 88.9024 79.656C89.2064 79.48 89.4504 79.224 89.6344 78.888C89.8264 78.544 89.9224 78.144 89.9224 77.688ZM102.048 75.144C102.048 75.568 101.948 75.968 101.748 76.344C101.548 76.72 101.228 77.028 100.788 77.268C100.348 77.5 99.7844 77.616 99.0964 77.616H97.5844V81H96.2164V72.66H99.0964C99.7364 72.66 100.276 72.772 100.716 72.996C101.164 73.212 101.496 73.508 101.712 73.884C101.936 74.26 102.048 74.68 102.048 75.144ZM99.0964 76.5C99.6164 76.5 100.004 76.384 100.26 76.152C100.516 75.912 100.644 75.576 100.644 75.144C100.644 74.232 100.128 73.776 99.0964 73.776H97.5844V76.5H99.0964ZM106.221 81.108C105.597 81.108 105.033 80.968 104.529 80.688C104.025 80.4 103.629 80 103.341 79.488C103.053 78.968 102.909 78.368 102.909 77.688C102.909 77.016 103.057 76.42 103.353 75.9C103.649 75.38 104.053 74.98 104.565 74.7C105.077 74.42 105.649 74.28 106.281 74.28C106.913 74.28 107.485 74.42 107.997 74.7C108.509 74.98 108.913 75.38 109.209 75.9C109.505 76.42 109.653 77.016 109.653 77.688C109.653 78.36 109.501 78.956 109.197 79.476C108.893 79.996 108.477 80.4 107.949 80.688C107.429 80.968 106.853 81.108 106.221 81.108ZM106.221 79.92C106.573 79.92 106.901 79.836 107.205 79.668C107.517 79.5 107.769 79.248 107.961 78.912C108.153 78.576 108.249 78.168 108.249 77.688C108.249 77.208 108.157 76.804 107.973 76.476C107.789 76.14 107.545 75.888 107.241 75.72C106.937 75.552 106.609 75.468 106.257 75.468C105.905 75.468 105.577 75.552 105.273 75.72C104.977 75.888 104.741 76.14 104.565 76.476C104.389 76.804 104.301 77.208 104.301 77.688C104.301 78.4 104.481 78.952 104.841 79.344C105.209 79.728 105.669 79.92 106.221 79.92ZM119.885 74.388L117.833 81H116.393L115.061 76.116L113.729 81H112.289L110.225 74.388H111.617L112.997 79.704L114.401 74.388H115.829L117.173 79.68L118.541 74.388H119.885ZM126.968 77.532C126.968 77.78 126.952 78.004 126.92 78.204H121.868C121.908 78.732 122.104 79.156 122.456 79.476C122.808 79.796 123.24 79.956 123.752 79.956C124.488 79.956 125.008 79.648 125.312 79.032H126.788C126.588 79.64 126.224 80.14 125.696 80.532C125.176 80.916 124.528 81.108 123.752 81.108C123.12 81.108 122.552 80.968 122.048 80.688C121.552 80.4 121.16 80 120.872 79.488C120.592 78.968 120.452 78.368 120.452 77.688C120.452 77.008 120.588 76.412 120.86 75.9C121.14 75.38 121.528 74.98 122.024 74.7C122.528 74.42 123.104 74.28 123.752 74.28C124.376 74.28 124.932 74.416 125.42 74.688C125.908 74.96 126.288 75.344 126.56 75.84C126.832 76.328 126.968 76.892 126.968 77.532ZM125.54 77.1C125.532 76.596 125.352 76.192 125 75.888C124.648 75.584 124.212 75.432 123.692 75.432C123.22 75.432 122.816 75.584 122.48 75.888C122.144 76.184 121.944 76.588 121.88 77.1H125.54ZM129.682 75.348C129.882 75.012 130.146 74.752 130.474 74.568C130.81 74.376 131.206 74.28 131.662 74.28V75.696H131.314C130.778 75.696 130.37 75.832 130.09 76.104C129.818 76.376 129.682 76.848 129.682 77.52V81H128.314V74.388H129.682V75.348Z" fill="#1A0533"/>
<path d="M247.264 73.308L243.928 81H242.548L245.92 73.452H241.48V72.288H247.264V73.308ZM249.191 79.14C249.959 78.476 250.563 77.932 251.003 77.508C251.451 77.076 251.823 76.628 252.119 76.164C252.415 75.7 252.563 75.236 252.563 74.772C252.563 74.292 252.447 73.916 252.215 73.644C251.991 73.372 251.635 73.236 251.147 73.236C250.675 73.236 250.307 73.388 250.043 73.692C249.787 73.988 249.651 74.388 249.635 74.892H248.315C248.339 73.98 248.611 73.284 249.131 72.804C249.659 72.316 250.327 72.072 251.135 72.072C252.007 72.072 252.687 72.312 253.175 72.792C253.671 73.272 253.919 73.912 253.919 74.712C253.919 75.288 253.771 75.844 253.475 76.38C253.187 76.908 252.839 77.384 252.431 77.808C252.031 78.224 251.519 78.708 250.895 79.26L250.355 79.74H254.159V80.88H248.327V79.884L249.191 79.14ZM255.145 74.364C255.145 73.78 255.313 73.324 255.649 72.996C255.993 72.66 256.433 72.492 256.969 72.492C257.505 72.492 257.941 72.66 258.277 72.996C258.621 73.324 258.793 73.78 258.793 74.364C258.793 74.948 258.621 75.408 258.277 75.744C257.941 76.08 257.505 76.248 256.969 76.248C256.433 76.248 255.993 76.08 255.649 75.744C255.313 75.408 255.145 74.948 255.145 74.364ZM262.465 72.648L257.677 81H256.333L261.121 72.648H262.465ZM256.969 73.32C256.465 73.32 256.213 73.668 256.213 74.364C256.213 75.068 256.465 75.42 256.969 75.42C257.209 75.42 257.393 75.336 257.521 75.168C257.657 74.992 257.725 74.724 257.725 74.364C257.725 73.668 257.473 73.32 256.969 73.32ZM260.029 79.272C260.029 78.688 260.197 78.232 260.533 77.904C260.877 77.568 261.317 77.4 261.853 77.4C262.381 77.4 262.813 77.568 263.149 77.904C263.493 78.232 263.665 78.688 263.665 79.272C263.665 79.856 263.493 80.316 263.149 80.652C262.813 80.988 262.381 81.156 261.853 81.156C261.317 81.156 260.877 80.988 260.533 80.652C260.197 80.316 260.029 79.856 260.029 79.272ZM261.841 78.228C261.337 78.228 261.085 78.576 261.085 79.272C261.085 79.968 261.337 80.316 261.841 80.316C262.345 80.316 262.597 79.968 262.597 79.272C262.597 78.576 262.345 78.228 261.841 78.228Z" fill="#7C3AED"/>
<g clip-path="url(#clip0_2570_9771)">
<path d="M44 96.5C44 94.2909 45.7909 92.5 48 92.5H261C263.209 92.5 265 94.2909 265 96.5C265 98.7091 263.209 100.5 261 100.5H48C45.7909 100.5 44 98.7091 44 96.5Z" fill="#E0D5F5"/>
<path d="M44 96.5C44 94.2909 45.7909 92.5 48 92.5H185C187.209 92.5 189 94.2909 189 96.5C189 98.7091 187.209 100.5 185 100.5H48C45.7909 100.5 44 98.7091 44 96.5Z" fill="#7C3AED"/>
</g>
<path d="M49.928 126.796H46.436L45.836 128.5H44.408L47.396 120.148H48.98L51.968 128.5H50.528L49.928 126.796ZM49.544 125.68L48.188 121.804L46.82 125.68H49.544ZM52.8112 125.188C52.8112 124.508 52.9472 123.912 53.2192 123.4C53.4992 122.88 53.8832 122.48 54.3712 122.2C54.8592 121.92 55.4192 121.78 56.0512 121.78C56.8512 121.78 57.5112 121.972 58.0312 122.356C58.5592 122.732 58.9152 123.272 59.0992 123.976H57.6232C57.5032 123.648 57.3112 123.392 57.0472 123.208C56.7832 123.024 56.4512 122.932 56.0512 122.932C55.4912 122.932 55.0432 123.132 54.7072 123.532C54.3792 123.924 54.2152 124.476 54.2152 125.188C54.2152 125.9 54.3792 126.456 54.7072 126.856C55.0432 127.256 55.4912 127.456 56.0512 127.456C56.8432 127.456 57.3672 127.108 57.6232 126.412H59.0992C58.9072 127.084 58.5472 127.62 58.0192 128.02C57.4912 128.412 56.8352 128.608 56.0512 128.608C55.4192 128.608 54.8592 128.468 54.3712 128.188C53.8832 127.9 53.4992 127.5 53.2192 126.988C52.9472 126.468 52.8112 125.868 52.8112 125.188ZM60.0065 125.188C60.0065 124.508 60.1425 123.912 60.4145 123.4C60.6945 122.88 61.0785 122.48 61.5665 122.2C62.0545 121.92 62.6145 121.78 63.2465 121.78C64.0465 121.78 64.7065 121.972 65.2265 122.356C65.7545 122.732 66.1105 123.272 66.2945 123.976H64.8185C64.6985 123.648 64.5065 123.392 64.2425 123.208C63.9785 123.024 63.6465 122.932 63.2465 122.932C62.6865 122.932 62.2385 123.132 61.9025 123.532C61.5745 123.924 61.4105 124.476 61.4105 125.188C61.4105 125.9 61.5745 126.456 61.9025 126.856C62.2385 127.256 62.6865 127.456 63.2465 127.456C64.0385 127.456 64.5625 127.108 64.8185 126.412H66.2945C66.1025 127.084 65.7425 127.62 65.2145 128.02C64.6865 128.412 64.0305 128.608 63.2465 128.608C62.6145 128.608 62.0545 128.468 61.5665 128.188C61.0785 127.9 60.6945 127.5 60.4145 126.988C60.1425 126.468 60.0065 125.868 60.0065 125.188ZM73.6458 121.888V128.5H72.2778V127.72C72.0618 127.992 71.7778 128.208 71.4258 128.368C71.0818 128.52 70.7138 128.596 70.3218 128.596C69.8018 128.596 69.3338 128.488 68.9178 128.272C68.5098 128.056 68.1858 127.736 67.9458 127.312C67.7138 126.888 67.5978 126.376 67.5978 125.776V121.888H68.9538V125.572C68.9538 126.164 69.1018 126.62 69.3978 126.94C69.6938 127.252 70.0978 127.408 70.6098 127.408C71.1218 127.408 71.5258 127.252 71.8218 126.94C72.1258 126.62 72.2778 126.164 72.2778 125.572V121.888H73.6458ZM76.8188 122.848C77.0188 122.512 77.2828 122.252 77.6108 122.068C77.9468 121.876 78.3428 121.78 78.7988 121.78V123.196H78.4508C77.9148 123.196 77.5068 123.332 77.2268 123.604C76.9548 123.876 76.8188 124.348 76.8188 125.02V128.5H75.4508V121.888H76.8188V122.848ZM79.6003 125.164C79.6003 124.5 79.7363 123.912 80.0083 123.4C80.2883 122.888 80.6643 122.492 81.1363 122.212C81.6163 121.924 82.1443 121.78 82.7203 121.78C83.2403 121.78 83.6923 121.884 84.0763 122.092C84.4683 122.292 84.7803 122.544 85.0123 122.848V121.888H86.3923V128.5H85.0123V127.516C84.7803 127.828 84.4643 128.088 84.0643 128.296C83.6643 128.504 83.2083 128.608 82.6963 128.608C82.1283 128.608 81.6083 128.464 81.1363 128.176C80.6643 127.88 80.2883 127.472 80.0083 126.952C79.7363 126.424 79.6003 125.828 79.6003 125.164ZM85.0123 125.188C85.0123 124.732 84.9163 124.336 84.7243 124C84.5403 123.664 84.2963 123.408 83.9923 123.232C83.6883 123.056 83.3603 122.968 83.0083 122.968C82.6563 122.968 82.3283 123.056 82.0243 123.232C81.7203 123.4 81.4723 123.652 81.2803 123.988C81.0963 124.316 81.0043 124.708 81.0043 125.164C81.0043 125.62 81.0963 126.02 81.2803 126.364C81.4723 126.708 81.7203 126.972 82.0243 127.156C82.3363 127.332 82.6643 127.42 83.0083 127.42C83.3603 127.42 83.6883 127.332 83.9923 127.156C84.2963 126.98 84.5403 126.724 84.7243 126.388C84.9163 126.044 85.0123 125.644 85.0123 125.188ZM87.7331 125.188C87.7331 124.508 87.8691 123.912 88.1411 123.4C88.4211 122.88 88.8051 122.48 89.2931 122.2C89.7811 121.92 90.3411 121.78 90.9731 121.78C91.7731 121.78 92.4331 121.972 92.9531 122.356C93.4811 122.732 93.8371 123.272 94.0211 123.976H92.5451C92.4251 123.648 92.2331 123.392 91.9691 123.208C91.7051 123.024 91.3731 122.932 90.9731 122.932C90.4131 122.932 89.9651 123.132 89.6291 123.532C89.3011 123.924 89.1371 124.476 89.1371 125.188C89.1371 125.9 89.3011 126.456 89.6291 126.856C89.9651 127.256 90.4131 127.456 90.9731 127.456C91.7651 127.456 92.2891 127.108 92.5451 126.412H94.0211C93.8291 127.084 93.4691 127.62 92.9411 128.02C92.4131 128.412 91.7571 128.608 90.9731 128.608C90.3411 128.608 89.7811 128.468 89.2931 128.188C88.8051 127.9 88.4211 127.5 88.1411 126.988C87.8691 126.468 87.7331 125.868 87.7331 125.188ZM101.336 121.888L97.2804 131.608H95.8644L97.2084 128.392L94.6044 121.888H96.1284L97.9884 126.928L99.9204 121.888H101.336Z" fill="#1A0533"/>
<path d="M243.196 123.928C242.364 123.512 241.948 122.856 241.948 121.96C241.948 121.528 242.056 121.132 242.272 120.772C242.488 120.412 242.812 120.128 243.244 119.92C243.676 119.704 244.204 119.596 244.828 119.596C245.444 119.596 245.968 119.704 246.4 119.92C246.84 120.128 247.168 120.412 247.384 120.772C247.6 121.132 247.708 121.528 247.708 121.96C247.708 122.408 247.592 122.804 247.36 123.148C247.136 123.484 246.836 123.744 246.46 123.928C246.916 124.096 247.276 124.372 247.54 124.756C247.804 125.132 247.936 125.576 247.936 126.088C247.936 126.608 247.804 127.068 247.54 127.468C247.276 127.868 246.908 128.176 246.436 128.392C245.964 128.608 245.428 128.716 244.828 128.716C244.228 128.716 243.692 128.608 243.22 128.392C242.756 128.176 242.392 127.868 242.128 127.468C241.864 127.068 241.732 126.608 241.732 126.088C241.732 125.568 241.864 125.12 242.128 124.744C242.392 124.368 242.748 124.096 243.196 123.928ZM246.4 122.128C246.4 121.68 246.26 121.336 245.98 121.096C245.7 120.856 245.316 120.736 244.828 120.736C244.348 120.736 243.968 120.856 243.688 121.096C243.408 121.336 243.268 121.684 243.268 122.14C243.268 122.54 243.412 122.868 243.7 123.124C243.996 123.372 244.372 123.496 244.828 123.496C245.284 123.496 245.66 123.368 245.956 123.112C246.252 122.856 246.4 122.528 246.4 122.128ZM244.828 124.528C244.3 124.528 243.868 124.66 243.532 124.924C243.204 125.18 243.04 125.552 243.04 126.04C243.04 126.496 243.2 126.868 243.52 127.156C243.84 127.436 244.276 127.576 244.828 127.576C245.372 127.576 245.8 127.432 246.112 127.144C246.432 126.856 246.592 126.488 246.592 126.04C246.592 125.56 246.428 125.188 246.1 124.924C245.78 124.66 245.356 124.528 244.828 124.528ZM254.916 120.808L251.58 128.5H250.2L253.572 120.952H249.132V119.788H254.916V120.808ZM255.871 121.864C255.871 121.28 256.039 120.824 256.375 120.496C256.719 120.16 257.159 119.992 257.695 119.992C258.231 119.992 258.667 120.16 259.003 120.496C259.347 120.824 259.519 121.28 259.519 121.864C259.519 122.448 259.347 122.908 259.003 123.244C258.667 123.58 258.231 123.748 257.695 123.748C257.159 123.748 256.719 123.58 256.375 123.244C256.039 122.908 255.871 122.448 255.871 121.864ZM263.191 120.148L258.403 128.5H257.059L261.847 120.148H263.191ZM257.695 120.82C257.191 120.82 256.939 121.168 256.939 121.864C256.939 122.568 257.191 122.92 257.695 122.92C257.935 122.92 258.119 122.836 258.247 122.668C258.383 122.492 258.451 122.224 258.451 121.864C258.451 121.168 258.199 120.82 257.695 120.82ZM260.755 126.772C260.755 126.188 260.923 125.732 261.259 125.404C261.603 125.068 262.043 124.9 262.579 124.9C263.107 124.9 263.539 125.068 263.875 125.404C264.219 125.732 264.391 126.188 264.391 126.772C264.391 127.356 264.219 127.816 263.875 128.152C263.539 128.488 263.107 128.656 262.579 128.656C262.043 128.656 261.603 128.488 261.259 128.152C260.923 127.816 260.755 127.356 260.755 126.772ZM262.567 125.728C262.063 125.728 261.811 126.076 261.811 126.772C261.811 127.468 262.063 127.816 262.567 127.816C263.071 127.816 263.323 127.468 263.323 126.772C263.323 126.076 263.071 125.728 262.567 125.728Z" fill="#16A34A"/>
<path d="M44 144C44 141.791 45.7909 140 48 140H261C263.209 140 265 141.791 265 144C265 146.209 263.209 148 261 148H48C45.7909 148 44 146.209 44 144Z" fill="#E0D5F5"/>
<path d="M44 144C44 141.791 45.7909 140 48 140H219C221.209 140 223 141.791 223 144C223 146.209 221.209 148 219 148H48C45.7909 148 44 146.209 44 144Z" fill="#16A34A"/>
<path d="M47.648 176.084C47.088 176.084 46.584 175.988 46.136 175.796C45.688 175.596 45.336 175.316 45.08 174.956C44.824 174.596 44.696 174.176 44.696 173.696H46.16C46.192 174.056 46.332 174.352 46.58 174.584C46.836 174.816 47.192 174.932 47.648 174.932C48.12 174.932 48.488 174.82 48.752 174.596C49.016 174.364 49.148 174.068 49.148 173.708C49.148 173.428 49.064 173.2 48.896 173.024C48.736 172.848 48.532 172.712 48.284 172.616C48.044 172.52 47.708 172.416 47.276 172.304C46.732 172.16 46.288 172.016 45.944 171.872C45.608 171.72 45.32 171.488 45.08 171.176C44.84 170.864 44.72 170.448 44.72 169.928C44.72 169.448 44.84 169.028 45.08 168.668C45.32 168.308 45.656 168.032 46.088 167.84C46.52 167.648 47.02 167.552 47.588 167.552C48.396 167.552 49.056 167.756 49.568 168.164C50.088 168.564 50.376 169.116 50.432 169.82H48.92C48.896 169.516 48.752 169.256 48.488 169.04C48.224 168.824 47.876 168.716 47.444 168.716C47.052 168.716 46.732 168.816 46.484 169.016C46.236 169.216 46.112 169.504 46.112 169.88C46.112 170.136 46.188 170.348 46.34 170.516C46.5 170.676 46.7 170.804 46.94 170.9C47.18 170.996 47.508 171.1 47.924 171.212C48.476 171.364 48.924 171.516 49.268 171.668C49.62 171.82 49.916 172.056 50.156 172.376C50.404 172.688 50.528 173.108 50.528 173.636C50.528 174.06 50.412 174.46 50.18 174.836C49.956 175.212 49.624 175.516 49.184 175.748C48.752 175.972 48.24 176.084 47.648 176.084ZM53.5102 170.36C53.7422 170.056 54.0582 169.8 54.4582 169.592C54.8582 169.384 55.3102 169.28 55.8142 169.28C56.3902 169.28 56.9142 169.424 57.3862 169.712C57.8662 169.992 58.2422 170.388 58.5142 170.9C58.7862 171.412 58.9222 172 58.9222 172.664C58.9222 173.328 58.7862 173.924 58.5142 174.452C58.2422 174.972 57.8662 175.38 57.3862 175.676C56.9142 175.964 56.3902 176.108 55.8142 176.108C55.3102 176.108 54.8622 176.008 54.4702 175.808C54.0782 175.6 53.7582 175.344 53.5102 175.04V179.144H52.1422V169.388H53.5102V170.36ZM57.5302 172.664C57.5302 172.208 57.4342 171.816 57.2422 171.488C57.0582 171.152 56.8102 170.9 56.4982 170.732C56.1942 170.556 55.8662 170.468 55.5142 170.468C55.1702 170.468 54.8422 170.556 54.5302 170.732C54.2262 170.908 53.9782 171.164 53.7862 171.5C53.6022 171.836 53.5102 172.232 53.5102 172.688C53.5102 173.144 53.6022 173.544 53.7862 173.888C53.9782 174.224 54.2262 174.48 54.5302 174.656C54.8422 174.832 55.1702 174.92 55.5142 174.92C55.8662 174.92 56.1942 174.832 56.4982 174.656C56.8102 174.472 57.0582 174.208 57.2422 173.864C57.4342 173.52 57.5302 173.12 57.5302 172.664ZM66.335 172.532C66.335 172.78 66.319 173.004 66.287 173.204H61.235C61.275 173.732 61.471 174.156 61.823 174.476C62.175 174.796 62.607 174.956 63.119 174.956C63.855 174.956 64.375 174.648 64.679 174.032H66.155C65.955 174.64 65.591 175.14 65.063 175.532C64.543 175.916 63.895 176.108 63.119 176.108C62.487 176.108 61.919 175.968 61.415 175.688C60.919 175.4 60.527 175 60.239 174.488C59.959 173.968 59.819 173.368 59.819 172.688C59.819 172.008 59.955 171.412 60.227 170.9C60.507 170.38 60.895 169.98 61.391 169.7C61.895 169.42 62.471 169.28 63.119 169.28C63.743 169.28 64.299 169.416 64.787 169.688C65.275 169.96 65.655 170.344 65.927 170.84C66.199 171.328 66.335 171.892 66.335 172.532ZM64.907 172.1C64.899 171.596 64.719 171.192 64.367 170.888C64.015 170.584 63.579 170.432 63.059 170.432C62.587 170.432 62.183 170.584 61.847 170.888C61.511 171.184 61.311 171.588 61.247 172.1H64.907ZM73.7413 172.532C73.7413 172.78 73.7253 173.004 73.6933 173.204H68.6413C68.6813 173.732 68.8773 174.156 69.2293 174.476C69.5813 174.796 70.0133 174.956 70.5253 174.956C71.2613 174.956 71.7813 174.648 72.0853 174.032H73.5612C73.3613 174.64 72.9973 175.14 72.4693 175.532C71.9493 175.916 71.3013 176.108 70.5253 176.108C69.8933 176.108 69.3253 175.968 68.8213 175.688C68.3253 175.4 67.9333 175 67.6453 174.488C67.3653 173.968 67.2253 173.368 67.2253 172.688C67.2253 172.008 67.3613 171.412 67.6333 170.9C67.9133 170.38 68.3013 169.98 68.7973 169.7C69.3013 169.42 69.8773 169.28 70.5253 169.28C71.1493 169.28 71.7053 169.416 72.1933 169.688C72.6813 169.96 73.0613 170.344 73.3333 170.84C73.6053 171.328 73.7413 171.892 73.7413 172.532ZM72.3133 172.1C72.3053 171.596 72.1253 171.192 71.7733 170.888C71.4213 170.584 70.9853 170.432 70.4653 170.432C69.9933 170.432 69.5893 170.584 69.2533 170.888C68.9173 171.184 68.7173 171.588 68.6533 172.1H72.3133ZM74.6315 172.664C74.6315 172 74.7675 171.412 75.0395 170.9C75.3195 170.388 75.6955 169.992 76.1675 169.712C76.6475 169.424 77.1795 169.28 77.7635 169.28C78.1955 169.28 78.6195 169.376 79.0355 169.568C79.4595 169.752 79.7955 170 80.0435 170.312V167.12H81.4235V176H80.0435V175.004C79.8195 175.324 79.5075 175.588 79.1075 175.796C78.7155 176.004 78.2635 176.108 77.7515 176.108C77.1755 176.108 76.6475 175.964 76.1675 175.676C75.6955 175.38 75.3195 174.972 75.0395 174.452C74.7675 173.924 74.6315 173.328 74.6315 172.664ZM80.0435 172.688C80.0435 172.232 79.9475 171.836 79.7555 171.5C79.5715 171.164 79.3275 170.908 79.0235 170.732C78.7195 170.556 78.3915 170.468 78.0395 170.468C77.6875 170.468 77.3595 170.556 77.0555 170.732C76.7515 170.9 76.5035 171.152 76.3115 171.488C76.1275 171.816 76.0355 172.208 76.0355 172.664C76.0355 173.12 76.1275 173.52 76.3115 173.864C76.5035 174.208 76.7515 174.472 77.0555 174.656C77.3675 174.832 77.6955 174.92 78.0395 174.92C78.3915 174.92 78.7195 174.832 79.0235 174.656C79.3275 174.48 79.5715 174.224 79.7555 173.888C79.9475 173.544 80.0435 173.144 80.0435 172.688Z" fill="#1A0533"/>
<path d="M246.36 168.428H242.34V170.816C242.508 170.592 242.756 170.404 243.084 170.252C243.42 170.1 243.776 170.024 244.152 170.024C244.824 170.024 245.368 170.168 245.784 170.456C246.208 170.744 246.508 171.108 246.684 171.548C246.868 171.988 246.96 172.452 246.96 172.94C246.96 173.532 246.844 174.06 246.612 174.524C246.388 174.98 246.048 175.34 245.592 175.604C245.144 175.868 244.592 176 243.936 176C243.064 176 242.364 175.784 241.836 175.352C241.308 174.92 240.992 174.348 240.888 173.636H242.22C242.308 174.012 242.504 174.312 242.808 174.536C243.112 174.752 243.492 174.86 243.948 174.86C244.516 174.86 244.94 174.688 245.22 174.344C245.508 174 245.652 173.544 245.652 172.976C245.652 172.4 245.508 171.96 245.22 171.656C244.932 171.344 244.508 171.188 243.948 171.188C243.556 171.188 243.224 171.288 242.952 171.488C242.688 171.68 242.496 171.944 242.376 172.28H241.08V167.228H246.36V168.428ZM249.86 171.428C249.028 171.012 248.612 170.356 248.612 169.46C248.612 169.028 248.72 168.632 248.936 168.272C249.152 167.912 249.476 167.628 249.908 167.42C250.34 167.204 250.868 167.096 251.492 167.096C252.108 167.096 252.632 167.204 253.064 167.42C253.504 167.628 253.832 167.912 254.048 168.272C254.264 168.632 254.372 169.028 254.372 169.46C254.372 169.908 254.256 170.304 254.024 170.648C253.8 170.984 253.5 171.244 253.124 171.428C253.58 171.596 253.94 171.872 254.204 172.256C254.468 172.632 254.6 173.076 254.6 173.588C254.6 174.108 254.468 174.568 254.204 174.968C253.94 175.368 253.572 175.676 253.1 175.892C252.628 176.108 252.092 176.216 251.492 176.216C250.892 176.216 250.356 176.108 249.884 175.892C249.42 175.676 249.056 175.368 248.792 174.968C248.528 174.568 248.396 174.108 248.396 173.588C248.396 173.068 248.528 172.62 248.792 172.244C249.056 171.868 249.412 171.596 249.86 171.428ZM253.064 169.628C253.064 169.18 252.924 168.836 252.644 168.596C252.364 168.356 251.98 168.236 251.492 168.236C251.012 168.236 250.632 168.356 250.352 168.596C250.072 168.836 249.932 169.184 249.932 169.64C249.932 170.04 250.076 170.368 250.364 170.624C250.66 170.872 251.036 170.996 251.492 170.996C251.948 170.996 252.324 170.868 252.62 170.612C252.916 170.356 253.064 170.028 253.064 169.628ZM251.492 172.028C250.964 172.028 250.532 172.16 250.196 172.424C249.868 172.68 249.704 173.052 249.704 173.54C249.704 173.996 249.864 174.368 250.184 174.656C250.504 174.936 250.94 175.076 251.492 175.076C252.036 175.076 252.464 174.932 252.776 174.644C253.096 174.356 253.256 173.988 253.256 173.54C253.256 173.06 253.092 172.688 252.764 172.424C252.444 172.16 252.02 172.028 251.492 172.028ZM255.82 169.364C255.82 168.78 255.988 168.324 256.324 167.996C256.668 167.66 257.108 167.492 257.644 167.492C258.18 167.492 258.616 167.66 258.952 167.996C259.296 168.324 259.468 168.78 259.468 169.364C259.468 169.948 259.296 170.408 258.952 170.744C258.616 171.08 258.18 171.248 257.644 171.248C257.108 171.248 256.668 171.08 256.324 170.744C255.988 170.408 255.82 169.948 255.82 169.364ZM263.14 167.648L258.352 176H257.008L261.796 167.648H263.14ZM257.644 168.32C257.14 168.32 256.888 168.668 256.888 169.364C256.888 170.068 257.14 170.42 257.644 170.42C257.884 170.42 258.068 170.336 258.196 170.168C258.332 169.992 258.4 169.724 258.4 169.364C258.4 168.668 258.148 168.32 257.644 168.32ZM260.704 174.272C260.704 173.688 260.872 173.232 261.208 172.904C261.552 172.568 261.992 172.4 262.528 172.4C263.056 172.4 263.488 172.568 263.824 172.904C264.168 173.232 264.34 173.688 264.34 174.272C264.34 174.856 264.168 175.316 263.824 175.652C263.488 175.988 263.056 176.156 262.528 176.156C261.992 176.156 261.552 175.988 261.208 175.652C260.872 175.316 260.704 174.856 260.704 174.272ZM262.516 173.228C262.012 173.228 261.76 173.576 261.76 174.272C261.76 174.968 262.012 175.316 262.516 175.316C263.02 175.316 263.272 174.968 263.272 174.272C263.272 173.576 263.02 173.228 262.516 173.228Z" fill="#00B3DE"/>
<g clip-path="url(#clip1_2570_9771)">
<path d="M44 191.5C44 189.291 45.7909 187.5 48 187.5H261C263.209 187.5 265 189.291 265 191.5C265 193.709 263.209 195.5 261 195.5H48C45.7909 195.5 44 193.709 44 191.5Z" fill="#E0D5F5"/>
<path d="M44 191.5C44 189.291 45.7909 187.5 48 187.5H156C158.209 187.5 160 189.291 160 191.5C160 193.709 158.209 195.5 156 195.5H48C45.7909 195.5 44 193.709 44 191.5Z" fill="#00B3DE"/>
</g>
<path d="M44.444 219.312C44.444 218.496 44.632 217.764 45.008 217.116C45.392 216.468 45.908 215.964 46.556 215.604C47.212 215.236 47.928 215.052 48.704 215.052C49.592 215.052 50.38 215.272 51.068 215.712C51.764 216.144 52.268 216.76 52.58 217.56H50.936C50.72 217.12 50.42 216.792 50.036 216.576C49.652 216.36 49.208 216.252 48.704 216.252C48.152 216.252 47.66 216.376 47.228 216.624C46.796 216.872 46.456 217.228 46.208 217.692C45.968 218.156 45.848 218.696 45.848 219.312C45.848 219.928 45.968 220.468 46.208 220.932C46.456 221.396 46.796 221.756 47.228 222.012C47.66 222.26 48.152 222.384 48.704 222.384C49.208 222.384 49.652 222.276 50.036 222.06C50.42 221.844 50.72 221.516 50.936 221.076H52.58C52.268 221.876 51.764 222.492 51.068 222.924C50.38 223.356 49.592 223.572 48.704 223.572C47.92 223.572 47.204 223.392 46.556 223.032C45.908 222.664 45.392 222.156 45.008 221.508C44.632 220.86 44.444 220.128 44.444 219.312ZM55.5493 217.848C55.7493 217.512 56.0133 217.252 56.3413 217.068C56.6773 216.876 57.0733 216.78 57.5293 216.78V218.196H57.1813C56.6453 218.196 56.2373 218.332 55.9573 218.604C55.6853 218.876 55.5493 219.348 55.5493 220.02V223.5H54.1813V216.888H55.5493V217.848ZM64.8467 220.032C64.8467 220.28 64.8307 220.504 64.7987 220.704H59.7467C59.7867 221.232 59.9827 221.656 60.3347 221.976C60.6867 222.296 61.1187 222.456 61.6307 222.456C62.3667 222.456 62.8867 222.148 63.1907 221.532H64.6667C64.4667 222.14 64.1027 222.64 63.5747 223.032C63.0547 223.416 62.4067 223.608 61.6307 223.608C60.9987 223.608 60.4307 223.468 59.9267 223.188C59.4307 222.9 59.0387 222.5 58.7507 221.988C58.4707 221.468 58.3307 220.868 58.3307 220.188C58.3307 219.508 58.4667 218.912 58.7387 218.4C59.0187 217.88 59.4067 217.48 59.9027 217.2C60.4067 216.92 60.9827 216.78 61.6307 216.78C62.2547 216.78 62.8107 216.916 63.2987 217.188C63.7867 217.46 64.1667 217.844 64.4387 218.34C64.7107 218.828 64.8467 219.392 64.8467 220.032ZM63.4187 219.6C63.4107 219.096 63.2307 218.692 62.8787 218.388C62.5267 218.084 62.0907 217.932 61.5707 217.932C61.0987 217.932 60.6947 218.084 60.3587 218.388C60.0227 218.684 59.8227 219.088 59.7587 219.6H63.4187ZM65.737 220.164C65.737 219.5 65.873 218.912 66.145 218.4C66.425 217.888 66.801 217.492 67.273 217.212C67.753 216.924 68.281 216.78 68.857 216.78C69.377 216.78 69.829 216.884 70.213 217.092C70.605 217.292 70.917 217.544 71.149 217.848V216.888H72.529V223.5H71.149V222.516C70.917 222.828 70.601 223.088 70.201 223.296C69.801 223.504 69.345 223.608 68.833 223.608C68.265 223.608 67.745 223.464 67.273 223.176C66.801 222.88 66.425 222.472 66.145 221.952C65.873 221.424 65.737 220.828 65.737 220.164ZM71.149 220.188C71.149 219.732 71.053 219.336 70.861 219C70.677 218.664 70.433 218.408 70.129 218.232C69.825 218.056 69.497 217.968 69.145 217.968C68.793 217.968 68.465 218.056 68.161 218.232C67.857 218.4 67.609 218.652 67.417 218.988C67.233 219.316 67.141 219.708 67.141 220.164C67.141 220.62 67.233 221.02 67.417 221.364C67.609 221.708 67.857 221.972 68.161 222.156C68.473 222.332 68.801 222.42 69.145 222.42C69.497 222.42 69.825 222.332 70.129 222.156C70.433 221.98 70.677 221.724 70.861 221.388C71.053 221.044 71.149 220.644 71.149 220.188ZM75.9218 218.004V221.664C75.9218 221.912 75.9778 222.092 76.0898 222.204C76.2098 222.308 76.4098 222.36 76.6898 222.36H77.5298V223.5H76.4498C75.8338 223.5 75.3618 223.356 75.0338 223.068C74.7058 222.78 74.5418 222.312 74.5418 221.664V218.004H73.7618V216.888H74.5418V215.244H75.9218V216.888H77.5298V218.004H75.9218ZM79.4866 216.012C79.2386 216.012 79.0306 215.928 78.8626 215.76C78.6946 215.592 78.6106 215.384 78.6106 215.136C78.6106 214.888 78.6946 214.68 78.8626 214.512C79.0306 214.344 79.2386 214.26 79.4866 214.26C79.7266 214.26 79.9306 214.344 80.0986 214.512C80.2666 214.68 80.3506 214.888 80.3506 215.136C80.3506 215.384 80.2666 215.592 80.0986 215.76C79.9306 215.928 79.7266 216.012 79.4866 216.012ZM80.1586 216.888V223.5H78.7906V216.888H80.1586ZM84.5107 222.276L86.3827 216.888H87.8347L85.3147 223.5H83.6827L81.1747 216.888H82.6387L84.5107 222.276ZM89.5648 216.012C89.3168 216.012 89.1088 215.928 88.9408 215.76C88.7728 215.592 88.6888 215.384 88.6888 215.136C88.6888 214.888 88.7728 214.68 88.9408 214.512C89.1088 214.344 89.3168 214.26 89.5648 214.26C89.8048 214.26 90.0088 214.344 90.1768 214.512C90.3448 214.68 90.4288 214.888 90.4288 215.136C90.4288 215.384 90.3448 215.592 90.1768 215.76C90.0088 215.928 89.8048 216.012 89.5648 216.012ZM90.2368 216.888V223.5H88.8688V216.888H90.2368ZM93.6288 218.004V221.664C93.6288 221.912 93.6848 222.092 93.7968 222.204C93.9168 222.308 94.1168 222.36 94.3968 222.36H95.2368V223.5H94.1568C93.5408 223.5 93.0688 223.356 92.7408 223.068C92.4128 222.78 92.2488 222.312 92.2488 221.664V218.004H91.4688V216.888H92.2488V215.244H93.6288V216.888H95.2368V218.004H93.6288ZM102.45 216.888L98.3937 226.608H96.9777L98.3217 223.392L95.7177 216.888H97.2417L99.1017 221.928L101.034 216.888H102.45Z" fill="#1A0533"/>
<path d="M245.424 216.78C245.336 216.412 245.176 216.136 244.944 215.952C244.712 215.768 244.388 215.676 243.972 215.676C243.34 215.676 242.868 215.92 242.556 216.408C242.244 216.888 242.08 217.688 242.064 218.808C242.272 218.456 242.576 218.184 242.976 217.992C243.376 217.8 243.808 217.704 244.272 217.704C244.8 217.704 245.264 217.82 245.664 218.052C246.072 218.276 246.388 218.604 246.612 219.036C246.844 219.468 246.96 219.984 246.96 220.584C246.96 221.144 246.848 221.644 246.624 222.084C246.408 222.524 246.084 222.872 245.652 223.128C245.22 223.376 244.7 223.5 244.092 223.5C243.268 223.5 242.62 223.32 242.148 222.96C241.684 222.592 241.356 222.076 241.164 221.412C240.98 220.748 240.888 219.92 240.888 218.928C240.888 216 241.92 214.536 243.984 214.536C244.784 214.536 245.412 214.752 245.868 215.184C246.332 215.616 246.604 216.148 246.684 216.78H245.424ZM243.972 218.856C243.484 218.856 243.068 219.004 242.724 219.3C242.388 219.588 242.22 220.008 242.22 220.56C242.22 221.112 242.376 221.552 242.688 221.88C243.008 222.2 243.452 222.36 244.02 222.36C244.524 222.36 244.92 222.204 245.208 221.892C245.504 221.58 245.652 221.164 245.652 220.644C245.652 220.1 245.508 219.668 245.22 219.348C244.94 219.02 244.524 218.856 243.972 218.856ZM254.059 215.928H250.039V218.316C250.207 218.092 250.455 217.904 250.783 217.752C251.119 217.6 251.475 217.524 251.851 217.524C252.523 217.524 253.067 217.668 253.483 217.956C253.907 218.244 254.207 218.608 254.383 219.048C254.567 219.488 254.659 219.952 254.659 220.44C254.659 221.032 254.543 221.56 254.311 222.024C254.087 222.48 253.747 222.84 253.291 223.104C252.843 223.368 252.291 223.5 251.635 223.5C250.763 223.5 250.063 223.284 249.535 222.852C249.007 222.42 248.691 221.848 248.587 221.136H249.919C250.007 221.512 250.203 221.812 250.507 222.036C250.811 222.252 251.191 222.36 251.647 222.36C252.215 222.36 252.639 222.188 252.919 221.844C253.207 221.5 253.351 221.044 253.351 220.476C253.351 219.9 253.207 219.46 252.919 219.156C252.631 218.844 252.207 218.688 251.647 218.688C251.255 218.688 250.923 218.788 250.651 218.988C250.387 219.18 250.195 219.444 250.075 219.78H248.779V214.728H254.059V215.928ZM255.867 216.864C255.867 216.28 256.035 215.824 256.371 215.496C256.715 215.16 257.155 214.992 257.691 214.992C258.227 214.992 258.663 215.16 258.999 215.496C259.343 215.824 259.515 216.28 259.515 216.864C259.515 217.448 259.343 217.908 258.999 218.244C258.663 218.58 258.227 218.748 257.691 218.748C257.155 218.748 256.715 218.58 256.371 218.244C256.035 217.908 255.867 217.448 255.867 216.864ZM263.187 215.148L258.399 223.5H257.055L261.843 215.148H263.187ZM257.691 215.82C257.187 215.82 256.935 216.168 256.935 216.864C256.935 217.568 257.187 217.92 257.691 217.92C257.931 217.92 258.115 217.836 258.243 217.668C258.379 217.492 258.447 217.224 258.447 216.864C258.447 216.168 258.195 215.82 257.691 215.82ZM260.751 221.772C260.751 221.188 260.919 220.732 261.255 220.404C261.599 220.068 262.039 219.9 262.575 219.9C263.103 219.9 263.535 220.068 263.871 220.404C264.215 220.732 264.387 221.188 264.387 221.772C264.387 222.356 264.215 222.816 263.871 223.152C263.535 223.488 263.103 223.656 262.575 223.656C262.039 223.656 261.599 223.488 261.255 223.152C260.919 222.816 260.751 222.356 260.751 221.772ZM262.563 220.728C262.059 220.728 261.807 221.076 261.807 221.772C261.807 222.468 262.059 222.816 262.563 222.816C263.067 222.816 263.319 222.468 263.319 221.772C263.319 221.076 263.067 220.728 262.563 220.728Z" fill="#FF7438"/>
<path d="M44 239C44 236.791 45.7909 235 48 235H261C263.209 235 265 236.791 265 239C265 241.209 263.209 243 261 243H48C45.7909 243 44 241.209 44 239Z" fill="#E0D5F5"/>
<path d="M44 239C44 236.791 45.7909 235 48 235H177C179.209 235 181 236.791 181 239C181 241.209 179.209 243 177 243H48C45.7909 243 44 241.209 44 239Z" fill="#FF7438"/>
</g>
<g filter="url(#filter1_d_2570_9771)">
<mask id="path-20-inside-2_2570_9771" fill="white">
<path d="M274 247C274 235.954 282.954 227 294 227H500C511.046 227 520 235.954 520 247V369C520 380.046 511.046 389 500 389H294C282.954 389 274 380.046 274 369V247Z"/>
</mask>
<path d="M274 247C274 235.954 282.954 227 294 227H500C511.046 227 520 235.954 520 247V369C520 380.046 511.046 389 500 389H294C282.954 389 274 380.046 274 369V247Z" fill="white" shape-rendering="crispEdges"/>
<path d="M294 227V228H500V227V226H294V227ZM520 247H519V369H520H521V247H520ZM500 389V388H294V389V390H500V389ZM274 369H275V247H274H273V369H274ZM294 389V388C283.507 388 275 379.493 275 369H274H273C273 380.598 282.402 390 294 390V389ZM520 369H519C519 379.493 510.493 388 500 388V389V390C511.598 390 521 380.598 521 369H520ZM500 227V228C510.493 228 519 236.507 519 247H520H521C521 235.402 511.598 226 500 226V227ZM294 227V226C282.402 226 273 235.402 273 247H274H275C275 236.507 283.507 228 294 228V227Z" fill="#2D0082" fill-opacity="0.24" mask="url(#path-20-inside-2_2570_9771)"/>
<path d="M305.028 248.228L302.298 258H299.988L298.154 251.042L296.236 258L293.94 258.014L291.308 248.228H293.408L295.13 255.816L297.118 248.228H299.302L301.178 255.774L302.914 248.228H305.028ZM313.518 253.954C313.518 254.234 313.499 254.486 313.462 254.71H307.792C307.838 255.27 308.034 255.709 308.38 256.026C308.725 256.343 309.15 256.502 309.654 256.502C310.382 256.502 310.9 256.189 311.208 255.564H313.322C313.098 256.311 312.668 256.927 312.034 257.412C311.399 257.888 310.62 258.126 309.696 258.126C308.949 258.126 308.277 257.963 307.68 257.636C307.092 257.3 306.63 256.829 306.294 256.222C305.967 255.615 305.804 254.915 305.804 254.122C305.804 253.319 305.967 252.615 306.294 252.008C306.62 251.401 307.078 250.935 307.666 250.608C308.254 250.281 308.93 250.118 309.696 250.118C310.433 250.118 311.091 250.277 311.67 250.594C312.258 250.911 312.71 251.364 313.028 251.952C313.354 252.531 313.518 253.198 313.518 253.954ZM311.488 253.394C311.478 252.89 311.296 252.489 310.942 252.19C310.587 251.882 310.153 251.728 309.64 251.728C309.154 251.728 308.744 251.877 308.408 252.176C308.081 252.465 307.88 252.871 307.806 253.394H311.488ZM322.158 253.954C322.158 254.234 322.14 254.486 322.102 254.71H316.432C316.479 255.27 316.675 255.709 317.02 256.026C317.366 256.343 317.79 256.502 318.294 256.502C319.022 256.502 319.54 256.189 319.848 255.564H321.962C321.738 256.311 321.309 256.927 320.674 257.412C320.04 257.888 319.26 258.126 318.336 258.126C317.59 258.126 316.918 257.963 316.32 257.636C315.732 257.3 315.27 256.829 314.934 256.222C314.608 255.615 314.444 254.915 314.444 254.122C314.444 253.319 314.608 252.615 314.934 252.008C315.261 251.401 315.718 250.935 316.306 250.608C316.894 250.281 317.571 250.118 318.336 250.118C319.074 250.118 319.732 250.277 320.31 250.594C320.898 250.911 321.351 251.364 321.668 251.952C321.995 252.531 322.158 253.198 322.158 253.954ZM320.128 253.394C320.119 252.89 319.937 252.489 319.582 252.19C319.228 251.882 318.794 251.728 318.28 251.728C317.795 251.728 317.384 251.877 317.048 252.176C316.722 252.465 316.521 252.871 316.446 253.394H320.128ZM328.181 258L325.549 254.696V258H323.589V247.64H325.549V253.534L328.153 250.244H330.701L327.285 254.136L330.729 258H328.181ZM333.725 247.64V258H331.765V247.64H333.725ZM343.081 250.244L338.279 261.668H336.193L337.873 257.804L334.765 250.244H336.963L338.965 255.662L340.995 250.244H343.081ZM353.326 258L351.212 254.71L349.294 258H347.082L350.162 253.072L347.04 248.228H349.294L351.408 251.504L353.312 248.228H355.524L352.458 253.142L355.58 258H353.326ZM364.197 251.252C364.197 251.775 364.071 252.265 363.819 252.722C363.577 253.179 363.189 253.548 362.657 253.828C362.135 254.108 361.472 254.248 360.669 254.248H359.031V258H357.071V248.228H360.669C361.425 248.228 362.069 248.359 362.601 248.62C363.133 248.881 363.53 249.241 363.791 249.698C364.062 250.155 364.197 250.673 364.197 251.252ZM360.585 252.666C361.127 252.666 361.528 252.545 361.789 252.302C362.051 252.05 362.181 251.7 362.181 251.252C362.181 250.3 361.649 249.824 360.585 249.824H359.031V252.666H360.585ZM374.917 256.138H371.025L370.381 258H368.323L371.837 248.214H374.119L377.633 258H375.561L374.917 256.138ZM374.385 254.57L372.971 250.482L371.557 254.57H374.385ZM378.442 254.122C378.442 253.319 378.606 252.619 378.932 252.022C379.259 251.415 379.712 250.949 380.29 250.622C380.869 250.286 381.532 250.118 382.278 250.118C383.24 250.118 384.033 250.361 384.658 250.846C385.293 251.322 385.718 251.994 385.932 252.862H383.818C383.706 252.526 383.515 252.265 383.244 252.078C382.983 251.882 382.656 251.784 382.264 251.784C381.704 251.784 381.261 251.989 380.934 252.4C380.608 252.801 380.444 253.375 380.444 254.122C380.444 254.859 380.608 255.433 380.934 255.844C381.261 256.245 381.704 256.446 382.264 256.446C383.058 256.446 383.576 256.091 383.818 255.382H385.932C385.718 256.222 385.293 256.889 384.658 257.384C384.024 257.879 383.23 258.126 382.278 258.126C381.532 258.126 380.869 257.963 380.29 257.636C379.712 257.3 379.259 256.833 378.932 256.236C378.606 255.629 378.442 254.925 378.442 254.122ZM389.65 251.854V255.606C389.65 255.867 389.711 256.059 389.832 256.18C389.963 256.292 390.178 256.348 390.476 256.348H391.386V258H390.154C388.502 258 387.676 257.197 387.676 255.592V251.854H386.752V250.244H387.676V248.326H389.65V250.244H391.386V251.854H389.65ZM393.79 249.32C393.445 249.32 393.155 249.213 392.922 248.998C392.698 248.774 392.586 248.499 392.586 248.172C392.586 247.845 392.698 247.575 392.922 247.36C393.155 247.136 393.445 247.024 393.79 247.024C394.135 247.024 394.42 247.136 394.644 247.36C394.877 247.575 394.994 247.845 394.994 248.172C394.994 248.499 394.877 248.774 394.644 248.998C394.42 249.213 394.135 249.32 393.79 249.32ZM394.756 250.244V258H392.796V250.244H394.756ZM399.927 256.194L401.887 250.244H403.973L401.103 258H398.723L395.867 250.244H397.967L399.927 256.194ZM406.067 249.32C405.722 249.32 405.433 249.213 405.199 248.998C404.975 248.774 404.863 248.499 404.863 248.172C404.863 247.845 404.975 247.575 405.199 247.36C405.433 247.136 405.722 247.024 406.067 247.024C406.413 247.024 406.697 247.136 406.921 247.36C407.155 247.575 407.271 247.845 407.271 248.172C407.271 248.499 407.155 248.774 406.921 248.998C406.697 249.213 406.413 249.32 406.067 249.32ZM407.033 250.244V258H405.073V250.244H407.033ZM411.252 251.854V255.606C411.252 255.867 411.313 256.059 411.434 256.18C411.565 256.292 411.779 256.348 412.078 256.348H412.988V258H411.756C410.104 258 409.278 257.197 409.278 255.592V251.854H408.354V250.244H409.278V248.326H411.252V250.244H412.988V251.854H411.252ZM421.818 250.244L417.016 261.668H414.93L416.61 257.804L413.502 250.244H415.7L417.702 255.662L419.732 250.244H421.818Z" fill="#1A0533"/>
<path d="M296.577 327C296.415 327 296.298 326.964 296.226 326.892C296.154 326.814 296.118 326.709 296.118 326.577C296.118 326.493 296.139 326.412 296.181 326.334C296.223 326.256 296.283 326.175 296.361 326.091L298.278 324.039C298.572 323.727 298.782 323.442 298.908 323.184C299.04 322.92 299.106 322.656 299.106 322.392C299.106 322.056 299.004 321.801 298.8 321.627C298.596 321.453 298.296 321.366 297.9 321.366C297.66 321.366 297.429 321.402 297.207 321.474C296.985 321.546 296.763 321.663 296.541 321.825C296.451 321.885 296.367 321.912 296.289 321.906C296.211 321.9 296.142 321.87 296.082 321.816C296.028 321.762 295.992 321.696 295.974 321.618C295.956 321.54 295.959 321.459 295.983 321.375C296.007 321.291 296.064 321.219 296.154 321.159C296.4 320.973 296.685 320.829 297.009 320.727C297.333 320.625 297.663 320.574 297.999 320.574C298.437 320.574 298.806 320.643 299.106 320.781C299.412 320.913 299.643 321.108 299.799 321.366C299.955 321.624 300.033 321.939 300.033 322.311C300.033 322.563 299.991 322.809 299.907 323.049C299.829 323.289 299.706 323.535 299.538 323.787C299.376 324.033 299.163 324.294 298.899 324.57L297.081 326.478V326.217H299.943C300.075 326.217 300.177 326.25 300.249 326.316C300.321 326.382 300.357 326.478 300.357 326.604C300.357 326.73 300.321 326.829 300.249 326.901C300.177 326.967 300.075 327 299.943 327H296.577ZM302.19 327C302.064 327 301.965 326.964 301.893 326.892C301.821 326.82 301.785 326.724 301.785 326.604C301.785 326.478 301.821 326.382 301.893 326.316C301.965 326.25 302.064 326.217 302.19 326.217H303.288V321.429H303.756L302.442 322.266C302.346 322.32 302.256 322.341 302.172 322.329C302.094 322.317 302.025 322.284 301.965 322.23C301.911 322.176 301.872 322.11 301.848 322.032C301.83 321.954 301.836 321.873 301.866 321.789C301.902 321.705 301.965 321.636 302.055 321.582L303.297 320.799C303.399 320.739 303.495 320.691 303.585 320.655C303.681 320.613 303.771 320.592 303.855 320.592C303.957 320.592 304.041 320.622 304.107 320.682C304.179 320.736 304.215 320.829 304.215 320.961V326.217H305.223C305.355 326.217 305.457 326.25 305.529 326.316C305.601 326.382 305.637 326.478 305.637 326.604C305.637 326.73 305.601 326.829 305.529 326.901C305.457 326.967 305.355 327 305.223 327H302.19ZM308.891 327.081C308.153 327.081 307.589 326.802 307.199 326.244C306.815 325.68 306.623 324.873 306.623 323.823C306.623 323.109 306.71 322.512 306.884 322.032C307.058 321.552 307.313 321.189 307.649 320.943C307.985 320.697 308.399 320.574 308.891 320.574C309.635 320.574 310.199 320.85 310.583 321.402C310.967 321.948 311.159 322.752 311.159 323.814C311.159 324.516 311.072 325.11 310.898 325.596C310.724 326.082 310.469 326.451 310.133 326.703C309.797 326.955 309.383 327.081 308.891 327.081ZM308.891 326.307C309.353 326.307 309.692 326.106 309.908 325.704C310.13 325.296 310.241 324.666 310.241 323.814C310.241 322.956 310.13 322.332 309.908 321.942C309.692 321.546 309.353 321.348 308.891 321.348C308.435 321.348 308.096 321.546 307.874 321.942C307.652 322.332 307.541 322.956 307.541 323.814C307.541 324.666 307.652 325.296 307.874 325.704C308.096 326.106 308.435 326.307 308.891 326.307Z" fill="#2D0082" fill-opacity="0.5"/>
<path d="M291 339.5C291 336.739 293.239 334.5 296 334.5H311C313.761 334.5 316 336.739 316 339.5V351H291V339.5Z" fill="#E3D3FF"/>
<path d="M302.054 358.98V366H300.344V361.79L298.774 366H297.394L295.814 361.78V366H294.104V358.98H296.124L298.094 363.84L300.044 358.98H302.054ZM305.824 366.08C305.277 366.08 304.784 365.963 304.344 365.73C303.911 365.497 303.567 365.163 303.314 364.73C303.067 364.297 302.944 363.79 302.944 363.21C302.944 362.637 303.071 362.133 303.324 361.7C303.577 361.26 303.924 360.923 304.364 360.69C304.804 360.457 305.297 360.34 305.844 360.34C306.391 360.34 306.884 360.457 307.324 360.69C307.764 360.923 308.111 361.26 308.364 361.7C308.617 362.133 308.744 362.637 308.744 363.21C308.744 363.783 308.614 364.29 308.354 364.73C308.101 365.163 307.751 365.497 307.304 365.73C306.864 365.963 306.371 366.08 305.824 366.08ZM305.824 364.6C306.151 364.6 306.427 364.48 306.654 364.24C306.887 364 307.004 363.657 307.004 363.21C307.004 362.763 306.891 362.42 306.664 362.18C306.444 361.94 306.171 361.82 305.844 361.82C305.511 361.82 305.234 361.94 305.014 362.18C304.794 362.413 304.684 362.757 304.684 363.21C304.684 363.657 304.791 364 305.004 364.24C305.224 364.48 305.497 364.6 305.824 364.6ZM313.051 360.36C313.705 360.36 314.225 360.573 314.611 361C315.005 361.42 315.201 362 315.201 362.74V366H313.501V362.97C313.501 362.597 313.405 362.307 313.211 362.1C313.018 361.893 312.758 361.79 312.431 361.79C312.105 361.79 311.845 361.893 311.651 362.1C311.458 362.307 311.361 362.597 311.361 362.97V366H309.651V360.42H311.361V361.16C311.535 360.913 311.768 360.72 312.061 360.58C312.355 360.433 312.685 360.36 313.051 360.36Z" fill="#2D0082" fill-opacity="0.5"/>
<path d="M327.022 305.284C327.046 304.642 327.256 304.147 327.652 303.799C328.048 303.451 328.585 303.277 329.263 303.277C329.713 303.277 330.097 303.355 330.415 303.511C330.739 303.667 330.982 303.88 331.144 304.15C331.312 304.42 331.396 304.723 331.396 305.059C331.396 305.455 331.297 305.779 331.099 306.031C330.901 306.277 330.67 306.445 330.406 306.535V306.571C330.748 306.685 331.018 306.874 331.216 307.138C331.414 307.402 331.513 307.741 331.513 308.155C331.513 308.527 331.426 308.857 331.252 309.145C331.084 309.427 330.835 309.649 330.505 309.811C330.181 309.973 329.794 310.054 329.344 310.054C328.624 310.054 328.048 309.877 327.616 309.523C327.19 309.169 326.965 308.635 326.941 307.921H328.435C328.441 308.185 328.516 308.395 328.66 308.551C328.804 308.701 329.014 308.776 329.29 308.776C329.524 308.776 329.704 308.71 329.83 308.578C329.962 308.44 330.028 308.26 330.028 308.038C330.028 307.75 329.935 307.543 329.749 307.417C329.569 307.285 329.278 307.219 328.875 307.219H328.588V305.968H328.875C329.182 305.968 329.428 305.917 329.614 305.815C329.806 305.707 329.902 305.518 329.902 305.248C329.902 305.032 329.842 304.864 329.722 304.744C329.602 304.624 329.437 304.564 329.227 304.564C328.999 304.564 328.828 304.633 328.714 304.771C328.606 304.909 328.543 305.08 328.525 305.284H327.022ZM332.453 308.83V307.588L335.297 303.52H337.016V307.498H337.754V308.83H337.016V310H335.477V308.83H332.453ZM335.585 305.212L334.073 307.498H335.585V305.212ZM338.508 306.625C338.508 305.593 338.706 304.78 339.102 304.186C339.504 303.592 340.149 303.295 341.037 303.295C341.925 303.295 342.567 303.592 342.963 304.186C343.365 304.78 343.566 305.593 343.566 306.625C343.566 307.669 343.365 308.488 342.963 309.082C342.567 309.676 341.925 309.973 341.037 309.973C340.149 309.973 339.504 309.676 339.102 309.082C338.706 308.488 338.508 307.669 338.508 306.625ZM342.054 306.625C342.054 306.019 341.988 305.554 341.856 305.23C341.724 304.9 341.451 304.735 341.037 304.735C340.623 304.735 340.35 304.9 340.218 305.23C340.086 305.554 340.02 306.019 340.02 306.625C340.02 307.033 340.044 307.372 340.092 307.642C340.14 307.906 340.236 308.122 340.38 308.29C340.53 308.452 340.749 308.533 341.037 308.533C341.325 308.533 341.541 308.452 341.685 308.29C341.835 308.122 341.934 307.906 341.982 307.642C342.03 307.372 342.054 307.033 342.054 306.625Z" fill="#2D0082" fill-opacity="0.5"/>
<path d="M322.164 322.5C322.164 319.739 324.403 317.5 327.164 317.5H342.164C344.925 317.5 347.164 319.739 347.164 322.5V351H322.164V322.5Z" fill="#E3D3FF"/>
<path d="M332.115 358.98V360.35H330.255V366H328.545V360.35H326.685V358.98H332.115ZM338.484 360.42V366H336.774V365.24C336.6 365.487 336.364 365.687 336.064 365.84C335.77 365.987 335.444 366.06 335.084 366.06C334.657 366.06 334.28 365.967 333.954 365.78C333.627 365.587 333.374 365.31 333.194 364.95C333.014 364.59 332.924 364.167 332.924 363.68V360.42H334.624V363.45C334.624 363.823 334.72 364.113 334.914 364.32C335.107 364.527 335.367 364.63 335.694 364.63C336.027 364.63 336.29 364.527 336.484 364.32C336.677 364.113 336.774 363.823 336.774 363.45V360.42H338.484ZM344.972 363.12C344.972 363.28 344.962 363.447 344.942 363.62H341.072C341.098 363.967 341.208 364.233 341.402 364.42C341.602 364.6 341.845 364.69 342.132 364.69C342.558 364.69 342.855 364.51 343.022 364.15H344.842C344.748 364.517 344.578 364.847 344.332 365.14C344.092 365.433 343.788 365.663 343.422 365.83C343.055 365.997 342.645 366.08 342.192 366.08C341.645 366.08 341.158 365.963 340.732 365.73C340.305 365.497 339.972 365.163 339.732 364.73C339.492 364.297 339.372 363.79 339.372 363.21C339.372 362.63 339.488 362.123 339.722 361.69C339.962 361.257 340.295 360.923 340.722 360.69C341.148 360.457 341.638 360.34 342.192 360.34C342.732 360.34 343.212 360.453 343.632 360.68C344.052 360.907 344.378 361.23 344.612 361.65C344.852 362.07 344.972 362.56 344.972 363.12ZM343.222 362.67C343.222 362.377 343.122 362.143 342.922 361.97C342.722 361.797 342.472 361.71 342.172 361.71C341.885 361.71 341.642 361.793 341.442 361.96C341.248 362.127 341.128 362.363 341.082 362.67H343.222Z" fill="#2D0082" fill-opacity="0.5"/>
<path d="M357.97 325.861V324.43H360.463V331H358.861V325.861H357.97ZM362.595 327.472C362.031 327.172 361.749 326.701 361.749 326.059C361.749 325.735 361.833 325.441 362.001 325.177C362.169 324.907 362.424 324.694 362.766 324.538C363.108 324.376 363.528 324.295 364.026 324.295C364.524 324.295 364.941 324.376 365.277 324.538C365.619 324.694 365.874 324.907 366.042 325.177C366.21 325.441 366.294 325.735 366.294 326.059C366.294 326.383 366.216 326.665 366.06 326.905C365.91 327.145 365.706 327.334 365.448 327.472C365.772 327.628 366.021 327.844 366.195 328.12C366.369 328.39 366.456 328.708 366.456 329.074C366.456 329.5 366.348 329.869 366.132 330.181C365.916 330.487 365.622 330.721 365.25 330.883C364.884 331.045 364.476 331.126 364.026 331.126C363.576 331.126 363.165 331.045 362.793 330.883C362.427 330.721 362.136 330.487 361.92 330.181C361.704 329.869 361.596 329.5 361.596 329.074C361.596 328.702 361.683 328.381 361.857 328.111C362.031 327.835 362.277 327.622 362.595 327.472ZM364.8 326.293C364.8 326.047 364.728 325.858 364.584 325.726C364.446 325.588 364.26 325.519 364.026 325.519C363.792 325.519 363.603 325.588 363.459 325.726C363.321 325.864 363.252 326.056 363.252 326.302C363.252 326.536 363.324 326.722 363.468 326.86C363.612 326.992 363.798 327.058 364.026 327.058C364.254 327.058 364.44 326.989 364.584 326.851C364.728 326.713 364.8 326.527 364.8 326.293ZM364.026 328.138C363.744 328.138 363.516 328.216 363.342 328.372C363.168 328.522 363.081 328.732 363.081 329.002C363.081 329.254 363.165 329.461 363.333 329.623C363.507 329.785 363.738 329.866 364.026 329.866C364.314 329.866 364.539 329.785 364.701 329.623C364.869 329.461 364.953 329.254 364.953 329.002C364.953 328.738 364.866 328.528 364.692 328.372C364.524 328.216 364.302 328.138 364.026 328.138ZM367.351 327.625C367.351 326.593 367.549 325.78 367.945 325.186C368.347 324.592 368.992 324.295 369.88 324.295C370.768 324.295 371.41 324.592 371.806 325.186C372.208 325.78 372.409 326.593 372.409 327.625C372.409 328.669 372.208 329.488 371.806 330.082C371.41 330.676 370.768 330.973 369.88 330.973C368.992 330.973 368.347 330.676 367.945 330.082C367.549 329.488 367.351 328.669 367.351 327.625ZM370.897 327.625C370.897 327.019 370.831 326.554 370.699 326.23C370.567 325.9 370.294 325.735 369.88 325.735C369.466 325.735 369.193 325.9 369.061 326.23C368.929 326.554 368.863 327.019 368.863 327.625C368.863 328.033 368.887 328.372 368.935 328.642C368.983 328.906 369.079 329.122 369.223 329.29C369.373 329.452 369.592 329.533 369.88 329.533C370.168 329.533 370.384 329.452 370.528 329.29C370.678 329.122 370.777 328.906 370.825 328.642C370.873 328.372 370.897 328.033 370.897 327.625Z" fill="#2D0082" fill-opacity="0.5"/>
<path d="M353.328 343.5C353.328 340.739 355.567 338.5 358.328 338.5H373.328C376.09 338.5 378.328 340.739 378.328 343.5V351H353.328V343.5Z" fill="#E3D3FF"/>
<path d="M365.233 358.98L363.403 366H361.333L360.213 361.38L359.053 366H356.983L355.203 358.98H357.033L358.043 364.09L359.293 358.98H361.173L362.373 364.09L363.393 358.98H365.233ZM371.351 363.12C371.351 363.28 371.341 363.447 371.321 363.62H367.451C367.477 363.967 367.587 364.233 367.781 364.42C367.981 364.6 368.224 364.69 368.511 364.69C368.937 364.69 369.234 364.51 369.401 364.15H371.221C371.127 364.517 370.957 364.847 370.711 365.14C370.471 365.433 370.167 365.663 369.801 365.83C369.434 365.997 369.024 366.08 368.571 366.08C368.024 366.08 367.537 365.963 367.111 365.73C366.684 365.497 366.351 365.163 366.111 364.73C365.871 364.297 365.751 363.79 365.751 363.21C365.751 362.63 365.867 362.123 366.101 361.69C366.341 361.257 366.674 360.923 367.101 360.69C367.527 360.457 368.017 360.34 368.571 360.34C369.111 360.34 369.591 360.453 370.011 360.68C370.431 360.907 370.757 361.23 370.991 361.65C371.231 362.07 371.351 362.56 371.351 363.12ZM369.601 362.67C369.601 362.377 369.501 362.143 369.301 361.97C369.101 361.797 368.851 361.71 368.551 361.71C368.264 361.71 368.021 361.793 367.821 361.96C367.627 362.127 367.507 362.363 367.461 362.67H369.601ZM371.913 363.2C371.913 362.627 372.019 362.123 372.233 361.69C372.453 361.257 372.749 360.923 373.123 360.69C373.496 360.457 373.913 360.34 374.373 360.34C374.739 360.34 375.073 360.417 375.373 360.57C375.679 360.723 375.919 360.93 376.093 361.19V358.6H377.803V366H376.093V365.2C375.933 365.467 375.703 365.68 375.403 365.84C375.109 366 374.766 366.08 374.373 366.08C373.913 366.08 373.496 365.963 373.123 365.73C372.749 365.49 372.453 365.153 372.233 364.72C372.019 364.28 371.913 363.773 371.913 363.2ZM376.093 363.21C376.093 362.783 375.973 362.447 375.733 362.2C375.499 361.953 375.213 361.83 374.873 361.83C374.533 361.83 374.243 361.953 374.003 362.2C373.769 362.44 373.653 362.773 373.653 363.2C373.653 363.627 373.769 363.967 374.003 364.22C374.243 364.467 374.533 364.59 374.873 364.59C375.213 364.59 375.499 364.467 375.733 364.22C375.973 363.973 376.093 363.637 376.093 363.21Z" fill="#2D0082" fill-opacity="0.5"/>
<path d="M389.332 298.83V297.588L392.176 293.52H393.895V297.498H394.633V298.83H393.895V300H392.356V298.83H389.332ZM392.464 295.212L390.952 297.498H392.464V295.212ZM395.332 298.767C395.536 298.605 395.629 298.53 395.611 298.542C396.199 298.056 396.661 297.657 396.997 297.345C397.339 297.033 397.627 296.706 397.861 296.364C398.095 296.022 398.212 295.689 398.212 295.365C398.212 295.119 398.155 294.927 398.041 294.789C397.927 294.651 397.756 294.582 397.528 294.582C397.3 294.582 397.12 294.669 396.988 294.843C396.862 295.011 396.799 295.251 396.799 295.563H395.314C395.326 295.053 395.434 294.627 395.638 294.285C395.848 293.943 396.121 293.691 396.457 293.529C396.799 293.367 397.177 293.286 397.591 293.286C398.305 293.286 398.842 293.469 399.202 293.835C399.568 294.201 399.751 294.678 399.751 295.266C399.751 295.908 399.532 296.505 399.094 297.057C398.656 297.603 398.098 298.137 397.42 298.659H399.85V299.91H395.332V298.767ZM400.528 296.625C400.528 295.593 400.726 294.78 401.122 294.186C401.524 293.592 402.169 293.295 403.057 293.295C403.945 293.295 404.587 293.592 404.983 294.186C405.385 294.78 405.586 295.593 405.586 296.625C405.586 297.669 405.385 298.488 404.983 299.082C404.587 299.676 403.945 299.973 403.057 299.973C402.169 299.973 401.524 299.676 401.122 299.082C400.726 298.488 400.528 297.669 400.528 296.625ZM404.074 296.625C404.074 296.019 404.008 295.554 403.876 295.23C403.744 294.9 403.471 294.735 403.057 294.735C402.643 294.735 402.37 294.9 402.238 295.23C402.106 295.554 402.04 296.019 402.04 296.625C402.04 297.033 402.064 297.372 402.112 297.642C402.16 297.906 402.256 298.122 402.4 298.29C402.55 298.452 402.769 298.533 403.057 298.533C403.345 298.533 403.561 298.452 403.705 298.29C403.855 298.122 403.954 297.906 404.002 297.642C404.05 297.372 404.074 297.033 404.074 296.625Z" fill="#2D0082" fill-opacity="0.5"/>
<path d="M384.492 312.5C384.492 309.739 386.731 307.5 389.492 307.5H404.492C407.254 307.5 409.492 309.739 409.492 312.5V351H384.492V312.5Z" fill="#E3D3FF"/>
<path d="M393.686 358.98V360.35H391.826V366H390.116V360.35H388.256V358.98H393.686ZM397.974 360.36C398.614 360.36 399.127 360.573 399.514 361C399.9 361.42 400.094 362 400.094 362.74V366H398.394V362.97C398.394 362.597 398.297 362.307 398.104 362.1C397.91 361.893 397.65 361.79 397.324 361.79C396.997 361.79 396.737 361.893 396.544 362.1C396.35 362.307 396.254 362.597 396.254 362.97V366H394.544V358.6H396.254V361.17C396.427 360.923 396.664 360.727 396.964 360.58C397.264 360.433 397.6 360.36 397.974 360.36ZM406.792 360.42V366H405.082V365.24C404.909 365.487 404.672 365.687 404.372 365.84C404.079 365.987 403.752 366.06 403.392 366.06C402.965 366.06 402.589 365.967 402.262 365.78C401.935 365.587 401.682 365.31 401.502 364.95C401.322 364.59 401.232 364.167 401.232 363.68V360.42H402.932V363.45C402.932 363.823 403.029 364.113 403.222 364.32C403.415 364.527 403.675 364.63 404.002 364.63C404.335 364.63 404.599 364.527 404.792 364.32C404.985 364.113 405.082 363.823 405.082 363.45V360.42H406.792Z" fill="#2D0082" fill-opacity="0.5"/>
<path d="M420.514 299.284C420.538 298.642 420.748 298.147 421.144 297.799C421.54 297.451 422.077 297.277 422.755 297.277C423.205 297.277 423.589 297.355 423.907 297.511C424.231 297.667 424.474 297.88 424.636 298.15C424.804 298.42 424.888 298.723 424.888 299.059C424.888 299.455 424.789 299.779 424.591 300.031C424.393 300.277 424.162 300.445 423.898 300.535V300.571C424.24 300.685 424.51 300.874 424.708 301.138C424.906 301.402 425.005 301.741 425.005 302.155C425.005 302.527 424.918 302.857 424.744 303.145C424.576 303.427 424.327 303.649 423.997 303.811C423.673 303.973 423.286 304.054 422.836 304.054C422.116 304.054 421.54 303.877 421.108 303.523C420.682 303.169 420.457 302.635 420.433 301.921H421.927C421.933 302.185 422.008 302.395 422.152 302.551C422.296 302.701 422.506 302.776 422.782 302.776C423.016 302.776 423.196 302.71 423.322 302.578C423.454 302.44 423.52 302.26 423.52 302.038C423.52 301.75 423.427 301.543 423.241 301.417C423.061 301.285 422.77 301.219 422.368 301.219H422.08V299.968H422.368C422.674 299.968 422.92 299.917 423.106 299.815C423.298 299.707 423.394 299.518 423.394 299.248C423.394 299.032 423.334 298.864 423.214 298.744C423.094 298.624 422.929 298.564 422.719 298.564C422.491 298.564 422.32 298.633 422.206 298.771C422.098 298.909 422.035 299.08 422.017 299.284H420.514ZM427.565 302.074C427.655 302.548 427.931 302.785 428.393 302.785C428.711 302.785 428.936 302.644 429.068 302.362C429.2 302.08 429.266 301.621 429.266 300.985C429.134 301.171 428.954 301.315 428.726 301.417C428.498 301.519 428.243 301.57 427.961 301.57C427.577 301.57 427.235 301.492 426.935 301.336C426.635 301.174 426.398 300.937 426.224 300.625C426.056 300.307 425.972 299.923 425.972 299.473C425.972 299.029 426.062 298.642 426.242 298.312C426.428 297.982 426.689 297.727 427.025 297.547C427.367 297.367 427.769 297.277 428.231 297.277C429.119 297.277 429.74 297.553 430.094 298.105C430.448 298.657 430.625 299.47 430.625 300.544C430.625 301.324 430.553 301.969 430.409 302.479C430.271 302.983 430.034 303.367 429.698 303.631C429.368 303.895 428.915 304.027 428.339 304.027C427.883 304.027 427.493 303.937 427.169 303.757C426.851 303.577 426.605 303.34 426.431 303.046C426.263 302.752 426.167 302.428 426.143 302.074H427.565ZM428.312 300.355C428.564 300.355 428.765 300.28 428.915 300.13C429.065 299.974 429.14 299.764 429.14 299.5C429.14 299.212 429.062 298.99 428.906 298.834C428.75 298.678 428.54 298.6 428.276 298.6C428.012 298.6 427.802 298.681 427.646 298.843C427.496 298.999 427.421 299.215 427.421 299.491C427.421 299.749 427.496 299.959 427.646 300.121C427.802 300.277 428.024 300.355 428.312 300.355ZM431.446 300.625C431.446 299.593 431.644 298.78 432.04 298.186C432.442 297.592 433.087 297.295 433.975 297.295C434.863 297.295 435.505 297.592 435.901 298.186C436.303 298.78 436.504 299.593 436.504 300.625C436.504 301.669 436.303 302.488 435.901 303.082C435.505 303.676 434.863 303.973 433.975 303.973C433.087 303.973 432.442 303.676 432.04 303.082C431.644 302.488 431.446 301.669 431.446 300.625ZM434.992 300.625C434.992 300.019 434.926 299.554 434.794 299.23C434.662 298.9 434.389 298.735 433.975 298.735C433.561 298.735 433.288 298.9 433.156 299.23C433.024 299.554 432.958 300.019 432.958 300.625C432.958 301.033 432.982 301.372 433.03 301.642C433.078 301.906 433.174 302.122 433.318 302.29C433.468 302.452 433.687 302.533 433.975 302.533C434.263 302.533 434.479 302.452 434.623 302.29C434.773 302.122 434.872 301.906 434.92 301.642C434.968 301.372 434.992 301.033 434.992 300.625Z" fill="#2D0082" fill-opacity="0.5"/>
<path d="M415.656 316.5C415.656 313.739 417.895 311.5 420.656 311.5H435.656C438.418 311.5 440.656 313.739 440.656 316.5V351H415.656V316.5Z" fill="#E3D3FF"/>
<path d="M427.542 358.98V360.35H424.682V361.83H426.822V363.16H424.682V366H422.972V358.98H427.542ZM430.15 361.35C430.35 361.043 430.6 360.803 430.9 360.63C431.2 360.45 431.534 360.36 431.9 360.36V362.17H431.43C431.004 362.17 430.684 362.263 430.47 362.45C430.257 362.63 430.15 362.95 430.15 363.41V366H428.44V360.42H430.15V361.35ZM433.578 359.84C433.278 359.84 433.031 359.753 432.838 359.58C432.651 359.4 432.558 359.18 432.558 358.92C432.558 358.653 432.651 358.433 432.838 358.26C433.031 358.08 433.278 357.99 433.578 357.99C433.871 357.99 434.111 358.08 434.298 358.26C434.491 358.433 434.588 358.653 434.588 358.92C434.588 359.18 434.491 359.4 434.298 359.58C434.111 359.753 433.871 359.84 433.578 359.84ZM434.428 360.42V366H432.718V360.42H434.428Z" fill="#2D0082" fill-opacity="0.5"/>
<path d="M456.25 283.771H453.442V285.013C453.562 284.881 453.73 284.773 453.946 284.689C454.162 284.605 454.396 284.563 454.648 284.563C455.098 284.563 455.47 284.665 455.764 284.869C456.064 285.073 456.283 285.337 456.421 285.661C456.559 285.985 456.628 286.336 456.628 286.714C456.628 287.416 456.43 287.974 456.034 288.388C455.638 288.796 455.08 289 454.36 289C453.88 289 453.463 288.919 453.109 288.757C452.755 288.589 452.482 288.358 452.29 288.064C452.098 287.77 451.993 287.431 451.975 287.047H453.478C453.514 287.233 453.601 287.389 453.739 287.515C453.877 287.635 454.066 287.695 454.306 287.695C454.588 287.695 454.798 287.605 454.936 287.425C455.074 287.245 455.143 287.005 455.143 286.705C455.143 286.411 455.071 286.186 454.927 286.03C454.783 285.874 454.573 285.796 454.297 285.796C454.093 285.796 453.925 285.847 453.793 285.949C453.661 286.045 453.574 286.174 453.532 286.336H452.047V282.421H456.25V283.771ZM457.477 285.625C457.477 284.593 457.675 283.78 458.071 283.186C458.473 282.592 459.118 282.295 460.006 282.295C460.894 282.295 461.536 282.592 461.932 283.186C462.334 283.78 462.535 284.593 462.535 285.625C462.535 286.669 462.334 287.488 461.932 288.082C461.536 288.676 460.894 288.973 460.006 288.973C459.118 288.973 458.473 288.676 458.071 288.082C457.675 287.488 457.477 286.669 457.477 285.625ZM461.023 285.625C461.023 285.019 460.957 284.554 460.825 284.23C460.693 283.9 460.42 283.735 460.006 283.735C459.592 283.735 459.319 283.9 459.187 284.23C459.055 284.554 458.989 285.019 458.989 285.625C458.989 286.033 459.013 286.372 459.061 286.642C459.109 286.906 459.205 287.122 459.349 287.29C459.499 287.452 459.718 287.533 460.006 287.533C460.294 287.533 460.51 287.452 460.654 287.29C460.804 287.122 460.903 286.906 460.951 286.642C460.999 286.372 461.023 286.033 461.023 285.625ZM463.348 285.625C463.348 284.593 463.546 283.78 463.942 283.186C464.344 282.592 464.989 282.295 465.877 282.295C466.765 282.295 467.407 282.592 467.803 283.186C468.205 283.78 468.406 284.593 468.406 285.625C468.406 286.669 468.205 287.488 467.803 288.082C467.407 288.676 466.765 288.973 465.877 288.973C464.989 288.973 464.344 288.676 463.942 288.082C463.546 287.488 463.348 286.669 463.348 285.625ZM466.894 285.625C466.894 285.019 466.828 284.554 466.696 284.23C466.564 283.9 466.291 283.735 465.877 283.735C465.463 283.735 465.19 283.9 465.058 284.23C464.926 284.554 464.86 285.019 464.86 285.625C464.86 286.033 464.884 286.372 464.932 286.642C464.98 286.906 465.076 287.122 465.22 287.29C465.37 287.452 465.589 287.533 465.877 287.533C466.165 287.533 466.381 287.452 466.525 287.29C466.675 287.122 466.774 286.906 466.822 286.642C466.87 286.372 466.894 286.033 466.894 285.625Z" fill="#2D0082" fill-opacity="0.5"/>
<path d="M446.82 301.5C446.82 298.739 449.059 296.5 451.82 296.5H466.82C469.582 296.5 471.82 298.739 471.82 301.5V351H446.82V301.5Z" fill="#E3D3FF"/>
<path d="M454.855 366.07C454.342 366.07 453.882 365.987 453.475 365.82C453.069 365.653 452.742 365.407 452.495 365.08C452.255 364.753 452.129 364.36 452.115 363.9H453.935C453.962 364.16 454.052 364.36 454.205 364.5C454.359 364.633 454.559 364.7 454.805 364.7C455.059 364.7 455.259 364.643 455.405 364.53C455.552 364.41 455.625 364.247 455.625 364.04C455.625 363.867 455.565 363.723 455.445 363.61C455.332 363.497 455.189 363.403 455.015 363.33C454.849 363.257 454.609 363.173 454.295 363.08C453.842 362.94 453.472 362.8 453.185 362.66C452.899 362.52 452.652 362.313 452.445 362.04C452.239 361.767 452.135 361.41 452.135 360.97C452.135 360.317 452.372 359.807 452.845 359.44C453.319 359.067 453.935 358.88 454.695 358.88C455.469 358.88 456.092 359.067 456.565 359.44C457.039 359.807 457.292 360.32 457.325 360.98H455.475C455.462 360.753 455.379 360.577 455.225 360.45C455.072 360.317 454.875 360.25 454.635 360.25C454.429 360.25 454.262 360.307 454.135 360.42C454.009 360.527 453.945 360.683 453.945 360.89C453.945 361.117 454.052 361.293 454.265 361.42C454.479 361.547 454.812 361.683 455.265 361.83C455.719 361.983 456.085 362.13 456.365 362.27C456.652 362.41 456.899 362.613 457.105 362.88C457.312 363.147 457.415 363.49 457.415 363.91C457.415 364.31 457.312 364.673 457.105 365C456.905 365.327 456.612 365.587 456.225 365.78C455.839 365.973 455.382 366.07 454.855 366.07ZM458.128 363.2C458.128 362.627 458.234 362.123 458.448 361.69C458.668 361.257 458.964 360.923 459.338 360.69C459.711 360.457 460.128 360.34 460.588 360.34C460.981 360.34 461.324 360.42 461.618 360.58C461.918 360.74 462.148 360.95 462.308 361.21V360.42H464.018V366H462.308V365.21C462.141 365.47 461.908 365.68 461.608 365.84C461.314 366 460.971 366.08 460.578 366.08C460.124 366.08 459.711 365.963 459.338 365.73C458.964 365.49 458.668 365.153 458.448 364.72C458.234 364.28 458.128 363.773 458.128 363.2ZM462.308 363.21C462.308 362.783 462.188 362.447 461.948 362.2C461.714 361.953 461.428 361.83 461.088 361.83C460.748 361.83 460.458 361.953 460.218 362.2C459.984 362.44 459.868 362.773 459.868 363.2C459.868 363.627 459.984 363.967 460.218 364.22C460.458 364.467 460.748 364.59 461.088 364.59C461.428 364.59 461.714 364.467 461.948 364.22C462.188 363.973 462.308 363.637 462.308 363.21ZM468.365 364.55V366H467.495C466.875 366 466.391 365.85 466.045 365.55C465.698 365.243 465.525 364.747 465.525 364.06V361.84H464.845V360.42H465.525V359.06H467.235V360.42H468.355V361.84H467.235V364.08C467.235 364.247 467.275 364.367 467.355 364.44C467.435 364.513 467.568 364.55 467.755 364.55H468.365Z" fill="#2D0082" fill-opacity="0.5"/>
<path d="M482.842 310.284C482.866 309.642 483.076 309.147 483.472 308.799C483.868 308.451 484.405 308.277 485.083 308.277C485.533 308.277 485.917 308.355 486.235 308.511C486.559 308.667 486.802 308.88 486.964 309.15C487.132 309.42 487.216 309.723 487.216 310.059C487.216 310.455 487.117 310.779 486.919 311.031C486.721 311.277 486.49 311.445 486.226 311.535V311.571C486.568 311.685 486.838 311.874 487.036 312.138C487.234 312.402 487.333 312.741 487.333 313.155C487.333 313.527 487.246 313.857 487.072 314.145C486.904 314.427 486.655 314.649 486.325 314.811C486.001 314.973 485.614 315.054 485.164 315.054C484.444 315.054 483.868 314.877 483.436 314.523C483.01 314.169 482.785 313.635 482.761 312.921H484.255C484.261 313.185 484.336 313.395 484.48 313.551C484.624 313.701 484.834 313.776 485.11 313.776C485.344 313.776 485.524 313.71 485.65 313.578C485.782 313.44 485.848 313.26 485.848 313.038C485.848 312.75 485.755 312.543 485.569 312.417C485.389 312.285 485.098 312.219 484.696 312.219H484.408V310.968H484.696C485.002 310.968 485.248 310.917 485.434 310.815C485.626 310.707 485.722 310.518 485.722 310.248C485.722 310.032 485.662 309.864 485.542 309.744C485.422 309.624 485.257 309.564 485.047 309.564C484.819 309.564 484.648 309.633 484.534 309.771C484.426 309.909 484.363 310.08 484.345 310.284H482.842ZM488.075 309.861V308.43H490.568V315H488.966V309.861H488.075ZM491.621 311.625C491.621 310.593 491.819 309.78 492.215 309.186C492.617 308.592 493.262 308.295 494.15 308.295C495.038 308.295 495.68 308.592 496.076 309.186C496.478 309.78 496.679 310.593 496.679 311.625C496.679 312.669 496.478 313.488 496.076 314.082C495.68 314.676 495.038 314.973 494.15 314.973C493.262 314.973 492.617 314.676 492.215 314.082C491.819 313.488 491.621 312.669 491.621 311.625ZM495.167 311.625C495.167 311.019 495.101 310.554 494.969 310.23C494.837 309.9 494.564 309.735 494.15 309.735C493.736 309.735 493.463 309.9 493.331 310.23C493.199 310.554 493.133 311.019 493.133 311.625C493.133 312.033 493.157 312.372 493.205 312.642C493.253 312.906 493.349 313.122 493.493 313.29C493.643 313.452 493.862 313.533 494.15 313.533C494.438 313.533 494.654 313.452 494.798 313.29C494.948 313.122 495.047 312.906 495.095 312.642C495.143 312.372 495.167 312.033 495.167 311.625Z" fill="#2D0082" fill-opacity="0.5"/>
<path d="M477.984 327.5C477.984 324.739 480.223 322.5 482.984 322.5H497.984C500.746 322.5 502.984 324.739 502.984 327.5V351H477.984V327.5Z" fill="#7C3AED"/>
<path d="M484.808 366.07C484.295 366.07 483.835 365.987 483.428 365.82C483.022 365.653 482.695 365.407 482.448 365.08C482.208 364.753 482.082 364.36 482.068 363.9H483.888C483.915 364.16 484.005 364.36 484.158 364.5C484.312 364.633 484.512 364.7 484.758 364.7C485.012 364.7 485.212 364.643 485.358 364.53C485.505 364.41 485.578 364.247 485.578 364.04C485.578 363.867 485.518 363.723 485.398 363.61C485.285 363.497 485.142 363.403 484.968 363.33C484.802 363.257 484.562 363.173 484.248 363.08C483.795 362.94 483.425 362.8 483.138 362.66C482.852 362.52 482.605 362.313 482.398 362.04C482.192 361.767 482.088 361.41 482.088 360.97C482.088 360.317 482.325 359.807 482.798 359.44C483.272 359.067 483.888 358.88 484.648 358.88C485.422 358.88 486.045 359.067 486.518 359.44C486.992 359.807 487.245 360.32 487.278 360.98H485.428C485.415 360.753 485.332 360.577 485.178 360.45C485.025 360.317 484.828 360.25 484.588 360.25C484.382 360.25 484.215 360.307 484.088 360.42C483.962 360.527 483.898 360.683 483.898 360.89C483.898 361.117 484.005 361.293 484.218 361.42C484.432 361.547 484.765 361.683 485.218 361.83C485.672 361.983 486.038 362.13 486.318 362.27C486.605 362.41 486.852 362.613 487.058 362.88C487.265 363.147 487.368 363.49 487.368 363.91C487.368 364.31 487.265 364.673 487.058 365C486.858 365.327 486.565 365.587 486.178 365.78C485.792 365.973 485.335 366.07 484.808 366.07ZM493.931 360.42V366H492.221V365.24C492.047 365.487 491.811 365.687 491.511 365.84C491.217 365.987 490.891 366.06 490.531 366.06C490.104 366.06 489.727 365.967 489.401 365.78C489.074 365.587 488.821 365.31 488.641 364.95C488.461 364.59 488.371 364.167 488.371 363.68V360.42H490.071V363.45C490.071 363.823 490.167 364.113 490.361 364.32C490.554 364.527 490.814 364.63 491.141 364.63C491.474 364.63 491.737 364.527 491.931 364.32C492.124 364.113 492.221 363.823 492.221 363.45V360.42H493.931ZM498.559 360.36C499.212 360.36 499.732 360.573 500.119 361C500.512 361.42 500.709 362 500.709 362.74V366H499.009V362.97C499.009 362.597 498.912 362.307 498.719 362.1C498.526 361.893 498.266 361.79 497.939 361.79C497.612 361.79 497.352 361.893 497.159 362.1C496.966 362.307 496.869 362.597 496.869 362.97V366H495.159V360.42H496.869V361.16C497.042 360.913 497.276 360.72 497.569 360.58C497.862 360.433 498.192 360.36 498.559 360.36Z" fill="#2D0082" fill-opacity="0.5"/>
</g>
<defs>
<filter id="filter0_d_2570_9771" x="0" y="0" width="309" height="279" filterUnits="userSpaceOnUse" color-interpolation-filters="sRGB">
<feFlood flood-opacity="0" result="BackgroundImageFix"/>
<feColorMatrix in="SourceAlpha" type="matrix" values="0 0 0 0 0 0 0 0 0 0 0 0 0 0 0 0 0 0 127 0" result="hardAlpha"/>
<feOffset dy="2"/>
<feGaussianBlur stdDeviation="8"/>
<feComposite in2="hardAlpha" operator="out"/>
<feColorMatrix type="matrix" values="0 0 0 0 0.177257 0 0 0 0 0 0 0 0 0 0.509615 0 0 0 0.06 0"/>
<feBlend mode="normal" in2="BackgroundImageFix" result="effect1_dropShadow_2570_9771"/>
<feBlend mode="normal" in="SourceGraphic" in2="effect1_dropShadow_2570_9771" result="shape"/>
</filter>
<filter id="filter1_d_2570_9771" x="258" y="213" width="278" height="194" filterUnits="userSpaceOnUse" color-interpolation-filters="sRGB">
<feFlood flood-opacity="0" result="BackgroundImageFix"/>
<feColorMatrix in="SourceAlpha" type="matrix" values="0 0 0 0 0 0 0 0 0 0 0 0 0 0 0 0 0 0 127 0" result="hardAlpha"/>
<feOffset dy="2"/>
<feGaussianBlur stdDeviation="8"/>
<feComposite in2="hardAlpha" operator="out"/>
<feColorMatrix type="matrix" values="0 0 0 0 0.356863 0 0 0 0 0.176471 0 0 0 0 0.619608 0 0 0 0.06 0"/>
<feBlend mode="normal" in2="BackgroundImageFix" result="effect1_dropShadow_2570_9771"/>
<feBlend mode="normal" in="SourceGraphic" in2="effect1_dropShadow_2570_9771" result="shape"/>
</filter>
<clipPath id="clip0_2570_9771">
<path d="M44 96.5C44 94.2909 45.7909 92.5 48 92.5H261C263.209 92.5 265 94.2909 265 96.5C265 98.7091 263.209 100.5 261 100.5H48C45.7909 100.5 44 98.7091 44 96.5Z" fill="white"/>
</clipPath>
<clipPath id="clip1_2570_9771">
<path d="M44 191.5C44 189.291 45.7909 187.5 48 187.5H261C263.209 187.5 265 189.291 265 191.5C265 193.709 263.209 195.5 261 195.5H48C45.7909 195.5 44 193.709 44 191.5Z" fill="white"/>
</clipPath>
</defs>
</svg>
